<svg width="139" height="50" viewBox="0 0 139 50" fill="none" xmlns="http://www.w3.org/2000/svg">
<path d="M60.2706 19.7469C60.2706 19.7 60.2706 19.7 60.2706 19.6531C60.2706 19.6531 60.2706 19.6531 60.2706 19.6061V19.5593C60.2706 19.5593 60.2706 19.5593 60.2706 19.5124V19.4655V19.4185V19.3716C60.2706 19.3716 60.2706 19.3716 60.2706 19.3248C60.2706 19.3248 60.2706 19.3248 60.2706 19.2779C60.2706 19.2779 60.2706 19.2779 60.2706 19.2309C60.2706 19.2309 60.2706 19.2309 60.2706 19.184C60.2706 19.184 60.2706 19.184 60.2706 19.1371C60.2706 19.1371 60.2706 19.1371 60.2706 19.0903C60.2706 19.0903 60.2706 19.0903 60.2234 19.0433L50.5951 8.39608L50.5479 8.34916C50.5479 8.34916 50.5007 8.34916 50.5007 8.30225C50.5007 8.30225 50.5007 8.30225 50.4535 8.30225C50.4535 8.30225 50.4535 8.30225 50.4063 8.30225C50.4063 8.30225 50.4063 8.30225 50.3591 8.30225H50.3119C50.3119 8.30225 50.3119 8.30225 50.2647 8.30225H50.2176H50.1703C50.1231 8.30225 50.0759 8.30225 50.0288 8.30225H16.4712C16.424 8.30225 16.3768 8.30225 16.3296 8.30225H16.2824H16.2352C16.2352 8.30225 16.2352 8.30225 16.188 8.30225H16.1408C16.1408 8.30225 16.1408 8.30225 16.0937 8.30225C16.0937 8.30225 16.0937 8.30225 16.0464 8.30225C16.0464 8.30225 16.0464 8.30225 15.9992 8.30225C15.9992 8.30225 15.952 8.30225 15.952 8.34916C15.952 8.34916 15.952 8.34916 15.9049 8.34916L15.8576 8.39608L6.22933 19.2309C6.22933 19.2309 6.22933 19.2309 6.18213 19.2779C6.18213 19.2779 6.18213 19.2779 6.18213 19.3248C6.18213 19.3248 6.18213 19.3248 6.18213 19.3716C6.18213 19.3716 6.18213 19.3716 6.18213 19.4185C6.18213 19.4185 6.18213 19.4185 6.18213 19.4655C6.18213 19.4655 6.18213 19.4655 6.18213 19.5124C6.18213 19.5124 6.18213 19.5124 6.18213 19.5593V19.6061C6.18213 19.6061 6.18213 19.6061 6.18213 19.6531V19.7C6.18213 19.7 6.18213 19.7 6.18213 19.7469V19.7938C6.18213 19.7938 6.18213 19.7938 6.18213 19.8407C6.18213 19.8876 6.18213 19.8876 6.18213 19.9345V19.9814C6.18213 19.9814 6.18213 19.9814 6.18213 20.0283V20.0752C6.18213 20.0752 6.18213 20.0753 6.18213 20.1221V20.169V20.2159V20.2629C6.18213 20.2629 6.18213 20.2629 6.18213 20.3098C6.18213 20.3098 6.18213 20.3098 6.18213 20.3566C6.18213 20.3566 6.18213 20.3566 6.18213 20.4035C6.18213 20.4035 6.18213 20.4035 6.18213 20.4505C6.18213 20.4505 6.18213 20.4505 6.18213 20.4974C6.18213 20.4974 6.18213 20.4974 6.18213 20.5443C6.18213 20.5443 6.18213 20.5443 6.22933 20.5911L32.5184 49.7188C32.5184 49.7657 32.5656 49.7657 32.6128 49.8126C32.66 49.8594 32.66 49.8594 32.7072 49.8594C32.7544 49.8594 32.7544 49.9063 32.8016 49.9063C32.8488 49.9063 32.896 49.9533 32.896 49.9533C32.9432 49.9533 32.9904 49.9533 33.0376 49.9533H33.0848H33.132C33.1792 49.9533 33.2264 49.9533 33.2736 49.9533C33.3208 49.9533 33.368 49.9533 33.368 49.9063C33.4152 49.9063 33.4623 49.8594 33.4623 49.8594C33.5096 49.8594 33.5096 49.8126 33.5568 49.8126C33.5568 49.8126 33.5568 49.8126 33.6039 49.7657C33.7927 49.2028 33.9815 48.64 34.1703 48.0771C34.4063 47.2797 34.8311 46.5292 35.1143 45.7319L34.9727 45.9195L42.9963 20.5911H57.486C58.2411 20.4974 59.0435 20.5443 59.8459 20.5911L60.0818 20.3566C60.0818 20.3566 60.0818 20.3566 60.129 20.3098C60.129 20.3098 60.129 20.3098 60.129 20.2629C60.129 20.2629 60.129 20.2629 60.129 20.2159C60.129 20.2159 60.129 20.2159 60.129 20.169C60.129 20.169 60.129 20.169 60.129 20.1221C60.129 20.1221 60.129 20.1221 60.129 20.0752C60.129 20.0752 60.129 20.0752 60.129 20.0283V19.9814C60.129 19.9814 60.129 19.9814 60.129 19.9345V19.8876C60.129 19.8876 60.129 19.8876 60.129 19.8407V19.7938C60.129 19.7938 60.129 19.7938 60.129 19.7469C60.2706 19.7938 60.2706 19.7938 60.2706 19.7469ZM31.3857 9.89697L23.8812 18.4805L17.9815 9.89697H31.3857ZM33.132 10.3191L40.6836 18.9495H25.5804L33.132 10.3191ZM16.3768 10.366L22.3237 18.9495H8.63643L16.3768 10.366ZM8.58918 20.5443H23.2205L31.2441 45.8726L8.58918 20.5443ZM33.132 46.5292L24.9196 20.5443H41.3444L33.132 46.5292ZM42.3828 18.4805L34.8783 9.89697H48.2824L42.3828 18.4805ZM43.9875 18.9495L49.9343 10.366L57.6748 18.9495H43.9875Z" fill="url(#paint0_linear_2_13948)"/>
<path d="M0.0471977 7.22329C5.71091 7.45781 6.98523 8.67733 7.17402 14.3527L7.26845 14.3058C7.50441 8.67733 8.73156 7.41089 14.4425 7.22329L14.3953 7.12945C8.73156 6.89493 7.45723 5.67543 7.26845 0L7.17402 0.0469043C6.93805 5.67543 5.71091 6.94185 0 7.12945L0.0471977 7.22329Z" fill="url(#paint1_linear_2_13948)"/>
<path d="M42.9497 20.1692L133.333 19.5126L122.997 49.9535L32.9438 50.0004L42.9497 20.1692Z" fill="#0C3A46"/>
<path d="M45.8758 30.4406H49.6044C50.8788 30.4406 51.8699 30.9096 52.5307 31.8008C53.1442 32.5982 53.4746 33.63 53.4746 34.8964C53.4746 35.8814 53.2858 36.7257 52.9083 37.5231C52.2475 38.9302 51.1619 39.5869 49.5572 39.5869H45.8286V30.4406H45.8758ZM49.3213 38.5081C49.746 38.5081 50.0764 38.4612 50.3596 38.3673C50.8316 38.2266 51.2564 37.8983 51.5395 37.4292C51.7756 37.054 51.9643 36.585 52.0587 36.0221C52.1059 35.6938 52.1531 35.3655 52.1531 35.084C52.1531 33.9584 51.9171 33.0672 51.4923 32.4574C51.0203 31.8477 50.3124 31.5193 49.3213 31.5193H47.1029V38.5549H49.3213V38.5081Z" fill="white"/>
<path d="M57.4869 30.4406V36.116C57.4869 36.7726 57.6285 37.3355 57.8645 37.7576C58.2421 38.4142 58.8557 38.7426 59.7524 38.7426C60.7907 38.7426 61.5459 38.3673 61.9235 37.6638C62.1123 37.2886 62.2539 36.7257 62.2539 36.069V30.4406H63.5282V35.5531C63.5282 36.6788 63.3866 37.5231 63.0562 38.1328C62.4899 39.2586 61.4515 39.7745 59.894 39.7745C58.3365 39.7745 57.2981 39.2116 56.7318 38.1328C56.4486 37.5231 56.2598 36.6788 56.2598 35.5531V30.4406H57.4869Z" fill="white"/>
<path d="M66.5962 30.4406H70.8441C71.5517 30.4406 72.1186 30.5343 72.5904 30.7688C73.4396 31.1441 73.8649 31.8945 73.8649 32.9264C73.8649 33.4893 73.7706 33.9114 73.534 34.2866C73.2981 34.615 72.9678 34.8964 72.5904 35.131C72.9678 35.2716 73.2037 35.4593 73.3924 35.6938C73.5811 35.9284 73.6755 36.3036 73.6755 36.8664L73.7227 38.0859C73.7227 38.4142 73.7706 38.6957 73.8177 38.8833C73.9121 39.1647 74.0064 39.3523 74.1952 39.4462V39.6338H72.6847C72.6376 39.5399 72.5904 39.4462 72.5904 39.3054C72.5432 39.1647 72.5432 38.9302 72.5432 38.6019L72.4488 37.054C72.4017 36.4442 72.2129 36.069 71.7876 35.8345C71.5517 35.7407 71.1743 35.6469 70.6553 35.6469H67.8233V39.5869H66.5962V30.4406ZM70.7497 34.615C71.3159 34.615 71.7876 34.5212 72.1186 34.2866C72.4488 34.0521 72.6376 33.63 72.6376 33.0203C72.6376 32.3636 72.4017 31.9414 71.9292 31.7069C71.6933 31.5662 71.3159 31.5193 70.8912 31.5193H67.8233V34.6619H70.7497V34.615Z" fill="white"/>
<path d="M79.4809 30.4406H80.897L84.2474 39.5869H82.8792L81.9349 36.8664H78.3008L77.31 39.5869H75.9883L79.4809 30.4406ZM81.5103 35.8345L80.0943 31.8008L78.631 35.8345H81.5103Z" fill="white"/>
<path d="M86.4183 30.4406H87.8815L92.5072 37.8514V30.4406H93.6866V39.5869H92.2713L87.5513 32.176V39.5869H86.3711V30.4406H86.4183Z" fill="white"/>
<path d="M97.0376 30.4406H98.3121V39.5869H97.0376V30.4406Z" fill="#00A2D6"/>
<path d="M102.749 30.4406V36.116C102.749 36.7726 102.89 37.3355 103.126 37.7576C103.504 38.4142 104.118 38.7426 105.015 38.7426C106.053 38.7426 106.808 38.3673 107.186 37.6638C107.374 37.2886 107.516 36.7257 107.516 36.069V30.4406H108.79V35.5531C108.79 36.6788 108.649 37.5231 108.318 38.1328C107.752 39.2586 106.714 39.7745 105.156 39.7745C103.599 39.7745 102.56 39.2116 101.994 38.1328C101.711 37.5231 101.522 36.6788 101.522 35.5531V30.4406H102.749Z" fill="white"/>
<path d="M111.669 30.4406H113.463L116.106 38.1797L118.749 30.4406H120.495V39.5869H119.315V34.1929C119.315 34.0053 119.315 33.6769 119.315 33.2548C119.315 32.8327 119.315 32.3636 119.315 31.8477L116.672 39.5399H115.445L112.802 31.8477V32.129C112.802 32.3636 112.802 32.6919 112.802 33.161C112.802 33.63 112.802 33.9584 112.802 34.1929V39.5869H111.622V30.4406H111.669Z" fill="white"/>
<path d="M45.3564 23.0302H46.0644L47.8579 27.533L49.6514 23.0302H50.3594V28.1428H49.8874V23.7337L48.1411 28.1428H47.6691L45.9228 23.7337V28.1428H45.4508V23.0302H45.3564Z" fill="white"/>
<path d="M53.4752 23.0302H54.0415L56.0711 28.1428H55.5519L54.9383 26.548H52.5784L51.9176 28.1428H51.3984L53.4752 23.0302ZM52.72 26.1258H54.7495L53.7583 23.4992L52.72 26.1258Z" fill="white"/>
<path d="M57.1094 23.0302H58.9029C60.4604 23.0771 61.2627 23.9213 61.2627 25.6099C61.2627 27.2984 60.4604 28.1428 58.9029 28.1897H57.1094V23.0302ZM57.6286 27.7206H58.6668C60.13 27.7206 60.7907 27.1108 60.7907 25.563C60.7907 24.0151 60.13 23.4054 58.6668 23.4054H57.6286V27.7206Z" fill="white"/>
<path d="M62.6792 23.0302H66.219V23.4523H63.1511V25.2816H66.0302V25.7037H63.1511V27.7206H66.2662V28.1428H62.6792V23.0302Z" fill="white"/>
<path d="M69.6162 23.0302H70.1359L71.3154 27.533L72.5899 23.0302H73.2032L74.4777 27.533L75.6579 23.0302H76.1297L74.7136 28.1428H74.1947L72.873 23.5461L71.5519 28.1428H71.0323L69.6162 23.0302Z" fill="white"/>
<path d="M77.3564 23.0302H77.8282V28.1428H77.3564V23.0302Z" fill="white"/>
<path d="M78.9619 23.0302H83.0686V23.4523H81.2751V28.1428H80.8026V23.4523H79.0091V23.0302H78.9619Z" fill="white"/>
<path d="M84.1069 23.0302H84.5787V25.2347H87.6468V23.0302H88.1186V28.1428H87.6468V25.6568H84.5787V28.1428H84.1069V23.0302Z" fill="white"/>
<path d="M45.4517 45.3095L46.9148 43.2457H47.1507V45.3564H47.6227V45.5909H47.1507V46.3414H46.9148V45.5909H45.4517V45.3095ZM46.9148 45.3095V43.6209L45.7348 45.3095H46.9148Z" fill="white"/>
<path d="M50.9264 44.7936C50.9264 45.5441 50.7377 46.3884 49.8409 46.3884C48.9442 46.3884 48.7554 45.4971 48.7554 44.7936C48.7554 44.0432 48.9442 43.1989 49.8409 43.1989C50.7377 43.1989 50.9264 44.09 50.9264 44.7936ZM49.0385 44.7936C49.0385 45.3565 49.1329 46.1539 49.8409 46.1539C50.5489 46.1539 50.6432 45.3095 50.6432 44.7936C50.6432 44.2777 50.5489 43.4334 49.8409 43.4334C49.1329 43.4334 49.0385 44.2777 49.0385 44.7936Z" fill="white"/>
<path d="M53.5697 44.0433C53.5697 44.5123 53.381 44.8876 52.8618 44.8876C52.3426 44.8876 52.1538 44.5123 52.1538 44.0433C52.1538 43.5743 52.3426 43.1991 52.8618 43.1991C53.381 43.1991 53.5697 43.5743 53.5697 44.0433ZM52.3898 44.0433C52.3898 44.3247 52.4842 44.7 52.8618 44.7C53.2393 44.7 53.3338 44.3247 53.3338 44.0433C53.3338 43.7619 53.2393 43.3867 52.8618 43.3867C52.4842 43.3867 52.3898 43.7619 52.3898 44.0433ZM54.7025 43.1052H54.8913L52.8618 46.4823H52.6258L54.7025 43.1052ZM55.552 45.5443C55.552 46.0133 55.3632 46.3885 54.8441 46.3885C54.3249 46.3885 54.1361 46.0133 54.1361 45.5443C54.1361 45.0752 54.3249 44.7 54.8441 44.7C55.3161 44.7 55.552 45.0752 55.552 45.5443ZM54.3721 45.5443C54.3721 45.8256 54.4665 46.2009 54.8441 46.2009C55.2216 46.2009 55.3161 45.8256 55.3161 45.5443C55.3161 45.2628 55.2216 44.8876 54.8441 44.8876C54.4665 44.9345 54.3721 45.2628 54.3721 45.5443Z" fill="white"/>
<path d="M59.0442 45.3097C59.0442 45.9664 59.5162 46.154 60.0826 46.154C60.4129 46.154 60.9321 45.9664 60.9321 45.4973C60.9321 45.1221 60.5546 44.9814 60.2713 44.9345L59.5634 44.7469C59.1858 44.653 58.8554 44.4654 58.8554 43.9964C58.8554 43.6681 59.0442 43.1052 59.941 43.1052C60.5546 43.1052 61.1209 43.4336 61.1209 44.0902H60.8378C60.8378 43.6212 60.4129 43.3397 59.9882 43.3397C59.5634 43.3397 59.1858 43.4804 59.1858 43.9495C59.1858 44.2309 59.4218 44.3717 59.6578 44.4185L60.4129 44.6062C60.8849 44.7469 61.2625 44.9345 61.2625 45.4504C61.2625 45.6849 61.1681 46.3416 60.0354 46.3416C59.2802 46.3416 58.7139 46.0133 58.761 45.2159H59.0442V45.3097Z" fill="white"/>
<path d="M62.1592 43.1521H64.7078V43.3866H63.5751V46.2946H63.2919V43.3866H62.1592V43.1521Z" fill="white"/>
<path d="M65.7466 43.1521H67.2097C67.7289 43.1521 68.2009 43.3866 68.2009 43.9963C68.2009 44.4185 68.0121 44.6999 67.5873 44.7937C68.0121 44.8406 68.1064 45.122 68.1536 45.4973C68.1536 45.7318 68.1536 46.154 68.2952 46.2946H67.9648C67.8705 46.154 67.8705 45.9194 67.8705 45.7787C67.8705 45.3566 67.8233 44.8406 67.2097 44.8406H66.077V46.2478H65.7938V43.1521H65.7466ZM66.077 44.653H67.2097C67.5873 44.653 67.9177 44.4185 67.9177 44.0433C67.9177 43.668 67.6817 43.4335 67.2097 43.4335H66.077V44.653Z" fill="white"/>
<path d="M70.8439 43.1052C71.8354 43.1052 72.3544 43.9026 72.3544 44.7469C72.3544 45.5911 71.8354 46.3885 70.8439 46.3885C69.8532 46.3885 69.3335 45.5911 69.3335 44.7469C69.3335 43.9026 69.8532 43.1052 70.8439 43.1052ZM70.8439 46.154C71.6938 46.154 72.0241 45.4504 72.0241 44.7469C72.0241 44.0433 71.6467 43.3397 70.8439 43.3397C69.9947 43.3397 69.6644 44.0433 69.6644 44.7469C69.6644 45.4504 69.9947 46.154 70.8439 46.154Z" fill="white"/>
<path d="M73.5806 43.1521H73.9108L75.7522 45.8256V43.1521H76.0353V46.3416H75.7043L73.8636 43.668V46.3416H73.5806V43.1521Z" fill="white"/>
<path d="M80.2351 46.3416H79.9992L79.952 45.7787C79.7161 46.2478 79.2915 46.4354 78.8669 46.4354C77.8754 46.4354 77.3564 45.638 77.3564 44.7937C77.3564 43.9494 77.8754 43.1521 78.8669 43.1521C79.5274 43.1521 80.0935 43.5273 80.1879 44.1839H79.9048C79.8576 43.8087 79.4802 43.3866 78.8669 43.3866C78.017 43.3866 77.6867 44.0902 77.6867 44.7937C77.6867 45.4973 78.0641 46.2009 78.8669 46.2009C79.5746 46.2009 79.9992 45.7318 79.952 45.0283H78.8669V44.7937H80.2351V46.3416Z" fill="white"/>
<path d="M81.605 43.1521H83.8231V43.3866H81.9352V44.5592H83.7287V44.7937H81.9352V46.0601H83.8703V46.2946H81.6522V43.1521H81.605Z" fill="white"/>
<path d="M85.0029 43.1521H86.4662C86.9852 43.1521 87.4576 43.3866 87.4576 43.9963C87.4576 44.4185 87.2689 44.6999 86.8436 44.7937C87.2689 44.8406 87.3633 45.122 87.4104 45.4973C87.4104 45.7318 87.4104 46.154 87.552 46.2946H87.2217C87.1274 46.154 87.1274 45.9194 87.1274 45.7787C87.1274 45.3566 87.0802 44.8406 86.4662 44.8406H85.3339V46.2478H85.0501V43.1521H85.0029ZM85.3339 44.653H86.4662C86.8436 44.653 87.1746 44.4185 87.1746 44.0433C87.1746 43.668 86.938 43.4335 86.4662 43.4335H85.3339V44.653Z" fill="white"/>
<path d="M91.7057 43.1521H92.0359L93.3098 46.3416H92.9795L92.6021 45.3566H91.1388L90.7614 46.3416H90.4312L91.7057 43.1521ZM91.2332 45.0751H92.5077L91.8944 43.4335L91.2332 45.0751Z" fill="white"/>
<path d="M94.3477 43.1521H94.6314V46.0601H96.4249V46.2946H94.3477V43.1521Z" fill="white"/>
<path d="M97.5107 43.1521H97.7945V45.122C97.7945 45.8725 98.1248 46.1539 98.7381 46.1539C99.3514 46.1539 99.6824 45.8725 99.6824 45.122V43.1521H99.9655V45.169C99.9655 45.8256 99.6352 46.3885 98.7381 46.3885C97.8417 46.3885 97.5107 45.8256 97.5107 45.169V43.1521Z" fill="white"/>
<path d="M101.333 43.1521H101.758L102.844 45.9194L103.93 43.1521H104.354V46.3416H104.071V43.6211L102.985 46.3416H102.702L101.617 43.6211V46.3416H101.333V43.1521Z" fill="white"/>
<path d="M105.864 43.1521H106.147V46.3416H105.864V43.1521Z" fill="white"/>
<path d="M107.611 43.1521H107.941L109.782 45.8256V43.1521H110.065V46.3416H109.735L107.894 43.668V46.3416H107.611V43.1521Z" fill="white"/>
<path d="M111.575 43.1521H111.858V46.3416H111.575V43.1521Z" fill="white"/>
<path d="M113.275 43.1521H113.558V45.122C113.558 45.8725 113.888 46.1539 114.502 46.1539C115.116 46.1539 115.446 45.8725 115.446 45.122V43.1521H115.729V45.169C115.729 45.8256 115.399 46.3885 114.502 46.3885C113.605 46.3885 113.275 45.8256 113.275 45.169V43.1521Z" fill="white"/>
<path d="M117.097 43.1521H117.522L118.608 45.9194L119.693 43.1521H120.118V46.3416H119.834V43.6211L118.749 46.3416H118.466L117.38 43.6211V46.3416H117.097V43.1521Z" fill="white"/>
<defs>
<linearGradient id="paint0_linear_2_13948" x1="6.00169" y1="29.1481" x2="60.2805" y2="29.1481" gradientUnits="userSpaceOnUse">
<stop stop-color="#6FB744"/>
<stop offset="1" stop-color="#00A2D6"/>
</linearGradient>
<linearGradient id="paint1_linear_2_13948" x1="0" y1="7.19575" x2="14.4819" y2="7.19575" gradientUnits="userSpaceOnUse">
<stop stop-color="#6FB744"/>
<stop offset="1" stop-color="#00A2D6"/>
</linearGradient>
</defs>
</svg>
