<svg width="85" height="80" viewBox="0 0 85 80" fill="none" xmlns="http://www.w3.org/2000/svg">
<mask id="path-1-inside-1_2_13791" fill="white">
<path fill-rule="evenodd" clip-rule="evenodd" d="M54.3587 23.2556C46.3377 29.283 39.0882 31.4227 32.603 29.6781C26.0912 27.9268 20.4802 22.2778 15.7633 12.7306C15.5672 12.3354 15.534 11.8968 15.6403 11.495C15.7467 11.0965 15.9927 10.7348 16.3617 10.487C19.945 8.09276 23.3389 6.33139 26.54 5.20293C26.5766 5.18618 26.6131 5.17279 26.653 5.16274C31.2868 3.5454 35.5218 3.25402 39.3545 4.29213C45.8863 6.06018 51.1386 11.6389 55.1007 21.028C55.114 21.0581 55.124 21.0882 55.1373 21.1184C55.7854 21.4331 56.4237 21.7747 57.0453 22.133C55.2004 17.9104 54.8746 14.1165 56.0714 10.748C56.2243 10.3228 56.4004 9.9042 56.5999 9.49236C56.6132 9.46557 56.6265 9.43544 56.6398 9.40865C58.5212 5.62138 62.4735 2.52058 68.4971 0.109346C68.8561 -0.0346436 69.2383 -0.0312918 69.5807 0.0892553C69.9264 0.213152 70.2256 0.457601 70.4084 0.79915C73.8853 7.17819 74.8393 12.569 73.2638 16.9692C71.8178 21.0143 68.2843 24.1252 62.6702 26.3019C64.5749 28.08 66.2535 30.0959 67.6596 32.3059C70.7311 37.1312 72.5161 42.8637 72.5161 49.0152C72.5161 57.5708 69.0723 65.3198 63.5078 70.9253C57.9432 76.5342 50.2515 80 41.758 80C33.265 80 25.5727 76.5308 20.0083 70.9253C14.4404 65.3197 11 57.5713 11 49.0152C11 47.7026 11.0831 46.41 11.2393 45.1376C11.3989 43.8417 11.6415 42.5692 11.954 41.3302C12.1069 40.7241 12.7185 40.3558 13.3202 40.5098C13.9219 40.6639 14.2875 41.28 14.1346 41.8861C13.8421 43.0347 13.6194 44.2134 13.4731 45.4122C13.3269 46.5909 13.2504 47.793 13.2504 49.0153C13.2504 56.9447 16.4415 64.124 21.6005 69.3215C26.7594 74.5189 33.8867 77.7331 41.7581 77.7331C49.6295 77.7331 56.7563 74.5185 61.9157 69.3215C67.0751 64.1245 70.2657 56.9447 70.2657 49.0153C70.2657 43.3093 68.617 37.9955 65.7716 33.5284C64.1428 30.9701 62.1218 28.6897 59.795 26.7743C59.6454 26.6906 59.5091 26.5801 59.3928 26.4495C57.8371 25.2206 56.1518 24.1457 54.3601 23.2549L54.3587 23.2556ZM34.9159 35.7026L34.0018 34.1087C33.6894 33.5696 33.0046 33.382 32.4661 33.6968C31.9309 34.0116 31.7448 34.7014 32.0572 35.2439L32.9713 36.8378C33.2838 37.3769 33.9686 37.5645 34.5071 37.2497C35.0422 36.9349 35.2251 36.2417 34.9159 35.7026ZM28.3576 41.479L26.7753 40.5581C26.2401 40.2467 25.5553 40.4342 25.2462 40.9733C24.937 41.5125 25.1232 42.2023 25.6584 42.5137L27.2407 43.4345C27.7758 43.746 28.4606 43.5584 28.7697 43.0193C29.0789 42.4802 28.8927 41.7904 28.3576 41.479ZM25.5487 49.7834H23.7238C23.1055 49.7834 22.6036 50.2891 22.6036 50.9119C22.6036 51.5347 23.1055 52.0404 23.7238 52.0404H25.5487C26.167 52.0404 26.6689 51.5347 26.6689 50.9119C26.6689 50.2891 26.167 49.7834 25.5487 49.7834ZM59.1251 52.0437H60.95C61.5683 52.0437 62.0702 51.5381 62.0702 50.9152C62.0702 50.2924 61.5683 49.7868 60.95 49.7868H59.1251C58.5068 49.7868 58.0049 50.2924 58.0049 50.9152C58.0049 51.5381 58.5068 52.0437 59.1251 52.0437ZM57.4365 43.4379L59.0187 42.5171C59.5539 42.2056 59.7401 41.5158 59.4309 40.9767C59.1218 40.4376 58.437 40.25 57.9018 40.5615L56.3196 41.4823C55.7844 41.7937 55.5982 42.4836 55.9074 43.0227C56.2132 43.5618 56.898 43.7493 57.4365 43.4379ZM51.7024 36.8312L52.6165 35.2372C52.9257 34.6981 52.7395 34.0083 52.2043 33.6969C51.6692 33.3854 50.9844 33.573 50.6752 34.1121L49.7611 35.706C49.452 36.2452 49.6381 36.935 50.1733 37.2464C50.7085 37.5578 51.3966 37.3703 51.7024 36.8312ZM43.4621 34.0016V32.1599C43.4621 31.5337 42.9601 31.0248 42.3352 31.0248C41.7136 31.0248 41.2084 31.5338 41.2084 32.1599V34.0016C41.2084 34.6278 41.7136 35.1368 42.3352 35.1368C42.9601 35.1368 43.4621 34.6278 43.4621 34.0016ZM46.4005 72.2892C46.9124 72.1519 47.3744 71.9309 47.7634 71.6463C48.5346 71.0804 49.0133 70.2667 49.0133 69.3492V69.0846C49.5019 68.9607 49.9241 68.6594 50.2465 68.2341C50.6088 67.7552 50.8315 67.1156 50.8315 66.4258V66.3555C50.8315 65.6657 50.6088 65.0228 50.2465 64.5473C49.934 64.1354 49.5219 63.8374 49.0465 63.7068C49.093 63.5326 49.1562 63.3686 49.2393 63.2179C49.4221 62.8763 49.698 62.5783 50.0603 62.3406C52.0083 61.0581 53.6204 59.2934 54.734 57.2139C55.8076 55.2115 56.4193 52.9177 56.4193 50.4865C56.4193 46.5687 54.8437 43.0226 52.2941 40.4577C49.7445 37.8894 46.2244 36.3021 42.3387 36.3021C38.4495 36.3021 34.9294 37.8894 32.3833 40.4577C29.8337 43.0228 28.2581 46.5689 28.2581 50.4865C28.2581 52.9176 28.8664 55.208 29.9434 57.2139C31.057 59.29 32.6691 61.0547 34.6171 62.3406C34.9761 62.5783 35.2553 62.8763 35.4381 63.2179C35.5212 63.3719 35.5844 63.536 35.6309 63.7068C35.1556 63.8374 34.7433 64.1354 34.4309 64.5473C34.0686 65.0261 33.8458 65.6657 33.8458 66.3555V66.4258C33.8458 67.1156 34.0686 67.7586 34.4309 68.2341C34.7633 68.6728 35.2087 68.9808 35.7173 69.098V69.3492C35.7173 70.27 36.1959 71.0803 36.9672 71.6463C37.3528 71.9309 37.8181 72.1519 38.3301 72.2892C38.483 73.0293 38.8519 73.6923 39.3638 74.2113C40.0519 74.9045 40.9993 75.3331 42.0463 75.3331H42.6845C43.7316 75.3331 44.679 74.9045 45.367 74.2113C45.8822 73.6923 46.2477 73.0293 46.4005 72.2892ZM40.8127 72.4433C40.856 72.5002 40.9025 72.5571 40.9557 72.6073C41.2349 72.8886 41.6238 73.0661 42.0459 73.0661H42.6842C43.1096 73.0661 43.4952 72.892 43.7744 72.6073C43.8243 72.5571 43.8741 72.5002 43.9173 72.4433H40.8127ZM37.9673 69.1482V69.3491C37.9673 69.5099 38.0903 69.6773 38.2831 69.8246C38.5822 70.0423 39.0144 70.1796 39.5097 70.1796H45.2137C45.7124 70.1796 46.1445 70.0423 46.4403 69.8246C46.6364 69.6806 46.7594 69.5099 46.7594 69.3491V69.1482H37.9673ZM37.9108 63.6331H46.7625C46.8456 63.104 47.0118 62.6051 47.2578 62.143C47.6201 61.4666 48.152 60.8873 48.8234 60.4419C50.4622 59.3603 51.8183 57.8802 52.7491 56.139C53.65 54.4614 54.1619 52.5326 54.1619 50.4832C54.1619 47.1916 52.8389 44.2113 50.6982 42.0548C48.5575 39.8984 45.5991 38.5656 42.3349 38.5656C39.0674 38.5656 36.1122 39.8984 33.9715 42.0548C31.8309 44.2113 30.5079 47.1916 30.5079 50.4832C30.5079 52.5325 31.0198 54.4579 31.9206 56.139C32.8547 57.8802 34.2076 59.3603 35.8464 60.4419C36.5212 60.8872 37.0497 61.4665 37.4154 62.143C37.6614 62.6051 37.8277 63.104 37.9108 63.6331ZM48.501 65.9001H48.4844L48.4711 65.9101C48.491 65.9034 48.5309 65.9001 48.501 65.9001ZM48.4844 65.9001H36.1888L36.2021 65.9101C36.2088 65.9135 36.2154 65.9168 36.2121 65.9202C36.139 66.0173 36.0924 66.1713 36.0924 66.3555V66.4258C36.0924 66.61 36.139 66.764 36.2121 66.8611C36.2154 66.8644 36.2088 66.8678 36.2021 66.8711L36.1888 66.8812H48.4844L48.4711 66.8711C48.4611 66.8678 48.4578 66.8644 48.4611 66.8611C48.5343 66.764 48.5808 66.61 48.5808 66.4258V66.3555C48.5808 66.1713 48.5343 66.0173 48.4611 65.9202C48.4578 65.9168 48.4645 65.9135 48.4711 65.9101L48.4844 65.9001ZM36.1888 65.9001H36.1722C36.1456 65.9001 36.1822 65.9034 36.2021 65.9101L36.1888 65.9001ZM48.5014 66.8812C48.528 66.8812 48.491 66.8778 48.4711 66.8711L48.4844 66.8812L48.5014 66.8812ZM36.1727 66.8812L36.1888 66.8812L36.2021 66.8711C36.1822 66.8778 36.1461 66.8812 36.1727 66.8812ZM46.517 43.5515C46.6034 43.3908 46.6533 43.2066 46.6533 43.0124C46.6533 42.3862 46.1513 41.8772 45.5264 41.8772H42.0262V41.8839C41.6306 41.8839 41.245 42.0982 41.0423 42.4732L36.1459 51.4742C36.0462 51.6484 35.993 51.8526 35.9963 52.0669C36.013 52.6898 36.5282 53.182 37.1465 53.1652L39.2573 53.1016L37.5986 58.4794H37.6019C37.4789 58.8846 37.5886 59.3433 37.921 59.6481C38.3798 60.0666 39.0878 60.0298 39.5033 59.5677L48.3618 49.7026C48.558 49.4984 48.6743 49.2204 48.6743 48.9157C48.671 48.2929 48.169 47.7872 47.5475 47.7906L44.4495 47.814L46.517 43.5515ZM41.6405 48.4639L43.7247 44.1475H42.6842L39.0377 50.8514L40.7131 50.8011C40.8494 50.7911 40.9856 50.8078 41.1219 50.848C41.7136 51.0322 42.046 51.6651 41.8632 52.2611L41.2482 54.2602L45.0111 50.0711L42.7474 50.0878C42.5513 50.1046 42.3452 50.0711 42.1557 49.9773C41.6006 49.7028 41.368 49.0264 41.6405 48.4639ZM63.7758 19.7027C63.7691 19.7228 63.7625 19.7429 63.7558 19.763L62.2234 24.0525C66.9935 22.1371 69.9718 19.5253 71.1551 16.2169C71.6537 14.8272 71.8399 13.3003 71.7235 11.6326L65.8034 14.0202L63.7758 19.7027ZM61.4855 19.4449L57.8389 12.7176C57.1808 15.7681 57.9387 19.2908 60.1126 23.2924L61.4855 19.4449ZM58.896 9.95528L62.4993 16.6056L63.8455 12.8351C63.8555 12.7949 63.8721 12.7581 63.8888 12.7179L67.3292 3.08083C63.204 5.00627 60.3919 7.29657 58.896 9.95528ZM66.8206 11.1742L71.3845 9.3325C71.0123 7.62806 70.3641 5.79974 69.4333 3.84756L66.8206 11.1742ZM44.4828 20.4529L33.6994 27.6156C39.0146 28.8411 45.0181 27.1032 51.699 22.3985L44.4828 20.4529ZM30.9908 26.7114L41.5844 19.6727L32.8791 17.322L24.6122 22.0235C26.6299 24.1599 28.7537 25.7235 30.9908 26.7114ZM42.1699 17.4858L36.4891 6.05374C34.0591 5.78251 31.4464 6.06714 28.6409 6.90093L33.4675 15.1418L42.1699 17.4858ZM39.2813 6.62981L45.0619 18.2659L52.2785 20.2148C48.8248 12.7742 44.4931 8.24398 39.2813 6.62981ZM23.1062 20.2924L29.791 16.4885L18.6885 13.4915C20.0912 16.1134 21.5639 18.3804 23.1062 20.2924ZM30.3694 14.3018L26.4669 7.64152C24.1833 8.51881 21.7833 9.74106 19.267 11.3048L30.3694 14.3018Z"/>
</mask>
<path fill-rule="evenodd" clip-rule="evenodd" d="M54.3587 23.2556C46.3377 29.283 39.0882 31.4227 32.603 29.6781C26.0912 27.9268 20.4802 22.2778 15.7633 12.7306C15.5672 12.3354 15.534 11.8968 15.6403 11.495C15.7467 11.0965 15.9927 10.7348 16.3617 10.487C19.945 8.09276 23.3389 6.33139 26.54 5.20293C26.5766 5.18618 26.6131 5.17279 26.653 5.16274C31.2868 3.5454 35.5218 3.25402 39.3545 4.29213C45.8863 6.06018 51.1386 11.6389 55.1007 21.028C55.114 21.0581 55.124 21.0882 55.1373 21.1184C55.7854 21.4331 56.4237 21.7747 57.0453 22.133C55.2004 17.9104 54.8746 14.1165 56.0714 10.748C56.2243 10.3228 56.4004 9.9042 56.5999 9.49236C56.6132 9.46557 56.6265 9.43544 56.6398 9.40865C58.5212 5.62138 62.4735 2.52058 68.4971 0.109346C68.8561 -0.0346436 69.2383 -0.0312918 69.5807 0.0892553C69.9264 0.213152 70.2256 0.457601 70.4084 0.79915C73.8853 7.17819 74.8393 12.569 73.2638 16.9692C71.8178 21.0143 68.2843 24.1252 62.6702 26.3019C64.5749 28.08 66.2535 30.0959 67.6596 32.3059C70.7311 37.1312 72.5161 42.8637 72.5161 49.0152C72.5161 57.5708 69.0723 65.3198 63.5078 70.9253C57.9432 76.5342 50.2515 80 41.758 80C33.265 80 25.5727 76.5308 20.0083 70.9253C14.4404 65.3197 11 57.5713 11 49.0152C11 47.7026 11.0831 46.41 11.2393 45.1376C11.3989 43.8417 11.6415 42.5692 11.954 41.3302C12.1069 40.7241 12.7185 40.3558 13.3202 40.5098C13.9219 40.6639 14.2875 41.28 14.1346 41.8861C13.8421 43.0347 13.6194 44.2134 13.4731 45.4122C13.3269 46.5909 13.2504 47.793 13.2504 49.0153C13.2504 56.9447 16.4415 64.124 21.6005 69.3215C26.7594 74.5189 33.8867 77.7331 41.7581 77.7331C49.6295 77.7331 56.7563 74.5185 61.9157 69.3215C67.0751 64.1245 70.2657 56.9447 70.2657 49.0153C70.2657 43.3093 68.617 37.9955 65.7716 33.5284C64.1428 30.9701 62.1218 28.6897 59.795 26.7743C59.6454 26.6906 59.5091 26.5801 59.3928 26.4495C57.8371 25.2206 56.1518 24.1457 54.3601 23.2549L54.3587 23.2556ZM34.9159 35.7026L34.0018 34.1087C33.6894 33.5696 33.0046 33.382 32.4661 33.6968C31.9309 34.0116 31.7448 34.7014 32.0572 35.2439L32.9713 36.8378C33.2838 37.3769 33.9686 37.5645 34.5071 37.2497C35.0422 36.9349 35.2251 36.2417 34.9159 35.7026ZM28.3576 41.479L26.7753 40.5581C26.2401 40.2467 25.5553 40.4342 25.2462 40.9733C24.937 41.5125 25.1232 42.2023 25.6584 42.5137L27.2407 43.4345C27.7758 43.746 28.4606 43.5584 28.7697 43.0193C29.0789 42.4802 28.8927 41.7904 28.3576 41.479ZM25.5487 49.7834H23.7238C23.1055 49.7834 22.6036 50.2891 22.6036 50.9119C22.6036 51.5347 23.1055 52.0404 23.7238 52.0404H25.5487C26.167 52.0404 26.6689 51.5347 26.6689 50.9119C26.6689 50.2891 26.167 49.7834 25.5487 49.7834ZM59.1251 52.0437H60.95C61.5683 52.0437 62.0702 51.5381 62.0702 50.9152C62.0702 50.2924 61.5683 49.7868 60.95 49.7868H59.1251C58.5068 49.7868 58.0049 50.2924 58.0049 50.9152C58.0049 51.5381 58.5068 52.0437 59.1251 52.0437ZM57.4365 43.4379L59.0187 42.5171C59.5539 42.2056 59.7401 41.5158 59.4309 40.9767C59.1218 40.4376 58.437 40.25 57.9018 40.5615L56.3196 41.4823C55.7844 41.7937 55.5982 42.4836 55.9074 43.0227C56.2132 43.5618 56.898 43.7493 57.4365 43.4379ZM51.7024 36.8312L52.6165 35.2372C52.9257 34.6981 52.7395 34.0083 52.2043 33.6969C51.6692 33.3854 50.9844 33.573 50.6752 34.1121L49.7611 35.706C49.452 36.2452 49.6381 36.935 50.1733 37.2464C50.7085 37.5578 51.3966 37.3703 51.7024 36.8312ZM43.4621 34.0016V32.1599C43.4621 31.5337 42.9601 31.0248 42.3352 31.0248C41.7136 31.0248 41.2084 31.5338 41.2084 32.1599V34.0016C41.2084 34.6278 41.7136 35.1368 42.3352 35.1368C42.9601 35.1368 43.4621 34.6278 43.4621 34.0016ZM46.4005 72.2892C46.9124 72.1519 47.3744 71.9309 47.7634 71.6463C48.5346 71.0804 49.0133 70.2667 49.0133 69.3492V69.0846C49.5019 68.9607 49.9241 68.6594 50.2465 68.2341C50.6088 67.7552 50.8315 67.1156 50.8315 66.4258V66.3555C50.8315 65.6657 50.6088 65.0228 50.2465 64.5473C49.934 64.1354 49.5219 63.8374 49.0465 63.7068C49.093 63.5326 49.1562 63.3686 49.2393 63.2179C49.4221 62.8763 49.698 62.5783 50.0603 62.3406C52.0083 61.0581 53.6204 59.2934 54.734 57.2139C55.8076 55.2115 56.4193 52.9177 56.4193 50.4865C56.4193 46.5687 54.8437 43.0226 52.2941 40.4577C49.7445 37.8894 46.2244 36.3021 42.3387 36.3021C38.4495 36.3021 34.9294 37.8894 32.3833 40.4577C29.8337 43.0228 28.2581 46.5689 28.2581 50.4865C28.2581 52.9176 28.8664 55.208 29.9434 57.2139C31.057 59.29 32.6691 61.0547 34.6171 62.3406C34.9761 62.5783 35.2553 62.8763 35.4381 63.2179C35.5212 63.3719 35.5844 63.536 35.6309 63.7068C35.1556 63.8374 34.7433 64.1354 34.4309 64.5473C34.0686 65.0261 33.8458 65.6657 33.8458 66.3555V66.4258C33.8458 67.1156 34.0686 67.7586 34.4309 68.2341C34.7633 68.6728 35.2087 68.9808 35.7173 69.098V69.3492C35.7173 70.27 36.1959 71.0803 36.9672 71.6463C37.3528 71.9309 37.8181 72.1519 38.3301 72.2892C38.483 73.0293 38.8519 73.6923 39.3638 74.2113C40.0519 74.9045 40.9993 75.3331 42.0463 75.3331H42.6845C43.7316 75.3331 44.679 74.9045 45.367 74.2113C45.8822 73.6923 46.2477 73.0293 46.4005 72.2892ZM40.8127 72.4433C40.856 72.5002 40.9025 72.5571 40.9557 72.6073C41.2349 72.8886 41.6238 73.0661 42.0459 73.0661H42.6842C43.1096 73.0661 43.4952 72.892 43.7744 72.6073C43.8243 72.5571 43.8741 72.5002 43.9173 72.4433H40.8127ZM37.9673 69.1482V69.3491C37.9673 69.5099 38.0903 69.6773 38.2831 69.8246C38.5822 70.0423 39.0144 70.1796 39.5097 70.1796H45.2137C45.7124 70.1796 46.1445 70.0423 46.4403 69.8246C46.6364 69.6806 46.7594 69.5099 46.7594 69.3491V69.1482H37.9673ZM37.9108 63.6331H46.7625C46.8456 63.104 47.0118 62.6051 47.2578 62.143C47.6201 61.4666 48.152 60.8873 48.8234 60.4419C50.4622 59.3603 51.8183 57.8802 52.7491 56.139C53.65 54.4614 54.1619 52.5326 54.1619 50.4832C54.1619 47.1916 52.8389 44.2113 50.6982 42.0548C48.5575 39.8984 45.5991 38.5656 42.3349 38.5656C39.0674 38.5656 36.1122 39.8984 33.9715 42.0548C31.8309 44.2113 30.5079 47.1916 30.5079 50.4832C30.5079 52.5325 31.0198 54.4579 31.9206 56.139C32.8547 57.8802 34.2076 59.3603 35.8464 60.4419C36.5212 60.8872 37.0497 61.4665 37.4154 62.143C37.6614 62.6051 37.8277 63.104 37.9108 63.6331ZM48.501 65.9001H48.4844L48.4711 65.9101C48.491 65.9034 48.5309 65.9001 48.501 65.9001ZM48.4844 65.9001H36.1888L36.2021 65.9101C36.2088 65.9135 36.2154 65.9168 36.2121 65.9202C36.139 66.0173 36.0924 66.1713 36.0924 66.3555V66.4258C36.0924 66.61 36.139 66.764 36.2121 66.8611C36.2154 66.8644 36.2088 66.8678 36.2021 66.8711L36.1888 66.8812H48.4844L48.4711 66.8711C48.4611 66.8678 48.4578 66.8644 48.4611 66.8611C48.5343 66.764 48.5808 66.61 48.5808 66.4258V66.3555C48.5808 66.1713 48.5343 66.0173 48.4611 65.9202C48.4578 65.9168 48.4645 65.9135 48.4711 65.9101L48.4844 65.9001ZM36.1888 65.9001H36.1722C36.1456 65.9001 36.1822 65.9034 36.2021 65.9101L36.1888 65.9001ZM48.5014 66.8812C48.528 66.8812 48.491 66.8778 48.4711 66.8711L48.4844 66.8812L48.5014 66.8812ZM36.1727 66.8812L36.1888 66.8812L36.2021 66.8711C36.1822 66.8778 36.1461 66.8812 36.1727 66.8812ZM46.517 43.5515C46.6034 43.3908 46.6533 43.2066 46.6533 43.0124C46.6533 42.3862 46.1513 41.8772 45.5264 41.8772H42.0262V41.8839C41.6306 41.8839 41.245 42.0982 41.0423 42.4732L36.1459 51.4742C36.0462 51.6484 35.993 51.8526 35.9963 52.0669C36.013 52.6898 36.5282 53.182 37.1465 53.1652L39.2573 53.1016L37.5986 58.4794H37.6019C37.4789 58.8846 37.5886 59.3433 37.921 59.6481C38.3798 60.0666 39.0878 60.0298 39.5033 59.5677L48.3618 49.7026C48.558 49.4984 48.6743 49.2204 48.6743 48.9157C48.671 48.2929 48.169 47.7872 47.5475 47.7906L44.4495 47.814L46.517 43.5515ZM41.6405 48.4639L43.7247 44.1475H42.6842L39.0377 50.8514L40.7131 50.8011C40.8494 50.7911 40.9856 50.8078 41.1219 50.848C41.7136 51.0322 42.046 51.6651 41.8632 52.2611L41.2482 54.2602L45.0111 50.0711L42.7474 50.0878C42.5513 50.1046 42.3452 50.0711 42.1557 49.9773C41.6006 49.7028 41.368 49.0264 41.6405 48.4639ZM63.7758 19.7027C63.7691 19.7228 63.7625 19.7429 63.7558 19.763L62.2234 24.0525C66.9935 22.1371 69.9718 19.5253 71.1551 16.2169C71.6537 14.8272 71.8399 13.3003 71.7235 11.6326L65.8034 14.0202L63.7758 19.7027ZM61.4855 19.4449L57.8389 12.7176C57.1808 15.7681 57.9387 19.2908 60.1126 23.2924L61.4855 19.4449ZM58.896 9.95528L62.4993 16.6056L63.8455 12.8351C63.8555 12.7949 63.8721 12.7581 63.8888 12.7179L67.3292 3.08083C63.204 5.00627 60.3919 7.29657 58.896 9.95528ZM66.8206 11.1742L71.3845 9.3325C71.0123 7.62806 70.3641 5.79974 69.4333 3.84756L66.8206 11.1742ZM44.4828 20.4529L33.6994 27.6156C39.0146 28.8411 45.0181 27.1032 51.699 22.3985L44.4828 20.4529ZM30.9908 26.7114L41.5844 19.6727L32.8791 17.322L24.6122 22.0235C26.6299 24.1599 28.7537 25.7235 30.9908 26.7114ZM42.1699 17.4858L36.4891 6.05374C34.0591 5.78251 31.4464 6.06714 28.6409 6.90093L33.4675 15.1418L42.1699 17.4858ZM39.2813 6.62981L45.0619 18.2659L52.2785 20.2148C48.8248 12.7742 44.4931 8.24398 39.2813 6.62981ZM23.1062 20.2924L29.791 16.4885L18.6885 13.4915C20.0912 16.1134 21.5639 18.3804 23.1062 20.2924ZM30.3694 14.3018L26.4669 7.64152C24.1833 8.51881 21.7833 9.74106 19.267 11.3048L30.3694 14.3018Z" fill="white"/>
<path d="M48.4844 65.9001L48.4543 65.8602L48.441 65.8702L48.4711 65.9101L48.5012 65.95L48.5145 65.94L48.4844 65.9001ZM36.1888 65.9001L36.1587 65.94L36.172 65.95L36.2021 65.9101L36.2323 65.8702L36.219 65.8602L36.1888 65.9001ZM36.2021 66.8711L36.172 66.8313L36.1587 66.8413L36.1888 66.8812L36.219 66.9211L36.2323 66.911L36.2021 66.8711ZM48.4844 66.8812L48.5145 66.8413L48.5012 66.8313L48.4711 66.8711L48.441 66.911L48.4543 66.9211L48.4844 66.8812ZM54.3587 23.2556L54.3181 23.1642L54.3077 23.1688L54.2986 23.1756L54.3587 23.2556ZM32.603 29.6781L32.629 29.5816H32.629L32.603 29.6781ZM15.7633 12.7306L15.853 12.6863L15.8529 12.6861L15.7633 12.7306ZM15.6403 11.495L15.5437 11.4692L15.5437 11.4694L15.6403 11.495ZM16.3617 10.487L16.3061 10.4039L16.3059 10.404L16.3617 10.487ZM26.54 5.20293L26.5734 5.29763L26.5816 5.29385L26.54 5.20293ZM26.653 5.16274L26.6775 5.2601L26.686 5.25716L26.653 5.16274ZM39.3545 4.29213L39.3283 4.38866L39.3284 4.38866L39.3545 4.29213ZM55.1007 21.028L55.0085 21.0668L55.0092 21.0683L55.1007 21.028ZM55.1373 21.1184L55.0458 21.1587L55.0606 21.1923L55.0936 21.2083L55.1373 21.1184ZM57.0453 22.133L56.9953 22.2196L57.2585 22.3713L57.1369 22.093L57.0453 22.133ZM56.0714 10.748L55.9773 10.7142L55.9771 10.7146L56.0714 10.748ZM56.5999 9.49236L56.5103 9.4479L56.5099 9.44878L56.5999 9.49236ZM56.6398 9.40865L56.5502 9.36416L56.5502 9.36419L56.6398 9.40865ZM68.4971 0.109346L68.5342 0.202184L68.5343 0.202159L68.4971 0.109346ZM69.5807 0.0892553L69.6144 -0.0048831L69.6139 -0.0050681L69.5807 0.0892553ZM70.4084 0.79915L70.3202 0.846345L70.3206 0.847009L70.4084 0.79915ZM73.2638 16.9692L73.1696 16.9355L73.1696 16.9355L73.2638 16.9692ZM62.6702 26.3019L62.634 26.2087L62.4854 26.2663L62.6019 26.375L62.6702 26.3019ZM67.6596 32.3059L67.5752 32.3596L67.5752 32.3596L67.6596 32.3059ZM63.5078 70.9253L63.4368 70.8548L63.4368 70.8549L63.5078 70.9253ZM20.0083 70.9253L20.0793 70.8548L20.0792 70.8548L20.0083 70.9253ZM11.2393 45.1376L11.1401 45.1253L11.1401 45.1254L11.2393 45.1376ZM11.954 41.3302L11.857 41.3058L11.857 41.3058L11.954 41.3302ZM13.3202 40.5098L13.345 40.413H13.345L13.3202 40.5098ZM14.1346 41.8861L14.2315 41.9108L14.2316 41.9106L14.1346 41.8861ZM13.4731 45.4122L13.5724 45.4245L13.5724 45.4243L13.4731 45.4122ZM65.7716 33.5284L65.6873 33.5821L65.6873 33.5821L65.7716 33.5284ZM59.795 26.7743L59.8585 26.6971L59.8516 26.6914L59.8438 26.6871L59.795 26.7743ZM59.3928 26.4495L59.4674 26.383L59.4616 26.3765L59.4548 26.371L59.3928 26.4495ZM54.3601 23.2549L54.4046 23.1654L54.3625 23.1445L54.3195 23.1635L54.3601 23.2549ZM34.9159 35.7026L35.0027 35.6529L35.0027 35.6529L34.9159 35.7026ZM34.0018 34.1087L34.0886 34.0589L34.0883 34.0585L34.0018 34.1087ZM32.4661 33.6968L32.4156 33.6105L32.4154 33.6106L32.4661 33.6968ZM32.0572 35.2439L32.144 35.1941L32.1439 35.194L32.0572 35.2439ZM32.9713 36.8378L32.8846 36.8876L32.8848 36.888L32.9713 36.8378ZM34.5071 37.2497L34.5575 37.336L34.5578 37.3359L34.5071 37.2497ZM28.3576 41.479L28.3073 41.5654H28.3073L28.3576 41.479ZM26.7753 40.5581L26.8256 40.4717H26.8256L26.7753 40.5581ZM25.2462 40.9733L25.1594 40.9236L25.1594 40.9236L25.2462 40.9733ZM25.6584 42.5137L25.7087 42.4273L25.7087 42.4273L25.6584 42.5137ZM27.2407 43.4345L27.1904 43.521L27.1904 43.521L27.2407 43.4345ZM28.7697 43.0193L28.8565 43.0691V43.0691L28.7697 43.0193ZM57.4365 43.4379L57.4865 43.5245L57.4868 43.5243L57.4365 43.4379ZM59.0187 42.5171L58.9684 42.4306L58.9684 42.4306L59.0187 42.5171ZM59.4309 40.9767L59.3442 41.0264V41.0264L59.4309 40.9767ZM57.9018 40.5615L57.8515 40.475L57.8515 40.475L57.9018 40.5615ZM56.3196 41.4823L56.3699 41.5687L56.3699 41.5687L56.3196 41.4823ZM55.9074 43.0227L55.9943 42.9733L55.9941 42.9729L55.9074 43.0227ZM51.7024 36.8312L51.6157 36.7814L51.6154 36.7818L51.7024 36.8312ZM52.6165 35.2372L52.7033 35.287L52.7033 35.287L52.6165 35.2372ZM50.6752 34.1121L50.762 34.1618V34.1618L50.6752 34.1121ZM49.7611 35.706L49.6744 35.6563L49.6744 35.6563L49.7611 35.706ZM50.1733 37.2464L50.123 37.3328H50.123L50.1733 37.2464ZM46.4005 72.2892L46.3746 72.1926L46.315 72.2086L46.3026 72.269L46.4005 72.2892ZM47.7634 71.6463L47.8225 71.727L47.8226 71.7269L47.7634 71.6463ZM49.0133 69.0846L48.9887 68.9877L48.9133 69.0068V69.0846H49.0133ZM50.2465 68.2341L50.3262 68.2945L50.3263 68.2944L50.2465 68.2341ZM50.2465 64.5473L50.1668 64.6077L50.167 64.6079L50.2465 64.5473ZM49.0465 63.7068L48.9499 63.6809L48.9242 63.7769L49.02 63.8032L49.0465 63.7068ZM49.2393 63.2179L49.3269 63.2662L49.3274 63.2651L49.2393 63.2179ZM50.0603 62.3406L50.1152 62.4242L50.1153 62.4241L50.0603 62.3406ZM54.734 57.2139L54.6458 57.1666L54.6458 57.1667L54.734 57.2139ZM52.2941 40.4577L52.2231 40.5282L52.2232 40.5282L52.2941 40.4577ZM32.3833 40.4577L32.4542 40.5282L32.4543 40.5281L32.3833 40.4577ZM29.9434 57.2139L30.0315 57.1666L30.0315 57.1666L29.9434 57.2139ZM34.6171 62.3406L34.6723 62.2572L34.6722 62.2571L34.6171 62.3406ZM35.4381 63.2179L35.3499 63.2651L35.3501 63.2654L35.4381 63.2179ZM35.6309 63.7068L35.6574 63.8032L35.7536 63.7768L35.7274 63.6805L35.6309 63.7068ZM34.4309 64.5473L34.3512 64.4868L34.3511 64.4869L34.4309 64.5473ZM34.4309 68.2341L34.5106 68.1737L34.5104 68.1735L34.4309 68.2341ZM35.7173 69.098H35.8173V69.0184L35.7397 69.0006L35.7173 69.098ZM36.9672 71.6463L37.0266 71.5658L37.0263 71.5657L36.9672 71.6463ZM38.3301 72.2892L38.428 72.269L38.4155 72.2086L38.356 72.1926L38.3301 72.2892ZM39.3638 74.2113L39.2926 74.2815L39.2928 74.2818L39.3638 74.2113ZM45.367 74.2113L45.296 74.1409H45.296L45.367 74.2113ZM40.8127 72.4433V72.3433H40.6113L40.7331 72.5037L40.8127 72.4433ZM40.9557 72.6073L41.0267 72.5369L41.0243 72.5346L40.9557 72.6073ZM43.7744 72.6073L43.7034 72.5369L43.703 72.5373L43.7744 72.6073ZM43.9173 72.4433L43.997 72.5037L44.1188 72.3433H43.9173V72.4433ZM37.9673 69.1482V69.0482H37.8673V69.1482H37.9673ZM38.2831 69.8246L38.2223 69.9041L38.2243 69.9055L38.2831 69.8246ZM46.4403 69.8246L46.3811 69.744L46.3811 69.7441L46.4403 69.8246ZM46.7594 69.1482H46.8594V69.0482H46.7594V69.1482ZM37.9108 63.6331L37.812 63.6486L37.8253 63.7331H37.9108V63.6331ZM46.7625 63.6331V63.7331H46.848L46.8613 63.6486L46.7625 63.6331ZM47.2578 62.143L47.1696 62.0957L47.1695 62.096L47.2578 62.143ZM48.8234 60.4419L48.7683 60.3584L48.7681 60.3585L48.8234 60.4419ZM52.7491 56.139L52.661 56.0917L52.6609 56.0918L52.7491 56.139ZM31.9206 56.139L31.8325 56.1862L31.8325 56.1862L31.9206 56.139ZM35.8464 60.4419L35.9015 60.3584V60.3584L35.8464 60.4419ZM37.4154 62.143L37.5037 62.096L37.5034 62.0954L37.4154 62.143ZM48.4711 65.9101L48.4393 65.8153L48.4325 65.8176L48.4261 65.8208L48.4711 65.9101ZM36.2021 65.9101L36.2471 65.8208L36.2407 65.8176L36.234 65.8153L36.2021 65.9101ZM36.2121 65.9202L36.1405 65.849L36.1322 65.86L36.2121 65.9202ZM36.2121 66.8611L36.1315 66.9218L36.1411 66.9316L36.2121 66.8611ZM36.2021 66.8711L36.234 66.9659L36.2407 66.9637L36.2471 66.9604L36.2021 66.8711ZM36.1888 66.8812L36.1887 66.9812H36.1888V66.8812ZM48.4844 66.8812V66.9812H48.4845L48.4844 66.8812ZM48.4711 66.8711L48.4393 66.9659H48.4393L48.4711 66.8711ZM48.4611 66.8611L48.5328 66.9322L48.541 66.9213L48.4611 66.8611ZM48.4611 65.9202L48.5418 65.8594L48.5321 65.8497L48.4611 65.9202ZM48.5014 66.8812V66.7812H48.5013L48.5014 66.8812ZM36.1727 66.8812L36.1728 66.7812H36.1727V66.8812ZM46.517 43.5515L46.4288 43.5041L46.427 43.5078L46.517 43.5515ZM42.0262 41.8772V41.7772H41.9262V41.8772H42.0262ZM42.0262 41.8839V41.9839H42.1262V41.8839H42.0262ZM41.0423 42.4732L41.1301 42.521L41.1302 42.5208L41.0423 42.4732ZM36.1459 51.4742L36.2327 51.5239L36.2338 51.522L36.1459 51.4742ZM35.9963 52.0669L35.8963 52.0685L35.8964 52.0696L35.9963 52.0669ZM37.1465 53.1652L37.1492 53.2652L37.1495 53.2652L37.1465 53.1652ZM39.2573 53.1016L39.3529 53.1311L39.3941 52.9974L39.2543 53.0016L39.2573 53.1016ZM37.5986 58.4794L37.5031 58.4499L37.4631 58.5794H37.5986V58.4794ZM37.6019 58.4794L37.6976 58.5084L37.7368 58.3794H37.6019V58.4794ZM37.921 59.6481L37.8535 59.7218L37.8536 59.7219L37.921 59.6481ZM39.5033 59.5677L39.5777 59.6346L39.5777 59.6345L39.5033 59.5677ZM48.3618 49.7026L48.2897 49.6333L48.2874 49.6358L48.3618 49.7026ZM48.6743 48.9157H48.7743L48.7743 48.9152L48.6743 48.9157ZM47.5475 47.7906L47.5469 47.6906L47.5467 47.6906L47.5475 47.7906ZM44.4495 47.814L44.3595 47.7704L44.2892 47.9152L44.4502 47.914L44.4495 47.814ZM41.6405 48.4639L41.7305 48.5075L41.7306 48.5074L41.6405 48.4639ZM43.7247 44.1475L43.8148 44.191L43.884 44.0475H43.7247V44.1475ZM42.6842 44.1475V44.0475H42.6248L42.5964 44.0997L42.6842 44.1475ZM39.0377 50.8514L38.9498 50.8036L38.8666 50.9565L39.0407 50.9513L39.0377 50.8514ZM40.7131 50.8011L40.7161 50.9012L40.7204 50.9009L40.7131 50.8011ZM41.1219 50.848L41.1517 50.7525L41.1502 50.7521L41.1219 50.848ZM41.8632 52.2611L41.9588 52.2905L41.9588 52.2904L41.8632 52.2611ZM41.2482 54.2602L41.1527 54.2308L41.3226 54.327L41.2482 54.2602ZM45.0111 50.0711L45.0855 50.1379L45.2369 49.9694L45.0104 49.9711L45.0111 50.0711ZM42.7474 50.0878L42.7466 49.9875L42.7389 49.9882L42.7474 50.0878ZM42.1557 49.9773L42.2001 49.8877L42.2 49.8877L42.1557 49.9773ZM63.7758 19.7027L63.6815 19.6691L63.6808 19.6713L63.7758 19.7027ZM63.7558 19.763L63.85 19.7967L63.8507 19.7944L63.7558 19.763ZM62.2234 24.0525L62.1292 24.0189L62.0545 24.2281L62.2607 24.1453L62.2234 24.0525ZM71.1551 16.2169L71.061 16.1831L71.0609 16.1832L71.1551 16.2169ZM71.7235 11.6326L71.8233 11.6257L71.8137 11.4884L71.6861 11.5399L71.7235 11.6326ZM65.8034 14.0202L65.766 13.9275L65.7243 13.9443L65.7092 13.9866L65.8034 14.0202ZM61.4855 19.4449L61.5797 19.4785L61.5947 19.4365L61.5734 19.3972L61.4855 19.4449ZM57.8389 12.7176L57.9268 12.6699L57.7981 12.4325L57.7412 12.6965L57.8389 12.7176ZM60.1126 23.2924L60.0247 23.3402L60.1316 23.5368L60.2068 23.326L60.1126 23.2924ZM58.896 9.95528L58.8088 9.90625L58.7818 9.95437L58.8081 10.0029L58.896 9.95528ZM62.4993 16.6056L62.4114 16.6532L62.5181 16.8502L62.5935 16.6392L62.4993 16.6056ZM63.8455 12.8351L63.9402 12.8689L63.9426 12.8592L63.8455 12.8351ZM63.8888 12.7179L63.9813 12.7561L63.9829 12.7515L63.8888 12.7179ZM67.3292 3.08083L67.4234 3.11445L67.5039 2.88894L67.2869 2.99021L67.3292 3.08083ZM66.8206 11.1742L66.7264 11.1406L66.6516 11.3502L66.858 11.2669L66.8206 11.1742ZM71.3845 9.3325L71.422 9.42524L71.5003 9.39364L71.4822 9.31116L71.3845 9.3325ZM69.4333 3.84756L69.5236 3.80452L69.42 3.58724L69.3391 3.81397L69.4333 3.84756ZM44.4828 20.4529L44.5089 20.3564L44.4652 20.3446L44.4275 20.3696L44.4828 20.4529ZM33.6994 27.6156L33.6441 27.5323L33.4506 27.6608L33.677 27.713L33.6994 27.6156ZM51.699 22.3985L51.7566 22.4803L51.9309 22.3575L51.725 22.3019L51.699 22.3985ZM30.9908 26.7114L30.9504 26.8029L31.0005 26.825L31.0462 26.7947L30.9908 26.7114ZM41.5844 19.6727L41.6398 19.756L41.8238 19.6338L41.6105 19.5762L41.5844 19.6727ZM32.8791 17.322L32.9052 17.2255L32.8654 17.2148L32.8297 17.2351L32.8791 17.322ZM24.6122 22.0235L24.5627 21.9365L24.452 21.9995L24.5395 22.0921L24.6122 22.0235ZM42.1699 17.4858L42.1439 17.5824L42.3583 17.6401L42.2595 17.4413L42.1699 17.4858ZM36.4891 6.05374L36.5786 6.00924L36.5543 5.96041L36.5002 5.95436L36.4891 6.05374ZM28.6409 6.90093L28.6124 6.80508L28.4901 6.84141L28.5546 6.95147L28.6409 6.90093ZM33.4675 15.1418L33.3812 15.1923L33.4019 15.2277L33.4415 15.2384L33.4675 15.1418ZM39.2813 6.62981L39.3109 6.53428L39.0879 6.46521L39.1918 6.6743L39.2813 6.62981ZM45.0619 18.2659L44.9724 18.3104L44.9924 18.3507L45.0358 18.3625L45.0619 18.2659ZM52.2785 20.2148L52.2524 20.3113L52.4595 20.3672L52.3692 20.1727L52.2785 20.2148ZM23.1062 20.2924L23.0284 20.3552L23.0818 20.4214L23.1557 20.3794L23.1062 20.2924ZM29.791 16.4885L29.8404 16.5754L30.0516 16.4552L29.817 16.3919L29.791 16.4885ZM18.6885 13.4915L18.7145 13.3949L18.4911 13.3346L18.6003 13.5386L18.6885 13.4915ZM30.3694 14.3018L30.3433 14.3984L30.5791 14.462L30.4556 14.2513L30.3694 14.3018ZM26.4669 7.64152L26.5532 7.59096L26.5103 7.51773L26.4311 7.54817L26.4669 7.64152ZM19.267 11.3048L19.2143 11.2199L19.0188 11.3414L19.241 11.4014L19.267 11.3048ZM54.3587 23.2556L54.2986 23.1756C46.2897 29.1939 39.0721 31.3148 32.629 29.5816L32.603 29.6781L32.577 29.7747C39.1043 31.5306 46.3857 29.372 54.4188 23.3355L54.3587 23.2556ZM32.603 29.6781L32.629 29.5816C26.1576 27.8411 20.5644 22.2225 15.853 12.6863L15.7633 12.7306L15.6737 12.7749C20.396 22.3331 26.0248 28.0125 32.577 29.7747L32.603 29.6781ZM15.7633 12.7306L15.8529 12.6861C15.668 12.3137 15.6365 11.9 15.737 11.5205L15.6403 11.495L15.5437 11.4694C15.4314 11.8935 15.4663 12.3572 15.6737 12.775L15.7633 12.7306ZM15.6403 11.495L15.7369 11.5207C15.8373 11.1449 16.0691 10.8039 16.4174 10.57L16.3617 10.487L16.3059 10.404C15.9162 10.6657 15.6561 11.048 15.5437 11.4692L15.6403 11.495ZM16.3617 10.487L16.4172 10.5702C19.9953 8.17937 23.3818 6.42231 26.5733 5.29724L26.54 5.20293L26.5068 5.10862C23.296 6.24048 19.8946 8.00615 16.3061 10.4039L16.3617 10.487ZM26.54 5.20293L26.5816 5.29385C26.6134 5.2793 26.6442 5.26809 26.6775 5.25972L26.653 5.16274L26.6286 5.06577C26.5821 5.07749 26.5397 5.09306 26.4984 5.11201L26.54 5.20293ZM26.653 5.16274L26.686 5.25716C31.3052 3.64486 35.5193 3.35695 39.3283 4.38866L39.3545 4.29213L39.3806 4.19561C35.5242 3.15109 31.2683 3.44593 26.6201 5.06833L26.653 5.16274ZM39.3545 4.29213L39.3284 4.38866C45.8179 6.14527 51.0522 11.6914 55.0086 21.0668L55.1007 21.028L55.1928 20.9891C51.225 11.5864 45.9547 5.9751 39.3806 4.19561L39.3545 4.29213ZM55.1007 21.028L55.0092 21.0683C55.0147 21.0809 55.0197 21.0938 55.0257 21.1092C55.0314 21.1239 55.038 21.1412 55.0458 21.1587L55.1373 21.1184L55.2287 21.078C55.2232 21.0654 55.2182 21.0526 55.2123 21.0372C55.2066 21.0224 55.1999 21.0052 55.1922 20.9876L55.1007 21.028ZM55.1373 21.1184L55.0936 21.2083C55.7394 21.522 56.3755 21.8624 56.9953 22.2196L57.0453 22.133L57.0952 22.0464C56.4718 21.687 55.8315 21.3443 55.1809 21.0284L55.1373 21.1184ZM57.0453 22.133L57.1369 22.093C55.2991 17.8867 54.9796 14.1197 56.1656 10.7815L56.0714 10.748L55.9771 10.7146C54.7697 14.1133 55.1016 17.9342 56.9536 22.173L57.0453 22.133ZM56.0714 10.748L56.1655 10.7819C56.3172 10.36 56.492 9.94464 56.6899 9.53595L56.5999 9.49236L56.5099 9.44878C56.3089 9.86375 56.1314 10.2856 55.9773 10.7142L56.0714 10.748ZM56.5999 9.49236L56.6895 9.53682C56.6967 9.52218 56.7039 9.50684 56.7104 9.49283C56.7172 9.47838 56.7233 9.46525 56.7293 9.45311L56.6398 9.40865L56.5502 9.36419C56.5429 9.37883 56.5358 9.39417 56.5292 9.40818C56.5225 9.42263 56.5163 9.43576 56.5103 9.4479L56.5999 9.49236ZM56.6398 9.40865L56.7293 9.45314C58.5952 5.69703 62.5218 2.60898 68.5342 0.202184L68.4971 0.109346L68.4599 0.0165084C62.4253 2.43218 58.4471 5.54573 56.5502 9.36416L56.6398 9.40865ZM68.4971 0.109346L68.5343 0.202159C68.8695 0.0677256 69.2266 0.0706094 69.5475 0.183579L69.5807 0.0892553L69.6139 -0.0050681C69.25 -0.133193 68.8427 -0.137013 68.4599 0.0165334L68.4971 0.109346ZM69.5807 0.0892553L69.547 0.183392C69.8706 0.299367 70.1497 0.527771 70.3202 0.846344L70.4084 0.79915L70.4966 0.751957C70.3014 0.387432 69.9822 0.126937 69.6144 -0.00488164L69.5807 0.0892553ZM70.4084 0.79915L70.3206 0.847009C73.7914 7.21482 74.7313 12.5741 73.1696 16.9355L73.2638 16.9692L73.3579 17.0029C74.9474 12.564 73.9793 7.14156 70.4962 0.751292L70.4084 0.79915ZM73.2638 16.9692L73.1696 16.9355C71.7369 20.9437 68.2324 24.038 62.634 26.2087L62.6702 26.3019L62.7063 26.3952C68.3362 24.2123 71.8988 21.085 73.358 17.0029L73.2638 16.9692ZM62.6702 26.3019L62.6019 26.375C64.5005 28.1474 66.1737 30.1568 67.5752 32.3596L67.6596 32.3059L67.744 32.2523C66.3333 30.035 64.6492 28.0126 62.7384 26.2288L62.6702 26.3019ZM67.6596 32.3059L67.5752 32.3596C70.6368 37.1694 72.416 42.8833 72.416 49.0152H72.5161H72.6161C72.6161 42.844 70.8253 37.0931 67.744 32.2522L67.6596 32.3059ZM72.5161 49.0152H72.416C72.416 57.5435 68.9834 65.2674 63.4368 70.8548L63.5078 70.9253L63.5787 70.9957C69.1612 65.3722 72.6161 57.5982 72.6161 49.0152H72.5161ZM63.5078 70.9253L63.4368 70.8549C57.8902 76.4457 50.2237 79.9 41.758 79.9V80V80.1C50.2793 80.1 57.9963 76.6227 63.5788 70.9957L63.5078 70.9253ZM41.758 80V79.9C33.2928 79.9 25.6258 76.4423 20.0793 70.8548L20.0083 70.9253L19.9373 70.9957C25.5197 76.6194 33.2372 80.1 41.758 80.1V80ZM20.0083 70.9253L20.0792 70.8548C14.5293 65.2673 11.1 57.5439 11.1 49.0152H11H10.9C10.9 57.5986 14.3515 65.3721 19.9373 70.9958L20.0083 70.9253ZM11 49.0152H11.1C11.1 47.7068 11.1828 46.4183 11.3386 45.1498L11.2393 45.1376L11.1401 45.1254C10.9834 46.4017 10.9 47.6984 10.9 49.0152H11ZM11.2393 45.1376L11.3386 45.1498C11.4976 43.8582 11.7395 42.5898 12.051 41.3547L11.954 41.3302L11.857 41.3058C11.5436 42.5486 11.3002 43.8251 11.1401 45.1253L11.2393 45.1376ZM11.954 41.3302L12.051 41.3547C12.1905 40.8014 12.7482 40.4666 13.2954 40.6067L13.3202 40.5098L13.345 40.413C12.6889 40.245 12.0233 40.6469 11.857 41.3058L11.954 41.3302ZM13.3202 40.5098L13.2954 40.6067C13.8434 40.747 14.1772 41.3086 14.0377 41.8617L14.1346 41.8861L14.2316 41.9106C14.3979 41.2514 14.0004 40.5807 13.345 40.413L13.3202 40.5098ZM14.1346 41.8861L14.0377 41.8615C13.7442 43.0141 13.5206 44.197 13.3739 45.4001L13.4731 45.4122L13.5724 45.4243C13.7181 44.2298 13.9401 43.0552 14.2315 41.9108L14.1346 41.8861ZM13.4731 45.4122L13.3739 45.3999C13.2271 46.5826 13.1504 47.7888 13.1504 49.0153H13.2504H13.3504C13.3504 47.7972 13.4266 46.5992 13.5724 45.4245L13.4731 45.4122ZM13.2504 49.0153H13.1504C13.1504 56.972 16.3526 64.1765 21.5295 69.3919L21.6005 69.3215L21.6715 69.251C16.5304 64.0716 13.3504 56.9173 13.3504 49.0153H13.2504ZM21.6005 69.3215L21.5295 69.3919C26.7064 74.6074 33.8588 77.8331 41.7581 77.8331V77.7331V77.6331C33.9145 77.6331 26.8125 74.4304 21.6715 69.251L21.6005 69.3215ZM41.7581 77.7331V77.8331C49.6573 77.8331 56.8093 74.607 61.9866 69.3919L61.9157 69.3215L61.8447 69.251C56.7032 74.43 49.6016 77.6331 41.7581 77.6331V77.7331ZM61.9157 69.3215L61.9866 69.3919C67.1639 64.1769 70.3657 56.972 70.3657 49.0153H70.2657H70.1657C70.1657 56.9173 66.9862 64.0721 61.8447 69.251L61.9157 69.3215ZM70.2657 49.0153H70.3657C70.3657 43.2898 68.7113 37.9574 65.856 33.4747L65.7716 33.5284L65.6873 33.5821C68.5227 38.0336 70.1657 43.3288 70.1657 49.0153H70.2657ZM65.7716 33.5284L65.856 33.4747C64.2215 30.9075 62.1934 28.6192 59.8585 26.6971L59.795 26.7743L59.7314 26.8515C62.0501 28.7603 64.0641 31.0327 65.6873 33.5821L65.7716 33.5284ZM59.795 26.7743L59.8438 26.6871C59.7043 26.609 59.5767 26.5056 59.4674 26.383L59.3928 26.4495L59.3181 26.516C59.4416 26.6546 59.5865 26.7722 59.7461 26.8616L59.795 26.7743ZM59.3928 26.4495L59.4548 26.371C57.8938 25.1379 56.2026 24.0593 54.4046 23.1654L54.3601 23.2549L54.3156 23.3445C56.1009 24.2321 57.7804 25.3032 59.3308 26.528L59.3928 26.4495ZM54.3601 23.2549L54.3195 23.1635L54.3181 23.1642L54.3587 23.2556L54.3993 23.347L54.4007 23.3463L54.3601 23.2549ZM34.9159 35.7026L35.0027 35.6529L34.0886 34.0589L34.0018 34.1087L33.9151 34.1584L34.8292 35.7524L34.9159 35.7026ZM34.0018 34.1087L34.0883 34.0585C33.7486 33.4724 33.0028 33.2673 32.4156 33.6105L32.4661 33.6968L32.5166 33.7831C33.0064 33.4968 33.6301 33.6667 33.9153 34.1588L34.0018 34.1087ZM32.4661 33.6968L32.4154 33.6106C31.8332 33.953 31.6306 34.7035 31.9706 35.2938L32.0572 35.2439L32.1439 35.194C31.859 34.6993 32.0286 34.0701 32.5168 33.783L32.4661 33.6968ZM32.0572 35.2439L31.9705 35.2936L32.8846 36.8876L32.9713 36.8378L33.0581 36.7881L32.144 35.1941L32.0572 35.2439ZM32.9713 36.8378L32.8848 36.888C33.2245 37.4741 33.9704 37.6792 34.5575 37.336L34.5071 37.2497L34.4566 37.1634C33.9668 37.4497 33.3431 37.2798 33.0578 36.7877L32.9713 36.8378ZM34.5071 37.2497L34.5578 37.3359C35.1403 36.9932 35.339 36.2394 35.0027 35.6529L34.9159 35.7026L34.8292 35.7524C35.1111 36.2441 34.9441 36.8766 34.4564 37.1635L34.5071 37.2497ZM28.3576 41.479L28.4079 41.3925L26.8256 40.4717L26.7753 40.5581L26.725 40.6445L28.3073 41.5654L28.3576 41.479ZM26.7753 40.5581L26.8256 40.4717C26.2417 40.132 25.4958 40.337 25.1594 40.9236L25.2462 40.9733L25.3329 41.0231C25.6149 40.5314 26.2384 40.3614 26.725 40.6445L26.7753 40.5581ZM25.2462 40.9733L25.1594 40.9236C24.8229 41.5105 25.0255 42.2611 25.6081 42.6001L25.6584 42.5137L25.7087 42.4273C25.2209 42.1434 25.0512 41.5144 25.3329 41.0231L25.2462 40.9733ZM25.6584 42.5137L25.6081 42.6001L27.1904 43.521L27.2407 43.4345L27.291 43.3481L25.7087 42.4273L25.6584 42.5137ZM27.2407 43.4345L27.1904 43.521C27.7742 43.8607 28.5201 43.6556 28.8565 43.0691L28.7697 43.0193L28.683 42.9696C28.401 43.4613 27.7775 43.6312 27.2909 43.3481L27.2407 43.4345ZM28.7697 43.0193L28.8565 43.0691C29.193 42.4822 28.9905 41.7316 28.4079 41.3925L28.3576 41.479L28.3073 41.5654C28.795 41.8492 28.9647 42.4782 28.683 42.9696L28.7697 43.0193ZM25.5487 49.7834V49.6834H23.7238V49.7834V49.8834H25.5487V49.7834ZM23.7238 49.7834V49.6834C23.0496 49.6834 22.5036 50.2345 22.5036 50.9119H22.6036H22.7036C22.7036 50.3436 23.1615 49.8834 23.7238 49.8834V49.7834ZM22.6036 50.9119H22.5036C22.5036 51.5893 23.0496 52.1404 23.7238 52.1404V52.0404V51.9404C23.1615 51.9404 22.7036 51.4802 22.7036 50.9119H22.6036ZM23.7238 52.0404V52.1404H25.5487V52.0404V51.9404H23.7238V52.0404ZM25.5487 52.0404V52.1404C26.2229 52.1404 26.7689 51.5893 26.7689 50.9119H26.6689H26.5689C26.5689 51.4802 26.1111 51.9404 25.5487 51.9404V52.0404ZM26.6689 50.9119H26.7689C26.7689 50.2345 26.2229 49.6834 25.5487 49.6834V49.7834V49.8834C26.1111 49.8834 26.5689 50.3436 26.5689 50.9119H26.6689ZM59.1251 52.0437V52.1437H60.95V52.0437V51.9437H59.1251V52.0437ZM60.95 52.0437V52.1437C61.6242 52.1437 62.1702 51.5926 62.1702 50.9152H62.0702H61.9702C61.9702 51.4835 61.5124 51.9437 60.95 51.9437V52.0437ZM62.0702 50.9152H62.1702C62.1702 50.2379 61.6242 49.6868 60.95 49.6868V49.7868V49.8868C61.5124 49.8868 61.9702 50.3469 61.9702 50.9152H62.0702ZM60.95 49.7868V49.6868H59.1251V49.7868V49.8868H60.95V49.7868ZM59.1251 49.7868V49.6868C58.4509 49.6868 57.9049 50.2379 57.9049 50.9152H58.0049H58.1049C58.1049 50.3469 58.5628 49.8868 59.1251 49.8868V49.7868ZM58.0049 50.9152H57.9049C57.9049 51.5926 58.4509 52.1437 59.1251 52.1437V52.0437V51.9437C58.5628 51.9437 58.1049 51.4835 58.1049 50.9152H58.0049ZM57.4365 43.4379L57.4868 43.5243L59.069 42.6035L59.0187 42.5171L58.9684 42.4306L57.3862 43.3515L57.4365 43.4379ZM59.0187 42.5171L59.069 42.6035C59.6516 42.2645 59.8542 41.5138 59.5177 40.9269L59.4309 40.9767L59.3442 41.0264C59.6259 41.5178 59.4562 42.1468 58.9684 42.4306L59.0187 42.5171ZM59.4309 40.9767L59.5177 40.9269C59.1813 40.3404 58.4353 40.1353 57.8515 40.475L57.9018 40.5615L57.9521 40.6479C58.4387 40.3648 59.0622 40.5347 59.3442 41.0264L59.4309 40.9767ZM57.9018 40.5615L57.8515 40.475L56.2693 41.3959L56.3196 41.4823L56.3699 41.5687L57.9521 40.6479L57.9018 40.5615ZM56.3196 41.4823L56.2693 41.3959C55.6866 41.7349 55.4841 42.4855 55.8206 43.0724L55.9074 43.0227L55.9941 42.9729C55.7124 42.4816 55.8821 41.8526 56.3699 41.5687L56.3196 41.4823ZM55.9074 43.0227L55.8204 43.072C56.1536 43.6594 56.8999 43.8638 57.4865 43.5245L57.4365 43.4379L57.3864 43.3513C56.8961 43.6349 56.2728 43.4642 55.9943 42.9733L55.9074 43.0227ZM51.7024 36.8312L51.7892 36.8809L52.7033 35.287L52.6165 35.2372L52.5298 35.1875L51.6157 36.7814L51.7024 36.8312ZM52.6165 35.2372L52.7033 35.287C53.0398 34.7001 52.8372 33.9495 52.2546 33.6104L52.2043 33.6969L52.154 33.7833C52.6418 34.0671 52.8115 34.6962 52.5298 35.1875L52.6165 35.2372ZM52.2043 33.6969L52.2546 33.6104C51.6708 33.2707 50.9248 33.4758 50.5885 34.0624L50.6752 34.1121L50.762 34.1618C51.044 33.6701 51.6675 33.5002 52.154 33.7833L52.2043 33.6969ZM50.6752 34.1121L50.5885 34.0623L49.6744 35.6563L49.7611 35.706L49.8479 35.7558L50.762 34.1618L50.6752 34.1121ZM49.7611 35.706L49.6744 35.6563C49.3379 36.2432 49.5404 36.9938 50.123 37.3328L50.1733 37.2464L50.2236 37.16C49.7359 36.8761 49.5662 36.2471 49.8479 35.7558L49.7611 35.706ZM50.1733 37.2464L50.123 37.3328C50.7066 37.6724 51.4563 37.4678 51.7894 36.8805L51.7024 36.8312L51.6154 36.7818C51.3369 37.2728 50.7104 37.4433 50.2236 37.16L50.1733 37.2464ZM43.4621 34.0016H43.562V32.1599H43.4621H43.362V34.0016H43.4621ZM43.4621 32.1599H43.562C43.562 31.4794 43.0162 30.9248 42.3352 30.9248V31.0248V31.1248C42.904 31.1248 43.362 31.5881 43.362 32.1599H43.4621ZM42.3352 31.0248V30.9248C41.6577 30.9248 41.1084 31.4792 41.1084 32.1599H41.2084H41.3084C41.3084 31.5883 41.7695 31.1248 42.3352 31.1248V31.0248ZM41.2084 32.1599H41.1084V34.0016H41.2084H41.3084V32.1599H41.2084ZM41.2084 34.0016H41.1084C41.1084 34.6823 41.6577 35.2368 42.3352 35.2368V35.1368V35.0368C41.7695 35.0368 41.3084 34.5733 41.3084 34.0016H41.2084ZM42.3352 35.1368V35.2368C43.0162 35.2368 43.562 34.6821 43.562 34.0016H43.4621H43.362C43.362 34.5734 42.904 35.0368 42.3352 35.0368V35.1368ZM46.4005 72.2892L46.4264 72.3858C46.9496 72.2455 47.423 72.0193 47.8225 71.727L47.7634 71.6463L47.7043 71.5656C47.3259 71.8426 46.8752 72.0584 46.3746 72.1926L46.4005 72.2892ZM47.7634 71.6463L47.8226 71.7269C48.6146 71.1457 49.1133 70.304 49.1133 69.3492H49.0133H48.9133C48.9133 70.2293 48.4545 71.0151 47.7042 71.5657L47.7634 71.6463ZM49.0133 69.3492H49.1133V69.0846H49.0133H48.9133V69.3492H49.0133ZM49.0133 69.0846L49.0379 69.1816C49.5515 69.0513 49.9921 68.7352 50.3262 68.2945L50.2465 68.2341L50.1668 68.1737C49.8561 68.5835 49.4524 68.8701 48.9887 68.9877L49.0133 69.0846ZM50.2465 68.2341L50.3263 68.2944C50.7022 67.7976 50.9315 67.1367 50.9315 66.4258H50.8315H50.7315C50.7315 67.0946 50.5155 67.7128 50.1668 68.1738L50.2465 68.2341ZM50.8315 66.4258H50.9315V66.3555H50.8315H50.7315V66.4258H50.8315ZM50.8315 66.3555H50.9315C50.9315 65.6448 50.7023 64.9804 50.326 64.4866L50.2465 64.5473L50.167 64.6079C50.5154 65.0652 50.7315 65.6866 50.7315 66.3555H50.8315ZM50.2465 64.5473L50.3262 64.4868C50.0022 64.0597 49.5722 63.7475 49.073 63.6103L49.0465 63.7068L49.02 63.8032C49.4716 63.9272 49.8659 64.211 50.1668 64.6077L50.2465 64.5473ZM49.0465 63.7068L49.1431 63.7326C49.1879 63.5651 49.2482 63.4087 49.3268 63.2662L49.2393 63.2179L49.1517 63.1696C49.0641 63.3284 48.9982 63.5002 48.9499 63.6809L49.0465 63.7068ZM49.2393 63.2179L49.3274 63.2651C49.5017 62.9394 49.7656 62.6535 50.1152 62.4242L50.0603 62.3406L50.0055 62.257C49.6304 62.5031 49.3425 62.8132 49.1511 63.1707L49.2393 63.2179ZM50.0603 62.3406L50.1153 62.4241C52.0772 61.1324 53.7007 59.3552 54.8221 57.2611L54.734 57.2139L54.6458 57.1667C53.5401 59.2315 51.9393 60.9837 50.0053 62.2571L50.0603 62.3406ZM54.734 57.2139L54.8221 57.2611C55.9033 55.2446 56.5193 52.9346 56.5193 50.4865H56.4193H56.3193C56.3193 52.9007 55.7119 55.1783 54.6458 57.1666L54.734 57.2139ZM56.4193 50.4865H56.5193C56.5193 46.5414 54.9326 42.9702 52.365 40.3872L52.2941 40.4577L52.2232 40.5282C54.7548 43.075 56.3193 46.596 56.3193 50.4865H56.4193ZM52.2941 40.4577L52.3651 40.3873C49.7976 37.8009 46.2522 36.2021 42.3387 36.2021V36.3021V36.4021C46.1965 36.4021 49.6915 37.9779 52.2231 40.5282L52.2941 40.4577ZM42.3387 36.3021V36.2021C38.4217 36.2021 34.8763 37.8008 32.3123 40.3873L32.3833 40.4577L32.4543 40.5281C34.9824 37.9779 38.4774 36.4021 42.3387 36.4021V36.3021ZM32.3833 40.4577L32.3124 40.3872C29.7448 42.9703 28.1581 46.5415 28.1581 50.4865H28.2581H28.3581C28.3581 46.5962 29.9226 43.0752 32.4542 40.5282L32.3833 40.4577ZM28.2581 50.4865H28.1581C28.1581 52.9345 28.7706 55.2411 29.8553 57.2612L29.9434 57.2139L30.0315 57.1666C28.9621 55.1749 28.3581 52.9007 28.3581 50.4865H28.2581ZM29.9434 57.2139L29.8553 57.2611C30.9767 59.3519 32.6002 61.129 34.562 62.424L34.6171 62.3406L34.6722 62.2571C32.7381 60.9804 31.1373 59.2282 30.0315 57.1666L29.9434 57.2139ZM34.6171 62.3406L34.5618 62.424C34.9087 62.6536 35.1758 62.9398 35.3499 63.2651L35.4381 63.2179L35.5263 63.1707C35.3348 62.8129 35.0435 62.503 34.6723 62.2572L34.6171 62.3406ZM35.4381 63.2179L35.3501 63.2654C35.4292 63.4119 35.4896 63.5687 35.5344 63.7331L35.6309 63.7068L35.7274 63.6805C35.6791 63.5032 35.6133 63.3319 35.5261 63.1704L35.4381 63.2179ZM35.6309 63.7068L35.6044 63.6103C35.1052 63.7475 34.6752 64.0597 34.3512 64.4868L34.4309 64.5473L34.5105 64.6077C34.8115 64.211 35.2059 63.9272 35.6574 63.8032L35.6309 63.7068ZM34.4309 64.5473L34.3511 64.4869C33.9752 64.9837 33.7458 65.6446 33.7458 66.3555H33.8458H33.9458C33.9458 65.6867 34.1619 65.0685 34.5106 64.6076L34.4309 64.5473ZM33.8458 66.3555H33.7458V66.4258H33.8458H33.9458V66.3555H33.8458ZM33.8458 66.4258H33.7458C33.7458 67.1365 33.9751 67.801 34.3513 68.2947L34.4309 68.2341L34.5104 68.1735C34.162 67.7162 33.9458 67.0948 33.9458 66.4258H33.8458ZM34.4309 68.2341L34.3512 68.2945C34.6959 68.7494 35.1607 69.0724 35.6948 69.1955L35.7173 69.098L35.7397 69.0006C35.2567 68.8893 34.8306 68.5961 34.5106 68.1737L34.4309 68.2341ZM35.7173 69.098H35.6173V69.3492H35.7173H35.8173V69.098H35.7173ZM35.7173 69.3492H35.6173C35.6173 70.3074 36.116 71.1457 36.908 71.7269L36.9672 71.6463L37.0263 71.5657C36.2759 71.015 35.8173 70.2326 35.8173 69.3492H35.7173ZM36.9672 71.6463L36.9078 71.7267C37.3042 72.0194 37.7812 72.2455 38.3042 72.3858L38.3301 72.2892L38.356 72.1926C37.8551 72.0583 37.4013 71.8424 37.0266 71.5658L36.9672 71.6463ZM38.3301 72.2892L38.2321 72.3095C38.3891 73.0692 38.7678 73.7493 39.2926 74.2815L39.3638 74.2113L39.435 74.1411C38.9361 73.6352 38.5768 72.9893 38.428 72.269L38.3301 72.2892ZM39.3638 74.2113L39.2928 74.2818C39.9988 74.9929 40.9713 75.4331 42.0463 75.4331V75.3331V75.2331C41.0272 75.2331 40.105 74.816 39.4348 74.1409L39.3638 74.2113ZM42.0463 75.3331V75.4331H42.6845V75.3331V75.2331H42.0463V75.3331ZM42.6845 75.3331V75.4331C43.7596 75.4331 44.7321 74.9929 45.438 74.2818L45.367 74.2113L45.296 74.1409C44.6259 74.8161 43.7037 75.2331 42.6845 75.2331V75.3331ZM45.367 74.2113L45.438 74.2818C45.9666 73.7493 46.3416 73.069 46.4984 72.3094L46.4005 72.2892L46.3026 72.269C46.1538 72.9896 45.7979 73.6353 45.296 74.1409L45.367 74.2113ZM40.8127 72.4433L40.7331 72.5037C40.7775 72.5622 40.8279 72.6242 40.887 72.68L40.9557 72.6073L41.0243 72.5346C40.9771 72.49 40.9344 72.4381 40.8924 72.3828L40.8127 72.4433ZM40.9557 72.6073L40.8847 72.6778C41.1815 72.9768 41.5955 73.1661 42.0459 73.1661V73.0661V72.9661C41.6521 72.9661 41.2883 72.8005 41.0267 72.5369L40.9557 72.6073ZM42.0459 73.0661V73.1661H42.6842V73.0661V72.9661H42.0459V73.0661ZM42.6842 73.0661V73.1661C43.1376 73.1661 43.5486 72.9804 43.8458 72.6774L43.7744 72.6073L43.703 72.5373C43.4419 72.8036 43.0817 72.9661 42.6842 72.9661V73.0661ZM43.7744 72.6073L43.8454 72.6778C43.8982 72.6246 43.951 72.5644 43.997 72.5037L43.9173 72.4433L43.8377 72.3828C43.7973 72.436 43.7504 72.4896 43.7034 72.5369L43.7744 72.6073ZM43.9173 72.4433V72.3433H40.8127V72.4433V72.5433H43.9173V72.4433ZM37.9673 69.1482H37.8673V69.3491H37.9673H38.0673V69.1482H37.9673ZM37.9673 69.3491H37.8673C37.8673 69.5588 38.0236 69.7522 38.2224 69.9041L38.2831 69.8246L38.3438 69.7452C38.157 69.6024 38.0673 69.4609 38.0673 69.3491H37.9673ZM38.2831 69.8246L38.2243 69.9055C38.5433 70.1376 38.997 70.2796 39.5097 70.2796V70.1796V70.0796C39.0317 70.0796 38.6212 69.9469 38.3419 69.7438L38.2831 69.8246ZM39.5097 70.1796V70.2796H45.2137V70.1796V70.0796H39.5097V70.1796ZM45.2137 70.1796V70.2796C45.7295 70.2796 46.1835 70.1377 46.4996 69.9052L46.4403 69.8246L46.3811 69.7441C46.1055 69.9468 45.6952 70.0796 45.2137 70.0796V70.1796ZM46.4403 69.8246L46.4995 69.9052C46.7035 69.7555 46.8594 69.5587 46.8594 69.3491H46.7594H46.6594C46.6594 69.461 46.5694 69.6058 46.3811 69.744L46.4403 69.8246ZM46.7594 69.3491H46.8594V69.1482H46.7594H46.6594V69.3491H46.7594ZM46.7594 69.1482V69.0482H37.9673V69.1482V69.2482H46.7594V69.1482ZM37.9108 63.6331V63.7331H46.7625V63.6331V63.5331H37.9108V63.6331ZM46.7625 63.6331L46.8613 63.6486C46.9427 63.1304 47.1054 62.6421 47.3461 62.1899L47.2578 62.143L47.1695 62.096C46.9182 62.5681 46.7485 63.0777 46.6637 63.6176L46.7625 63.6331ZM47.2578 62.143L47.3459 62.1902C47.7001 61.529 48.2204 60.9619 48.8787 60.5252L48.8234 60.4419L48.7681 60.3585C48.0835 60.8127 47.5401 61.4041 47.1696 62.0957L47.2578 62.143ZM48.8234 60.4419L48.8785 60.5253C50.531 59.4347 51.8986 57.9421 52.8373 56.1861L52.7491 56.139L52.6609 56.0918C51.7381 57.8183 50.3933 59.2859 48.7683 60.3584L48.8234 60.4419ZM52.7491 56.139L52.8372 56.1863C53.7457 54.4944 54.2619 52.5494 54.2619 50.4832H54.1619H54.0619C54.0619 52.5158 53.5542 54.4283 52.661 56.0917L52.7491 56.139ZM54.1619 50.4832H54.2619C54.2619 47.1643 52.9278 44.1589 50.7692 41.9844L50.6982 42.0548L50.6273 42.1253C52.75 44.2637 54.0619 47.2189 54.0619 50.4832H54.1619ZM50.6982 42.0548L50.7692 41.9844C48.6106 39.8098 45.6269 38.4656 42.3349 38.4656V38.5656V38.6656C45.5713 38.6656 48.5045 39.9869 50.6273 42.1253L50.6982 42.0548ZM42.3349 38.5656V38.4656C39.0395 38.4656 36.0592 39.8099 33.9006 41.9844L33.9715 42.0548L34.0425 42.1253C36.1653 39.9869 39.0952 38.6656 42.3349 38.6656V38.5656ZM33.9715 42.0548L33.9006 41.9844C31.742 44.1589 30.4079 47.1643 30.4079 50.4832H30.5079H30.6079C30.6079 47.2189 31.9198 44.2637 34.0425 42.1253L33.9715 42.0548ZM30.5079 50.4832H30.4079C30.4079 52.5493 30.924 54.491 31.8325 56.1862L31.9206 56.139L32.0088 56.0917C31.1155 54.4249 30.6079 52.5156 30.6079 50.4832H30.5079ZM31.9206 56.139L31.8325 56.1862C32.7745 57.9421 34.1387 59.4346 35.7913 60.5253L35.8464 60.4419L35.9015 60.3584C34.2765 59.286 32.935 57.8183 32.0088 56.0917L31.9206 56.139ZM35.8464 60.4419L35.7913 60.5253C36.4526 60.9618 36.9697 61.5288 37.3274 62.1905L37.4154 62.143L37.5034 62.0954C37.1297 61.4042 36.5898 60.8127 35.9015 60.3584L35.8464 60.4419ZM37.4154 62.143L37.3271 62.1899C37.5678 62.6421 37.7306 63.1304 37.812 63.6486L37.9108 63.6331L38.0096 63.6176C37.9248 63.0777 37.755 62.5681 37.5037 62.096L37.4154 62.143ZM48.501 65.9001V65.8001H48.4844V65.9001V66.0001H48.501V65.9001ZM48.4711 65.9101L48.5029 66.0049C48.502 66.0052 48.5035 66.0047 48.5086 66.0036C48.5139 66.0025 48.5172 66.002 48.5236 66.0008C48.5256 66.0004 48.5302 65.9995 48.5347 65.9984C48.5362 65.998 48.5427 65.9964 48.5503 65.9931C48.5529 65.992 48.5642 65.9873 48.5759 65.9775C48.5831 65.9715 48.6292 65.9295 48.6055 65.8658C48.5963 65.841 48.58 65.8267 48.5711 65.8202C48.5618 65.8133 48.5532 65.8095 48.5486 65.8077C48.5394 65.804 48.5317 65.8025 48.529 65.802C48.5225 65.8009 48.5171 65.8005 48.5152 65.8004C48.5103 65.8001 48.5051 65.8001 48.501 65.8001V65.9001V66.0001C48.5044 66.0001 48.5046 66.0001 48.5031 66C48.5029 66 48.4988 65.9998 48.4932 65.9988C48.4908 65.9984 48.4835 65.997 48.4745 65.9934C48.47 65.9916 48.4616 65.9879 48.4523 65.9811C48.4435 65.9746 48.4273 65.9603 48.4181 65.9356C48.3944 65.872 48.4404 65.8301 48.4475 65.8242C48.4591 65.8145 48.4701 65.8099 48.4724 65.8089C48.4794 65.806 48.485 65.8046 48.4852 65.8046C48.4873 65.8041 48.4883 65.8039 48.4859 65.8044C48.4825 65.805 48.4576 65.8092 48.4393 65.8153L48.4711 65.9101ZM48.4844 65.9001V65.8001H36.1888V65.9001V66.0001H48.4844V65.9001ZM36.2021 65.9101L36.1572 65.9994C36.1644 66.0031 36.1563 65.9995 36.1481 65.993C36.1451 65.9905 36.1262 65.9757 36.1174 65.9473C36.1122 65.9305 36.1111 65.9107 36.117 65.8906C36.1226 65.8715 36.1329 65.858 36.1411 65.8497L36.2121 65.9202L36.2831 65.9906C36.2922 65.9815 36.3029 65.9672 36.3088 65.9472C36.315 65.9262 36.3139 65.9056 36.3084 65.888C36.2991 65.8579 36.2787 65.8414 36.2736 65.8373C36.2659 65.8311 36.2587 65.827 36.2555 65.8252C36.2519 65.8232 36.2484 65.8214 36.2471 65.8208L36.2021 65.9101ZM36.2121 65.9202L36.1322 65.86C36.0423 65.9794 35.9924 66.1568 35.9924 66.3555H36.0924H36.1924C36.1924 66.1858 36.2357 66.0551 36.292 65.9803L36.2121 65.9202ZM36.0924 66.3555H35.9924V66.4258H36.0924H36.1924V66.3555H36.0924ZM36.0924 66.4258H35.9924C35.9924 66.6245 36.0423 66.8018 36.1322 66.9213L36.2121 66.8611L36.292 66.8009C36.2357 66.7262 36.1924 66.5955 36.1924 66.4258H36.0924ZM36.2121 66.8611L36.1411 66.9316C36.1329 66.9233 36.1226 66.9098 36.117 66.8906C36.1111 66.8705 36.1122 66.8507 36.1174 66.834C36.1262 66.8055 36.1451 66.7907 36.1481 66.7883C36.1563 66.7817 36.1644 66.7782 36.1571 66.7818L36.2021 66.8711L36.2471 66.9604C36.2484 66.9598 36.2519 66.958 36.2555 66.956C36.2587 66.9543 36.2659 66.9502 36.2736 66.944C36.2787 66.9399 36.2991 66.9234 36.3084 66.8932C36.3139 66.8756 36.315 66.855 36.3088 66.8341C36.3029 66.8141 36.2921 66.7998 36.2831 66.7906L36.2121 66.8611ZM36.1888 66.8812V66.9812H48.4844V66.8812V66.7812H36.1888V66.8812ZM48.4711 66.8711L48.5029 66.7763C48.5033 66.7765 48.5059 66.7774 48.5099 66.7793C48.5129 66.7809 48.5223 66.7858 48.5321 66.7957C48.5422 66.8058 48.5599 66.8288 48.5599 66.8636C48.5599 66.8984 48.5422 66.9214 48.5321 66.9315L48.4611 66.8611L48.3902 66.7906C48.3784 66.8025 48.3599 66.8272 48.3599 66.8636C48.3599 66.9001 48.3784 66.9248 48.3902 66.9366C48.4098 66.9564 48.4334 66.964 48.4393 66.9659L48.4711 66.8711ZM48.4611 66.8611L48.541 66.9213C48.631 66.8018 48.6808 66.6245 48.6808 66.4258H48.5808H48.4808C48.4808 66.5955 48.4376 66.7262 48.3812 66.8009L48.4611 66.8611ZM48.5808 66.4258H48.6808V66.3555H48.5808H48.4808V66.4258H48.5808ZM48.5808 66.3555H48.6808C48.6808 66.1568 48.631 65.9794 48.541 65.86L48.4611 65.9202L48.3812 65.9803C48.4376 66.0551 48.4808 66.1858 48.4808 66.3555H48.5808ZM48.4611 65.9202L48.5321 65.8497C48.5403 65.858 48.5506 65.8715 48.5563 65.8906C48.5622 65.9107 48.5611 65.9305 48.5559 65.9473C48.547 65.9757 48.5282 65.9905 48.5251 65.993C48.517 65.9995 48.5089 66.0031 48.5161 65.9994L48.4711 65.9101L48.4261 65.8208C48.4249 65.8214 48.4213 65.8232 48.4177 65.8252C48.4145 65.827 48.4073 65.8311 48.3996 65.8373C48.3945 65.8414 48.3742 65.8579 48.3648 65.888C48.3594 65.9056 48.3582 65.9262 48.3644 65.9472C48.3703 65.9672 48.3811 65.9815 48.3902 65.9906L48.4611 65.9202ZM36.1888 65.9001V65.8001H36.1722V65.9001V66.0001H36.1888V65.9001ZM36.1722 65.9001V65.8001C36.1686 65.8001 36.1633 65.8001 36.1581 65.8005C36.1563 65.8006 36.1497 65.801 36.1419 65.8027C36.1389 65.8034 36.1284 65.8057 36.1164 65.8121C36.1109 65.815 36.0629 65.8404 36.0629 65.9007C36.0629 65.9539 36.1022 65.9803 36.1047 65.9821C36.1141 65.9889 36.1226 65.9924 36.1253 65.9935C36.132 65.9963 36.1377 65.9978 36.1393 65.9982C36.1437 65.9993 36.148 66.0002 36.15 66.0006C36.1562 66.0019 36.1592 66.0024 36.1642 66.0035C36.169 66.0045 36.1707 66.005 36.1703 66.0049L36.2021 65.9101L36.234 65.8153C36.2163 65.8094 36.193 65.8053 36.1895 65.8045C36.1873 65.8041 36.1882 65.8042 36.1902 65.8048C36.1905 65.8049 36.1953 65.8061 36.2014 65.8086C36.2038 65.8096 36.212 65.813 36.2213 65.8196C36.226 65.823 36.2347 65.8298 36.243 65.8409C36.2514 65.8522 36.2629 65.8727 36.2629 65.9007C36.2629 65.9609 36.2149 65.9862 36.2096 65.989C36.1978 65.9953 36.1875 65.9975 36.1849 65.9981C36.1778 65.9996 36.1723 66 36.172 66C36.1698 66.0001 36.1692 66.0001 36.1722 66.0001V65.9001ZM48.5014 66.8812V66.9812C48.505 66.9812 48.5103 66.9811 48.5155 66.9808C48.5173 66.9807 48.524 66.9802 48.532 66.9784C48.535 66.9778 48.5462 66.9753 48.5589 66.9683C48.5658 66.9644 48.616 66.9353 48.6103 66.8717C48.6079 66.8446 48.5953 66.8258 48.5873 66.8162C48.5791 66.8065 48.5709 66.8005 48.5665 66.7975C48.5576 66.7915 48.5497 66.7883 48.547 66.7872C48.5407 66.7847 48.5352 66.7833 48.5336 66.7829C48.5294 66.7818 48.5252 66.781 48.5232 66.7806C48.5171 66.7794 48.5139 66.7788 48.5089 66.7778C48.5041 66.7767 48.5025 66.7762 48.5029 66.7763L48.4711 66.8711L48.4393 66.9659C48.4571 66.9719 48.4805 66.976 48.4842 66.9768C48.4865 66.9772 48.4857 66.9771 48.4839 66.9766C48.4835 66.9765 48.479 66.9754 48.4733 66.9732C48.471 66.9722 48.4634 66.9692 48.4547 66.9633C48.4503 66.9603 48.4421 66.9544 48.434 66.9447C48.426 66.9352 48.4135 66.9165 48.4111 66.8894C48.4054 66.8259 48.4556 66.7968 48.4623 66.7931C48.4748 66.7862 48.4858 66.7838 48.4884 66.7832C48.4957 66.7816 48.5014 66.7813 48.5016 66.7813C48.5038 66.7811 48.5044 66.7812 48.5014 66.7812V66.8812ZM48.4844 66.8812L48.4845 66.9812L48.5015 66.9812L48.5014 66.8812L48.5013 66.7812L48.4843 66.7812L48.4844 66.8812ZM36.1727 66.8812L36.1726 66.9812L36.1887 66.9812L36.1888 66.8812L36.189 66.7812L36.1728 66.7812L36.1727 66.8812ZM36.2021 66.8711L36.1703 66.7763C36.1706 66.7762 36.1689 66.7768 36.1642 66.7778C36.159 66.7789 36.1563 66.7794 36.15 66.7807C36.1481 66.7811 36.1436 66.782 36.1392 66.7832C36.1376 66.7836 36.1316 66.7852 36.1245 66.7882C36.1217 66.7894 36.1125 66.7934 36.1024 66.8011C36.0986 66.804 36.0581 66.8343 36.0638 66.8906C36.0694 66.9465 36.1147 66.9682 36.1189 66.9702C36.1301 66.9758 36.1399 66.978 36.1429 66.9786C36.1505 66.9802 36.1568 66.9807 36.1586 66.9808C36.1638 66.9811 36.169 66.9812 36.1727 66.9812V66.8812V66.7812C36.1697 66.7812 36.1702 66.7811 36.1723 66.7812C36.1727 66.7813 36.1779 66.7816 36.1847 66.783C36.1874 66.7836 36.1968 66.7856 36.2079 66.7912C36.2119 66.7931 36.2571 66.8147 36.2627 66.8705C36.2684 66.9267 36.228 66.9568 36.2243 66.9597C36.2144 66.9673 36.2054 66.9711 36.2029 66.9722C36.1964 66.9749 36.1913 66.9763 36.1909 66.9764C36.1888 66.9769 36.1877 66.9771 36.1899 66.9767C36.1933 66.976 36.2164 66.9718 36.234 66.9659L36.2021 66.8711ZM46.517 43.5515L46.605 43.5988C46.699 43.4242 46.7533 43.2238 46.7533 43.0124H46.6533H46.5533C46.5533 43.1893 46.5078 43.3573 46.4289 43.5041L46.517 43.5515ZM46.6533 43.0124H46.7533C46.7533 42.3318 46.2074 41.7772 45.5264 41.7772V41.8772V41.9772C46.0952 41.9772 46.5533 42.4405 46.5533 43.0124H46.6533ZM45.5264 41.8772V41.7772H42.0262V41.8772V41.9772H45.5264V41.8772ZM42.0262 41.8772H41.9262V41.8839H42.0262H42.1262V41.8772H42.0262ZM42.0262 41.8839V41.7839C41.5949 41.7839 41.175 42.0174 40.9543 42.4257L41.0423 42.4732L41.1302 42.5208C41.315 42.179 41.6662 41.9839 42.0262 41.9839V41.8839ZM41.0423 42.4732L40.9544 42.4255L36.0581 51.4264L36.1459 51.4742L36.2338 51.522L41.1301 42.521L41.0423 42.4732ZM36.1459 51.4742L36.0591 51.4245C35.9503 51.6146 35.8928 51.8367 35.8964 52.0685L35.9963 52.0669L36.0963 52.0654C36.0933 51.8686 36.1421 51.6821 36.2327 51.5239L36.1459 51.4742ZM35.9963 52.0669L35.8964 52.0696C35.9144 52.7469 36.4749 53.2835 37.1492 53.2652L37.1465 53.1652L37.1438 53.0653C36.5814 53.0805 36.1115 52.6326 36.0963 52.0643L35.9963 52.0669ZM37.1465 53.1652L37.1495 53.2652L39.2603 53.2016L39.2573 53.1016L39.2543 53.0016L37.1435 53.0653L37.1465 53.1652ZM39.2573 53.1016L39.1618 53.0721L37.5031 58.4499L37.5986 58.4794L37.6942 58.5089L39.3529 53.1311L39.2573 53.1016ZM37.5986 58.4794V58.5794H37.6019V58.4794V58.3794H37.5986V58.4794ZM37.6019 58.4794L37.5063 58.4503C37.3725 58.8909 37.4916 59.39 37.8535 59.7218L37.921 59.6481L37.9886 59.5743C37.6857 59.2966 37.5854 58.8782 37.6976 58.5084L37.6019 58.4794ZM37.921 59.6481L37.8536 59.7219C38.3536 60.1781 39.1253 60.1377 39.5777 59.6346L39.5033 59.5677L39.429 59.5008C39.0503 59.9219 38.4059 59.9551 37.9885 59.5742L37.921 59.6481ZM39.5033 59.5677L39.5777 59.6345L48.4362 49.7694L48.3618 49.7026L48.2874 49.6358L39.4289 59.5009L39.5033 59.5677ZM48.3618 49.7026L48.434 49.7719C48.6479 49.549 48.7743 49.2463 48.7743 48.9157H48.6743H48.5743C48.5743 49.1946 48.468 49.4477 48.2897 49.6334L48.3618 49.7026ZM48.6743 48.9157L48.7743 48.9152C48.7707 48.2382 48.2249 47.6869 47.5469 47.6906L47.5475 47.7906L47.548 47.8906C48.1132 47.8875 48.5713 48.3475 48.5743 48.9162L48.6743 48.9157ZM47.5475 47.7906L47.5467 47.6906L44.4487 47.714L44.4495 47.814L44.4502 47.914L47.5482 47.8906L47.5475 47.7906ZM44.4495 47.814L44.5394 47.8577L46.6069 43.5951L46.517 43.5515L46.427 43.5078L44.3595 47.7704L44.4495 47.814ZM41.6405 48.4639L41.7306 48.5074L43.8148 44.191L43.7247 44.1475L43.6347 44.104L41.5505 48.4204L41.6405 48.4639ZM43.7247 44.1475V44.0475H42.6842V44.1475V44.2475H43.7247V44.1475ZM42.6842 44.1475L42.5964 44.0997L38.9498 50.8036L39.0377 50.8514L39.1255 50.8991L42.7721 44.1953L42.6842 44.1475ZM39.0377 50.8514L39.0407 50.9513L40.7161 50.9011L40.7131 50.8011L40.7101 50.7012L39.0347 50.7514L39.0377 50.8514ZM40.7131 50.8011L40.7204 50.9009C40.8434 50.8918 40.9676 50.9068 41.0937 50.9439L41.1219 50.848L41.1502 50.7521C41.0037 50.7089 40.8553 50.6904 40.7057 50.7014L40.7131 50.8011ZM41.1219 50.848L41.0922 50.9435C41.6309 51.1112 41.9344 51.6879 41.7676 52.2318L41.8632 52.2611L41.9588 52.2904C42.1576 51.6422 41.7964 50.9532 41.1516 50.7525L41.1219 50.848ZM41.8632 52.2611L41.7676 52.2317L41.1527 54.2308L41.2482 54.2602L41.3438 54.2896L41.9588 52.2905L41.8632 52.2611ZM41.2482 54.2602L41.3226 54.327L45.0855 50.1379L45.0111 50.0711L44.9367 50.0043L41.1738 54.1933L41.2482 54.2602ZM45.0111 50.0711L45.0104 49.9711L42.7466 49.9878L42.7474 50.0878L42.7481 50.1878L45.0118 50.1711L45.0111 50.0711ZM42.7474 50.0878L42.7389 49.9882C42.5597 50.0035 42.3721 49.9729 42.2001 49.8877L42.1557 49.9773L42.1113 50.067C42.3182 50.1694 42.5428 50.2057 42.7559 50.1875L42.7474 50.0878ZM42.1557 49.9773L42.2 49.8877C41.6943 49.6376 41.4818 49.0208 41.7305 48.5075L41.6405 48.4639L41.5505 48.4203C41.2541 49.032 41.5068 49.768 42.1114 50.067L42.1557 49.9773ZM63.7758 19.7027L63.6808 19.6713C63.6742 19.6914 63.6675 19.7115 63.6609 19.7316L63.7558 19.763L63.8507 19.7944C63.8574 19.7743 63.8641 19.7542 63.8707 19.7341L63.7758 19.7027ZM63.7558 19.763L63.6616 19.7294L62.1292 24.0189L62.2234 24.0525L62.3176 24.0862L63.85 19.7966L63.7558 19.763ZM62.2234 24.0525L62.2607 24.1453C67.0448 22.2243 70.0526 19.5964 71.2493 16.2506L71.1551 16.2169L71.0609 16.1832C69.8911 19.4541 66.9422 22.05 62.1861 23.9597L62.2234 24.0525ZM71.1551 16.2169L71.2492 16.2506C71.7532 14.8461 71.9404 13.3051 71.8233 11.6257L71.7235 11.6326L71.6238 11.6396C71.7393 13.2955 71.5543 14.8083 71.061 16.1831L71.1551 16.2169ZM71.7235 11.6326L71.6861 11.5399L65.766 13.9275L65.8034 14.0202L65.8408 14.1129L71.7609 11.7254L71.7235 11.6326ZM65.8034 14.0202L65.7092 13.9866L63.6816 19.6691L63.7758 19.7027L63.8699 19.7363L65.8976 14.0538L65.8034 14.0202ZM61.4855 19.4449L61.5734 19.3972L57.9268 12.6699L57.8389 12.7176L57.751 12.7652L61.3976 19.4925L61.4855 19.4449ZM57.8389 12.7176L57.7412 12.6965C57.0761 15.7791 57.8445 19.327 60.0247 23.3402L60.1126 23.2924L60.2005 23.2447C58.0328 19.2547 57.2854 15.7571 57.9367 12.7386L57.8389 12.7176ZM60.1126 23.2924L60.2068 23.326L61.5797 19.4785L61.4855 19.4449L61.3913 19.4113L60.0184 23.2588L60.1126 23.2924ZM58.896 9.95528L58.8081 10.0029L62.4114 16.6532L62.4993 16.6056L62.5872 16.5579L58.9839 9.90765L58.896 9.95528ZM62.4993 16.6056L62.5935 16.6392L63.9397 12.8687L63.8455 12.8351L63.7514 12.8015L62.4051 16.5719L62.4993 16.6056ZM63.8455 12.8351L63.9426 12.8592C63.9503 12.8282 63.9628 12.8005 63.9812 12.7561L63.8888 12.7179L63.7963 12.6797C63.7815 12.7156 63.7607 12.7616 63.7485 12.811L63.8455 12.8351ZM63.8888 12.7179L63.9829 12.7515L67.4234 3.11445L67.3292 3.08083L67.235 3.04721L63.7946 12.6843L63.8888 12.7179ZM67.3292 3.08083L67.2869 2.99021C63.1516 4.92034 60.3189 7.22233 58.8088 9.90625L58.896 9.95528L58.9831 10.0043C60.4649 7.3708 63.2563 5.09219 67.3715 3.17145L67.3292 3.08083ZM66.8206 11.1742L66.858 11.2669L71.422 9.42524L71.3845 9.3325L71.3471 9.23977L66.7832 11.0815L66.8206 11.1742ZM71.3845 9.3325L71.4822 9.31116C71.108 7.59779 70.4569 5.76216 69.5236 3.80452L69.4333 3.84756L69.343 3.8906C70.2712 5.83733 70.9165 7.65833 71.2869 9.35384L71.3845 9.3325ZM69.4333 3.84756L69.3391 3.81397L66.7264 11.1406L66.8206 11.1742L66.9148 11.2078L69.5275 3.88115L69.4333 3.84756ZM44.4828 20.4529L44.4275 20.3696L33.6441 27.5323L33.6994 27.6156L33.7548 27.6989L44.5382 20.5362L44.4828 20.4529ZM33.6994 27.6156L33.677 27.713C39.0312 28.9476 45.064 27.1932 51.7566 22.4803L51.699 22.3985L51.6414 22.3167C44.9721 27.0133 38.9981 28.7347 33.7219 27.5181L33.6994 27.6156ZM51.699 22.3985L51.725 22.3019L44.5089 20.3564L44.4828 20.4529L44.4568 20.5495L51.673 22.4951L51.699 22.3985ZM30.9908 26.7114L31.0462 26.7947L41.6398 19.756L41.5844 19.6727L41.5291 19.5895L30.9355 26.6281L30.9908 26.7114ZM41.5844 19.6727L41.6105 19.5762L32.9052 17.2255L32.8791 17.322L32.853 17.4186L41.5584 19.7693L41.5844 19.6727ZM32.8791 17.322L32.8297 17.2351L24.5627 21.9365L24.6122 22.0235L24.6616 22.1104L32.9285 17.409L32.8791 17.322ZM24.6122 22.0235L24.5395 22.0921C26.5645 24.2362 28.6989 25.8086 30.9504 26.8029L30.9908 26.7114L31.0312 26.62C28.8086 25.6385 26.6953 24.0835 24.6849 21.9548L24.6122 22.0235ZM42.1699 17.4858L42.2595 17.4413L36.5786 6.00924L36.4891 6.05374L36.3995 6.09824L42.0804 17.5303L42.1699 17.4858ZM36.4891 6.05374L36.5002 5.95436C34.0545 5.68137 31.4282 5.96824 28.6124 6.80508L28.6409 6.90093L28.6694 6.99679C31.4647 6.16604 34.0638 5.88364 36.478 6.15313L36.4891 6.05374ZM28.6409 6.90093L28.5546 6.95147L33.3812 15.1923L33.4675 15.1418L33.5538 15.0913L28.7272 6.85039L28.6409 6.90093ZM33.4675 15.1418L33.4415 15.2384L42.1439 17.5824L42.1699 17.4858L42.1959 17.3893L33.4935 15.0452L33.4675 15.1418ZM39.2813 6.62981L39.1918 6.6743L44.9724 18.3104L45.0619 18.2659L45.1515 18.2214L39.3709 6.58532L39.2813 6.62981ZM45.0619 18.2659L45.0358 18.3625L52.2524 20.3113L52.2785 20.2148L52.3046 20.1182L45.088 18.1694L45.0619 18.2659ZM52.2785 20.2148L52.3692 20.1727C48.9096 12.7195 44.5609 8.16029 39.3109 6.53428L39.2813 6.62981L39.2517 6.72533C44.4254 8.32768 48.7399 12.829 52.1878 20.2569L52.2785 20.2148ZM23.1062 20.2924L23.1557 20.3794L29.8404 16.5754L29.791 16.4885L29.7415 16.4015L23.0568 20.2055L23.1062 20.2924ZM29.791 16.4885L29.817 16.3919L18.7145 13.3949L18.6885 13.4915L18.6624 13.588L29.7649 16.585L29.791 16.4885ZM18.6885 13.4915L18.6003 13.5386C20.0054 16.165 21.4814 18.4374 23.0284 20.3552L23.1062 20.2924L23.1841 20.2297C21.6463 18.3233 20.177 16.0618 18.7766 13.4443L18.6885 13.4915ZM30.3694 14.3018L30.4556 14.2513L26.5532 7.59096L26.4669 7.64152L26.3807 7.69207L30.2831 14.3524L30.3694 14.3018ZM26.4669 7.64152L26.4311 7.54817C24.1404 8.42815 21.7348 9.65349 19.2143 11.2199L19.267 11.3048L19.3198 11.3898C21.8319 9.82864 24.2262 8.60947 26.5028 7.73487L26.4669 7.64152ZM19.267 11.3048L19.241 11.4014L30.3433 14.3984L30.3694 14.3018L30.3954 14.2053L19.2931 11.2083L19.267 11.3048Z" fill="#2BAAE1" mask="url(#path-1-inside-1_2_13791)"/>
</svg>
