<svg width="206" height="50" viewBox="0 0 206 50" fill="none" xmlns="http://www.w3.org/2000/svg">
<g clip-path="url(#clip0_2_14109)">
<path d="M23.7649 42.7676V39.1723C23.7649 35.2601 18.4288 31.369 14.5322 28.5261C13.6569 27.8874 12.8308 27.2866 12.1824 26.7664C11.0894 25.903 9.5377 26.0378 8.58051 27.017L4.99269 20.2595C4.651 19.6161 4.0823 19.1454 3.38951 18.9349C2.69912 18.722 1.96655 18.7977 1.32529 19.1454C0.176135 19.7794 -0.277895 21.1748 0.169125 22.7028L3.61653 34.3403C3.66333 34.4988 3.76163 34.6383 3.89504 34.7353L12.1122 40.7408V42.7655C11.7168 42.7845 11.3984 43.1085 11.3984 43.513V49.1944C11.3984 49.6107 11.7331 49.949 12.1451 49.949C12.5569 49.949 12.8916 49.6107 12.8916 49.1944V44.2675H22.9812V49.1944C22.9812 49.6107 23.3158 49.949 23.7277 49.949C24.1397 49.949 24.4744 49.6107 24.4744 49.1944V43.513C24.479 43.1109 24.1605 42.7865 23.7649 42.7676ZM13.6101 42.7605V40.3573C13.6101 40.3384 13.6007 40.3194 13.5984 40.3005C13.5937 40.2485 13.582 40.1988 13.568 40.1468C13.5539 40.1018 13.5422 40.0569 13.5211 40.0167C13.5001 39.9741 13.472 39.9386 13.4439 39.9008C13.4112 39.8606 13.3807 39.8227 13.341 39.7873C13.3269 39.773 13.3175 39.7565 13.3012 39.7447L4.98087 33.6659L1.60602 22.2767C1.51475 21.9621 1.27369 20.9001 2.04134 20.4791C2.32687 20.3253 2.6545 20.2922 2.96348 20.3868C3.27246 20.4814 3.52752 20.6895 3.67963 20.9781L7.81509 28.7693C7.76828 29.6327 8.117 30.5008 8.83316 31.0661L15.1852 36.1302C15.5082 36.388 15.9786 36.3336 16.2361 36.0048C16.4912 35.6784 16.4373 35.203 16.112 34.9428L9.75816 29.8763C9.50772 29.68 9.3486 29.3914 9.31347 29.0651C9.27605 28.7363 9.36498 28.4146 9.56153 28.1614C9.96879 27.6435 10.7505 27.5536 11.2653 27.9557C11.9348 28.4926 12.7749 29.1028 13.662 29.7534C17.093 32.2558 22.2746 36.0356 22.2746 39.1746V42.7628H13.6104L13.6101 42.7605ZM50.256 19.1477C49.6194 18.8024 48.8892 18.7291 48.1965 18.9395C47.5036 19.1501 46.935 19.6207 46.5932 20.2641L43.0171 27.029C42.5864 26.5819 42.0295 26.2886 41.4022 26.2129C40.6814 26.123 39.977 26.3264 39.4199 26.7735C38.781 27.2844 37.9619 27.8781 37.0959 28.5097C33.1828 31.3575 27.823 35.2557 27.823 39.177V42.7746C27.4345 42.8031 27.1278 43.12 27.1278 43.5197V49.2012C27.1278 49.6175 27.4626 49.9557 27.8745 49.9557C28.2864 49.9557 28.621 49.6175 28.621 49.2012V44.2743H38.692V49.2012C38.692 49.6175 39.0266 49.9557 39.4386 49.9557C39.8505 49.9557 40.1852 49.6175 40.1852 49.2012V43.5197C40.1852 43.1153 39.8693 42.7913 39.4714 42.7723V40.7476L47.6886 34.742C47.822 34.645 47.9203 34.5055 47.9671 34.347L51.4168 22.7072C51.8732 21.1437 51.4285 19.7817 50.256 19.1477ZM49.9845 22.2723L46.6097 33.6633L38.2894 39.7469C38.273 39.7588 38.266 39.7777 38.2496 39.7895C38.2098 39.8226 38.1794 39.8605 38.1466 39.903C38.1162 39.9409 38.0904 39.9764 38.0694 40.019C38.0483 40.0592 38.0342 40.1041 38.0225 40.149C38.0085 40.2011 37.9968 40.2484 37.9922 40.3028C37.9898 40.3217 37.9804 40.3383 37.9804 40.3596V42.7628L29.3187 42.7604V39.1722C29.3187 36.024 34.5237 32.2372 37.9691 29.7297C38.8491 29.0887 39.6799 28.4856 40.3493 27.9534C40.8548 27.5466 41.6248 27.6412 42.0296 28.1521C42.2309 28.4123 42.3199 28.734 42.2825 29.0627C42.245 29.3867 42.0882 29.6753 41.8331 29.8764L35.481 34.9405C35.158 35.1983 35.1018 35.6737 35.357 36.0025C35.6144 36.329 36.0825 36.3857 36.4078 36.1279L42.7575 31.0662C43.4666 30.5056 43.8154 29.6541 43.7779 28.8025L47.9157 20.9756C48.0678 20.6895 48.3205 20.4789 48.6318 20.3843C48.9431 20.2896 49.2708 20.3228 49.554 20.4765C50.3193 20.8952 50.0781 21.9601 49.9845 22.2723ZM41.4677 8.77591C41.5099 5.02455 39.9301 2.00381 37.2456 0.695885C35.4061 -0.200584 31.507 -0.995323 25.8032 3.48696C20.0903 -0.997625 16.1888 -0.200523 14.347 0.698246C11.6602 2.00865 10.0828 5.02909 10.1273 8.78066C10.1951 14.6419 14.2674 22.7433 25.4941 27.8993C25.5923 27.9443 25.6976 27.9679 25.803 27.9679C25.9083 27.9679 26.0136 27.9466 26.1119 27.8993C37.3338 22.7382 41.4024 14.6374 41.4677 8.77591ZM25.8031 26.3783C15.447 21.5105 11.6814 14.1045 11.6203 8.75896C11.5851 5.61075 12.8467 3.10354 14.9975 2.05587C15.7393 1.69398 16.5655 1.51422 17.4572 1.51422C19.7742 1.51422 22.5218 2.7229 25.333 5.03379C25.6091 5.26086 26.0023 5.25849 26.2761 5.03379C30.1612 1.83594 33.9248 0.750242 36.5975 2.0535C38.7483 3.10135 40.0098 5.60619 39.9747 8.75658C39.9139 14.1022 36.1522 21.51 25.8031 26.3783Z" fill="url(#paint0_linear_2_14109)"/>
<mask id="mask0_2_14109" style="mask-type:luminance" maskUnits="userSpaceOnUse" x="67" y="18" width="139" height="14">
<path d="M205.556 18.0168H67.9727V31.9389H205.556V18.0168Z" fill="white"/>
</mask>
<g mask="url(#mask0_2_14109)">
<path d="M76.2325 31.7173H67.9434V18.1907H76.2325V21.1175H71.7629V23.2532H75.9075V26.1801H71.7629V28.7113H76.2325V31.7173Z" fill="white"/>
<path d="M84.9115 31.7173H81.173V21.1966H77.7598V18.1907H88.3241V21.1966H84.9115V31.7173Z" fill="white"/>
<path d="M98.6351 31.7173H90.3457V18.1907H98.6351V21.1175H94.1653V23.2532H98.31V26.1801H94.1653V28.7113H98.6351V31.7173Z" fill="white"/>
<path d="M105.689 18.1907C106.99 18.1907 108.046 18.3489 108.859 18.6653C109.672 18.9817 110.322 19.3772 110.728 20.01C111.134 20.5637 111.378 21.3548 111.378 22.225C111.378 22.7787 111.297 23.2532 111.053 23.7279C110.89 24.2025 110.565 24.598 110.24 24.9144C109.915 25.2308 109.509 25.5473 109.021 25.8636L113.085 31.7173H108.859L105.933 26.8129H104.958V31.7173H101.22V18.1907H105.689ZM105.689 20.9593H104.958V24.0443H105.689C106.258 24.0443 106.746 23.8861 107.071 23.6488C107.478 23.4115 107.64 22.9369 107.64 22.304C107.64 21.8294 107.478 21.513 107.153 21.2757C106.828 21.0384 106.339 20.9593 105.689 20.9593Z" fill="white"/>
<path d="M127.67 31.7172H122.712L117.674 22.1457H117.593C117.593 22.4621 117.674 22.7785 117.674 23.174C117.674 23.5696 117.755 23.9651 117.755 24.4397C117.755 24.8352 117.755 25.2307 117.755 25.5472V31.6381H114.423V18.1115H119.299L124.338 27.5247H124.419C124.419 27.2083 124.419 26.8919 124.338 26.4964C124.338 26.1008 124.338 25.7054 124.256 25.3098C124.256 24.9143 124.256 24.5188 124.256 24.2815V18.1906H127.588V31.7172H127.67Z" fill="white"/>
<path d="M130.772 31.7173V18.1907H134.592V31.7173H130.772Z" fill="white"/>
<path d="M146.187 31.7172L145.536 29.1859H140.985L140.254 31.7172H136.109L140.66 18.1115H145.699L150.331 31.7172H146.187ZM144.724 26.2591L144.155 24.0442C144.074 23.8069 143.993 23.4905 143.911 23.0159C143.83 22.5412 143.667 22.0666 143.586 21.592C143.504 21.1174 143.342 20.7218 143.342 20.4055C143.261 20.7218 143.179 21.1174 143.098 21.592C143.017 22.0666 142.854 22.4621 142.773 22.9368C142.692 23.4113 142.53 23.7278 142.448 24.0442L141.88 26.2591H144.724Z" fill="white"/>
<path d="M163.235 21.0381C162.829 21.0381 162.423 21.1172 162.016 21.3545C161.691 21.5127 161.366 21.8291 161.122 22.1455C160.878 22.4619 160.716 22.9366 160.553 23.4111C160.391 23.8858 160.391 24.4395 160.391 25.0723C160.391 25.9424 160.472 26.6544 160.716 27.2081C160.96 27.7618 161.285 28.2365 161.691 28.5528C162.179 28.8693 162.748 29.0275 163.398 29.0275C164.047 29.0275 164.617 28.9484 165.186 28.7902C165.754 28.6319 166.323 28.3947 166.892 28.1573V31.2423C166.242 31.4797 165.673 31.717 165.023 31.7961C164.373 31.8752 163.723 31.9543 162.991 31.9543C161.447 31.9543 160.229 31.6379 159.253 31.0842C158.278 30.5304 157.628 29.6603 157.14 28.6319C156.652 27.6036 156.49 26.4171 156.49 24.9933C156.49 23.9649 156.652 23.0157 156.896 22.2247C157.222 21.3545 157.628 20.6426 158.197 20.0097C158.765 19.3769 159.497 18.9024 160.31 18.5859C161.122 18.2695 162.098 18.0322 163.154 18.0322C163.804 18.0322 164.536 18.1113 165.267 18.2695C165.998 18.4277 166.73 18.665 167.461 18.9814L166.323 21.8291C165.836 21.5918 165.267 21.3545 164.78 21.2754C164.373 21.1172 163.804 21.0381 163.235 21.0381Z" fill="white"/>
<path d="M178.334 31.7172L177.684 29.1859H173.133L172.402 31.7172H168.257L172.808 18.1115H177.846L182.479 31.7172H178.334ZM176.871 26.2591L176.302 24.0442C176.221 23.8069 176.14 23.4905 176.058 23.0159C175.977 22.5412 175.815 22.0666 175.733 21.592C175.652 21.1174 175.49 20.7218 175.49 20.4055C175.408 20.7218 175.327 21.1174 175.246 21.592C175.165 22.0666 175.002 22.4621 174.921 22.9368C174.84 23.4113 174.677 23.7278 174.595 24.0442L174.027 26.2591H176.871Z" fill="white"/>
<path d="M188.599 18.1907C189.899 18.1907 190.955 18.3489 191.769 18.6653C192.581 18.9817 193.231 19.3772 193.637 20.01C194.044 20.5637 194.288 21.3548 194.288 22.225C194.288 22.7787 194.207 23.2532 193.962 23.7279C193.8 24.2025 193.475 24.598 193.15 24.9144C192.825 25.2308 192.419 25.5473 191.931 25.8636L195.994 31.7173H191.769L188.842 26.8129H187.868V31.7173H184.129V18.1907H188.599ZM188.517 20.9593H187.786V24.0443H188.517C189.086 24.0443 189.574 23.8861 189.899 23.6488C190.306 23.4115 190.468 22.9369 190.468 22.304C190.468 21.8294 190.306 21.513 189.981 21.2757C189.656 21.0384 189.249 20.9593 188.517 20.9593Z" fill="white"/>
<path d="M205.54 31.7173H197.251V18.1907H205.54V21.1175H201.071V23.2532H205.215V26.1801H201.071V28.7113H205.54V31.7173Z" fill="white"/>
</g>
</g>
<defs>
<linearGradient id="paint0_linear_2_14109" x1="0.0469141" y1="24.9905" x2="51.6147" y2="24.9905" gradientUnits="userSpaceOnUse">
<stop stop-color="#71B844"/>
<stop offset="1" stop-color="#00A2D6"/>
</linearGradient>
<clipPath id="clip0_2_14109">
<rect width="205.556" height="49.9557" fill="white"/>
</clipPath>
</defs>
</svg>
