<svg width="85" height="80" viewBox="0 0 85 80" fill="none" xmlns="http://www.w3.org/2000/svg">
<path d="M35.7057 18.6669C35.1938 18.1563 34.4244 18.2419 33.9125 18.7526C33.4006 19.2632 33.4865 20.0308 33.9984 20.5415C39.5496 25.8227 42.5386 32.8933 42.5386 40.5624C42.5386 48.0609 39.5499 55.0455 34.1705 60.3269C33.6586 60.8376 33.6586 61.6052 34.1705 62.1159C34.4281 62.3729 34.7682 62.4552 35.1084 62.4552C35.4485 62.4552 35.792 62.3696 36.0463 62.1159C41.8551 56.4064 45.1013 48.7402 45.1013 40.5591C45.1013 32.2107 41.7686 24.4586 35.7057 18.6669Z" fill="#003946"/>
<path d="M29.9857 24.5446C29.4738 24.034 28.7044 24.034 28.1925 24.5446C27.6806 25.0553 27.6806 25.8229 28.1925 26.3336C32.0364 29.9972 34.1697 35.1067 34.1697 40.3916C34.1697 45.5871 32.119 50.5294 28.3642 54.1923C27.8523 54.703 27.8523 55.4706 28.3642 55.9813C28.6218 56.2382 28.9619 56.3206 29.3021 56.3206C29.6422 56.3206 29.9857 56.2349 30.24 55.9813C34.424 51.807 36.7291 46.2685 36.7291 40.3056C36.815 34.5104 34.3382 28.7195 29.9857 24.5446Z" fill="#003946"/>
<path d="M40.1469 66.3719C39.635 66.8826 39.635 67.6502 40.1469 68.1609C40.4045 68.4179 40.7446 68.5859 41.0848 68.5859C41.4249 68.5859 41.7684 68.5002 41.9401 68.2465C49.4562 60.9194 53.6404 51.1211 53.6404 40.559C53.6404 29.8249 49.3705 19.9419 41.6002 12.5325C41.0884 12.0218 40.3189 12.1075 39.807 12.6181C39.2952 13.1288 39.381 13.8964 39.8929 14.4071C47.1514 21.3092 51.0775 30.593 51.0775 40.563C50.9917 50.3575 47.1478 59.5591 40.1465 66.373L40.1469 66.3719Z" fill="#003946"/>
<path d="M81.9915 0.859689C81.7339 0.60271 81.3079 0.520351 80.9678 0.520351L74.5645 1.37363C74.4754 1.20232 74.3895 1.03099 74.2178 0.859672C73.9602 0.602693 73.5342 0.520334 73.1941 0.520334L66.7909 1.37361C66.705 1.11663 66.6191 0.94861 66.4507 0.777296C66.1931 0.520317 65.7671 0.437958 65.427 0.437958L40.5739 4.01259C39.9762 4.09824 39.4644 4.69456 39.4644 5.29086V9.89007C39.4644 10.572 40.0621 11.1683 40.7456 11.1683C41.4292 11.1683 42.0269 10.572 42.0269 9.89007V6.39784L64.3142 3.24491V76.0844L42.0269 73.0172V71.1426C42.0269 70.4606 41.4292 69.8643 40.7456 69.8643C40.0621 69.8676 39.4644 70.4639 39.4644 71.1459V74.1275C39.4644 74.7238 39.9762 75.3201 40.5739 75.4058L65.4245 78.898H65.5962C65.9363 78.898 66.1939 78.8123 66.4515 78.5586C66.6232 78.3873 66.7916 78.2193 66.7916 77.9623L73.1949 78.898H73.3666C73.7067 78.898 73.9643 78.8123 74.2219 78.5587C74.3936 78.3874 74.562 78.2193 74.562 77.9623L80.9653 78.898H81.137C81.4771 78.898 81.7347 78.8124 81.9923 78.5587C82.2498 78.3017 82.4183 77.9624 82.4183 77.623V1.80202C82.4183 1.45609 82.2457 1.11668 81.9915 0.859689ZM72.0842 76.1704L66.8764 75.4028V4.01223L72.0842 3.33025V76.1704ZM79.8546 76.1704L74.6468 75.4028V4.01223L79.8546 3.33025V76.1704Z" fill="#003946"/>
<path d="M23.4111 26.5047C23.2393 26.5047 23.0709 26.5047 22.8992 26.5904L10.9444 32.2142L3.51078 32.2109C2.8272 32.2109 2.22949 32.8072 2.22949 33.4892V47.6332C2.22949 48.3152 2.82722 48.9115 3.51078 48.9115H10.9411L22.8959 53.939C23.0676 54.0246 23.236 54.0246 23.4078 54.0246C24.6891 54.0246 25.541 54.0246 25.541 40.2239C25.6302 26.505 24.6891 26.5047 23.4111 26.5047ZM22.6416 51.0395L11.7106 46.4403C11.5389 46.3547 11.3704 46.3547 11.1987 46.3547H4.79219V34.7679H11.1954C11.3671 34.7679 11.5356 34.7679 11.7073 34.6822L22.5521 29.569C23.1531 33.6609 23.1535 46.9507 22.6416 51.0395Z" fill="#003946"/>
</svg>
