<svg width="85" height="80" viewBox="0 0 85 80" fill="none" xmlns="http://www.w3.org/2000/svg">
<path d="M79.1977 75.1027C79.1919 75.0631 79.1994 75.0243 79.187 74.9847L78.0395 71.1464V0.824742C78.0395 0.369485 77.67 0 77.2128 0H6.18136C5.72503 0 5.35468 0.369485 5.35468 0.824742V71.1456L4.20723 74.9847C4.19483 75.0252 4.20227 75.0647 4.19649 75.1052C4.1907 75.1439 4.17334 75.1794 4.17334 75.2206V79.1753C4.17334 79.6313 4.5437 80 5.00003 80H78.3958C78.853 80 79.2225 79.6313 79.2225 79.1753V75.2206C79.2225 75.1786 79.2043 75.1423 79.1977 75.1027ZM6.79807 72.0907H39.5068H43.8874H76.5978L77.2864 74.3959H6.10861L6.79807 72.0907ZM5.82589 76.0454H77.5683V78.3505H5.82589V76.0454ZM76.387 70.4412H43.8866H42.5242V44.2771H43.8213V67.652C43.8213 68.108 44.1908 68.4767 44.648 68.4767H73.5903C74.0474 68.4767 74.417 68.108 74.417 67.652V4.43959C74.417 3.98433 74.0474 3.61485 73.5903 3.61485H44.6463C44.1891 3.61485 43.8196 3.98433 43.8196 4.43959C43.8196 4.44206 43.8213 4.44454 43.8213 4.44783V36.0627H42.5242V1.64948H76.387V70.4412ZM10.6314 66.8264V5.26433H37.9204V66.8272L10.6314 66.8264ZM39.5737 37.7122H40.8708V42.6276H39.5737V37.7122ZM42.5242 37.7122H43.8213V42.6276H42.5242V37.7122ZM72.7636 5.26433V66.8272H45.4746V5.26433H72.7636ZM7.00805 1.64948H40.8708V36.0627H39.5737V4.43959C39.5737 3.98433 39.2034 3.61485 38.7471 3.61485H9.80556C9.34923 3.61485 8.97887 3.98433 8.97887 4.43959V67.652C8.97887 68.108 9.34923 68.4767 9.80556 68.4767H38.7487C39.205 68.4767 39.5754 68.108 39.5754 67.652C39.5754 67.6503 39.5746 67.6495 39.5746 67.6478V44.2771H40.8708V70.4412H39.5068H7.00805V1.64948Z" fill="#003946"/>
<path d="M23.1845 17.7823C22.9415 17.6825 22.6637 17.7056 22.438 17.8441C22.0586 18.0775 18.7022 20.1806 17.9599 21.9884C17.5721 22.9344 17.4928 23.9489 17.7358 24.8454C17.9962 25.8078 18.622 26.5542 19.4504 26.8915C19.7778 27.0251 20.125 27.0928 20.4837 27.0928C21.909 27.0928 23.3052 26.0256 23.9575 24.4355C24.6982 22.6268 23.7822 18.781 23.6748 18.3489C23.6111 18.0924 23.4292 17.8821 23.1845 17.7823ZM22.4265 23.8111C21.9569 24.9559 20.8756 25.6891 20.0754 25.3649C19.6 25.1711 19.4049 24.687 19.3322 24.4157C19.185 23.8746 19.2429 23.2173 19.4901 22.6136C19.8017 21.854 21.1393 20.7357 22.314 19.906C22.5686 21.3188 22.7373 23.0507 22.4265 23.8111Z" fill="#003946"/>
<path d="M62.3293 19.1711C62.6558 19.3039 63.0014 19.3707 63.3593 19.3707C64.7854 19.3707 66.1816 18.3035 66.8339 16.715C67.5754 14.9088 66.6603 11.0606 66.5528 10.6276C66.49 10.3719 66.3073 10.1616 66.0626 10.061C65.8187 9.96119 65.541 9.98428 65.3161 10.1228C64.9358 10.3571 61.5803 12.4626 60.8388 14.2672C60.4511 15.2115 60.3717 16.2259 60.6147 17.1232C60.876 18.0865 61.5001 18.8329 62.3293 19.1711ZM62.369 14.8931C62.6815 14.1352 64.019 13.016 65.1938 12.1855C65.4484 13.5975 65.6162 15.3294 65.3037 16.0898C64.835 17.2338 63.7413 17.9628 62.9543 17.6437C62.4797 17.4507 62.2846 16.9649 62.2119 16.6936C62.0647 16.1517 62.1218 15.4952 62.369 14.8931Z" fill="#003946"/>
<path d="M51.3252 40.5295C51.6526 40.664 52.0023 40.7324 52.3619 40.7324C53.7871 40.7324 55.1817 39.6644 55.834 38.0743C56.5747 36.264 55.6587 32.4182 55.5513 31.9852C55.4884 31.7287 55.3057 31.5192 55.0619 31.4186C54.8163 31.3188 54.5394 31.3419 54.3145 31.4805C53.9351 31.7147 50.5804 33.8178 49.838 35.6265C49.3792 36.744 49.3544 37.9514 49.7694 38.9378C50.0827 39.6842 50.6366 40.2491 51.3252 40.5295ZM51.3682 36.2524C51.6799 35.492 53.0166 34.3737 54.1905 33.544C54.446 34.9568 54.6146 36.6904 54.303 37.4508C53.8342 38.5955 52.7579 39.3361 51.951 39.0038C51.5898 38.857 51.3938 38.5403 51.293 38.3003C51.0499 37.7229 51.0789 36.9576 51.3682 36.2524Z" fill="#003946"/>
<path d="M21.5812 52.5551C21.3365 52.4553 21.0604 52.4775 20.8347 52.6161C20.4545 52.8495 17.0965 54.9518 16.3566 56.7588C15.8978 57.8771 15.873 59.0845 16.288 60.0718C16.6021 60.8173 17.1552 61.3831 17.8454 61.6635C18.1728 61.7971 18.52 61.8639 18.8788 61.8639C20.3057 61.8639 21.7011 60.7967 22.3509 59.2074C23.0924 57.3988 22.1781 53.5538 22.0715 53.1208C22.007 52.866 21.8251 52.6549 21.5812 52.5551ZM20.8199 58.5831C20.352 59.7278 19.269 60.4627 18.4696 60.1361C18.1083 59.9893 17.9132 59.6726 17.8124 59.4326C17.5693 58.8553 17.5966 58.0891 17.8868 57.3831C18.1976 56.6243 19.536 55.5068 20.7107 54.6771C20.9645 56.0891 21.1323 57.8202 20.8199 58.5831Z" fill="#003946"/>
<path d="M51.3267 25.2858C51.6541 25.4194 52.0005 25.4862 52.3593 25.4862C53.7845 25.4862 55.1791 24.419 55.8322 22.8297C56.5729 21.021 55.6586 17.1761 55.5519 16.7431C55.4891 16.4866 55.3072 16.2771 55.0625 16.1765C54.8178 16.0759 54.5392 16.0998 54.316 16.2375C53.9349 16.4718 50.5777 18.5749 49.8379 20.3794C49.007 22.4099 49.6742 24.6103 51.3267 25.2858ZM51.3689 21.0054C51.6789 20.2483 53.0165 19.1307 54.192 18.3002C54.4466 19.7122 54.6145 21.4441 54.302 22.2054C53.8332 23.3493 52.7445 24.08 51.9534 23.7592C51.1581 23.4342 50.8902 22.1732 51.3689 21.0054Z" fill="#003946"/>
<path d="M33.575 24.2763C33.3311 24.1756 33.0542 24.1987 32.8277 24.3373C32.4474 24.5715 29.0902 26.6763 28.3495 28.4816C27.5162 30.5113 28.1842 32.7117 29.8384 33.3872C30.1657 33.5208 30.5121 33.5876 30.8709 33.5876C32.2969 33.5876 33.6932 32.5196 34.3446 30.9303C35.0862 29.1225 34.171 25.275 34.0644 24.842C34.0007 24.5864 33.8189 24.3761 33.575 24.2763ZM32.8144 30.306C32.3457 31.4499 31.257 32.1822 30.465 31.8606C29.6689 31.5348 29.4011 30.2738 29.8805 29.106C30.1914 28.348 31.5289 27.2297 32.7045 26.3992C32.9583 27.8136 33.1261 29.5464 32.8144 30.306Z" fill="#003946"/>
<path d="M17.9832 47.3369C19.4109 47.3369 20.8071 46.2681 21.4577 44.6788C22.1993 42.8718 21.2841 39.0252 21.1775 38.5922C21.1138 38.3365 20.932 38.1262 20.6881 38.0264C20.4434 37.9258 20.1665 37.9497 19.9408 38.0875C19.5605 38.3209 16.2033 40.4248 15.4626 42.2343C14.6326 44.2598 15.3006 46.4594 16.9548 47.1373C17.2797 47.2701 17.626 47.3369 17.9832 47.3369ZM16.9928 42.8594C17.3036 42.099 18.642 40.9806 19.8168 40.1501C20.0714 41.5629 20.2392 43.2949 19.9275 44.0553C19.534 45.0161 18.7346 45.6875 17.9832 45.6875C17.8402 45.6875 17.7038 45.6611 17.5798 45.6108C16.7837 45.285 16.5158 44.0248 16.9928 42.8594Z" fill="#003946"/>
<path d="M62.3282 50.9972C62.6547 51.1299 63.0011 51.1976 63.3599 51.1976C64.7851 51.1976 66.1814 50.1303 66.8345 48.5419C67.5752 46.7349 66.66 42.8875 66.5526 42.4536C66.4897 42.1972 66.3079 41.9877 66.0632 41.887C65.8176 41.7881 65.5399 41.8095 65.3158 41.9489C64.9356 42.1823 61.5792 44.2887 60.8393 46.0932C60.3797 47.2099 60.3541 48.4149 60.7682 49.4013C61.0824 50.1493 61.6363 50.7151 62.3282 50.9972ZM62.3695 46.72C62.6804 45.9613 64.0179 44.8429 65.1927 44.0124C65.4481 45.4252 65.6159 47.1572 65.3051 47.9159C64.8347 49.0598 63.7484 49.7914 62.9532 49.4697C62.5911 49.3221 62.3943 49.0046 62.2935 48.7646C62.0513 48.1889 62.0794 47.4244 62.3695 46.72Z" fill="#003946"/>
<path d="M33.5761 43.2297C33.3322 43.1307 33.0545 43.153 32.8288 43.2907C32.4485 43.525 29.0905 45.6297 28.3506 47.4334C27.519 49.4631 28.1861 51.6627 29.8386 52.3373C30.166 52.4718 30.5132 52.5394 30.872 52.5394C32.2964 52.5394 33.6918 51.4722 34.3449 49.8821C35.0856 48.0742 34.1721 44.2285 34.0655 43.7946C34.0018 43.5406 33.8208 43.3295 33.5761 43.2297ZM32.8147 49.2594C32.3452 50.4033 31.2638 51.1398 30.4653 50.8124C29.67 50.4874 29.4022 49.2264 29.88 48.0594C30.1908 47.3014 31.5292 46.1839 32.7039 45.3542C32.9586 46.7662 33.1264 48.499 32.8147 49.2594Z" fill="#003946"/>
<path d="M51.3252 57.5868C51.6526 57.7212 52.0023 57.7897 52.3619 57.7897C53.7871 57.7897 55.1817 56.7216 55.834 55.1315C56.5747 53.3212 55.6587 49.4755 55.5513 49.0425C55.4884 48.786 55.3057 48.5765 55.0619 48.4759C54.8163 48.3761 54.5394 48.3983 54.3145 48.5377C53.9351 48.7711 50.5804 50.8742 49.838 52.6829C49.3792 53.8004 49.3544 55.0078 49.7694 55.9942C50.0827 56.7414 50.6366 57.3064 51.3252 57.5868ZM51.3682 53.3097C51.6799 52.5493 53.0166 51.4309 54.1905 50.6012C54.446 52.0148 54.6146 53.7476 54.303 54.508C53.8342 55.652 52.7579 56.3909 51.951 56.061C51.5898 55.9142 51.3938 55.5967 51.293 55.3575C51.0499 54.7802 51.0789 54.0148 51.3682 53.3097Z" fill="#003946"/>
<path d="M62.3256 34.6145C62.653 34.7489 63.0026 34.8174 63.3623 34.8174C64.7875 34.8174 66.1821 33.7493 66.8343 32.1592C67.5751 30.3489 66.6591 26.5023 66.5516 26.0702C66.4888 25.8137 66.3061 25.6042 66.0622 25.5036C65.8167 25.4029 65.5398 25.426 65.3149 25.5654C64.9354 25.7996 61.5807 27.9027 60.8392 29.7106C60.3796 30.8281 60.3539 32.0355 60.7689 33.0219C61.0831 33.7683 61.6361 34.3341 62.3256 34.6145ZM62.3694 30.3366C62.6811 29.5761 64.0178 28.4578 65.1917 27.6281C65.4472 29.0417 65.6158 30.7745 65.3041 31.5357C64.8354 32.6805 63.7574 33.4211 62.9522 33.0887C62.591 32.9419 62.395 32.6244 62.2942 32.3844C62.0511 31.8071 62.0792 31.0417 62.3694 30.3366Z" fill="#003946"/>
</svg>
