<svg width="85" height="80" viewBox="0 0 85 80" fill="none" xmlns="http://www.w3.org/2000/svg">
<path d="M21.749 17.8311C26.371 5.577 41.5701 1.10245 52.126 8.98535C55.2719 11.3342 57.6917 14.5955 58.9902 18.377L59 18.4043L59.0273 18.4102C67.3344 20.0954 73.2196 27.6691 72.6475 36.2188L72.6436 36.2715H79.418C80.4522 36.2717 81.222 37.4005 80.5703 38.4365L80.5693 38.4375L73.4287 50.7529L73.3848 50.8281H81.5547C82.7835 50.8281 83.4847 52.3529 82.4443 53.2822L82.4434 53.2842L59.1738 75.5566C58.0821 76.6047 56.3303 75.375 56.9385 74.0029L56.9697 73.9326H56.9668L63.7734 58.5742L63.8047 58.5039H55.8291C54.8632 58.5037 54.0998 57.5139 54.5928 56.4775L54.5938 56.4766L56.4668 52.1299L56.498 52.0566L56.418 52.0605C56.1405 52.0739 55.8698 52.0801 55.6025 52.0801H13.0195C4.28527 52.0801 -0.224163 41.6142 5.81445 35.3203C7.18339 33.8944 8.97677 32.8711 10.9932 32.459L11.0371 32.4492L11.0322 32.4053C10.3703 25.5201 15.0272 19.2963 21.7129 17.8623L21.7402 17.8564L21.749 17.8311ZM65.1182 39.0771L57.9678 55.6611L57.9385 55.7314H65.8857V55.7344H65.9365C66.9181 55.7346 67.6165 56.7576 67.209 57.6787L62.4277 68.4707L62.5078 68.5273L78.0098 53.6895L78.0996 53.6035H71.0264V53.5996H70.9766C69.9204 53.5996 69.2343 52.4554 69.7744 51.5244L76.9648 39.1221L77.0088 39.0469H65.1318L65.1182 39.0771ZM11.4902 57.1309C11.8334 57.0896 12.1853 57.1911 12.4736 57.3877C12.7618 57.5843 12.9836 57.8742 13.0693 58.207C13.1547 58.5386 13.1062 58.9163 12.8477 59.293L8.34473 65.8271C8.08581 66.2057 7.74904 66.3883 7.40723 66.4297C7.0641 66.4712 6.71179 66.3702 6.42285 66.1738C6.13393 65.9774 5.91124 65.6875 5.8252 65.3545C5.73953 65.0227 5.78816 64.6442 6.04785 64.2666L10.5508 57.7334C10.8114 57.3548 11.1484 57.172 11.4902 57.1309ZM23.2783 57.1309C23.6214 57.0897 23.9735 57.1912 24.2617 57.3877C24.5498 57.5843 24.7718 57.8743 24.8574 58.207C24.9427 58.5386 24.8935 58.9162 24.6348 59.293L20.1318 65.8271C19.8721 66.2056 19.5353 66.3883 19.1934 66.4297C18.8501 66.4712 18.4977 66.3702 18.209 66.1738C17.9204 65.9774 17.6981 65.6875 17.6123 65.3545C17.5269 65.0227 17.5762 64.6442 17.8359 64.2666L22.3379 57.7334C22.5985 57.3548 22.9364 57.172 23.2783 57.1309ZM35.0615 57.1309C35.4046 57.0897 35.7567 57.1911 36.0449 57.3877C36.3331 57.5843 36.555 57.8742 36.6406 58.207C36.726 58.5386 36.6767 58.9162 36.418 59.293L31.915 65.8271C31.6553 66.2055 31.3185 66.3883 30.9766 66.4297C30.6333 66.4712 30.2808 66.3702 29.9922 66.1738C29.7036 65.9774 29.4813 65.6874 29.3955 65.3545C29.3101 65.0228 29.3595 64.6442 29.6191 64.2666L34.1221 57.7334C34.3827 57.3549 34.7197 57.172 35.0615 57.1309ZM46.8457 57.1309C47.1888 57.0897 47.5409 57.1911 47.8291 57.3877C48.1172 57.5843 48.3391 57.8742 48.4248 58.207C48.5102 58.5386 48.4609 58.9162 48.2021 59.293L43.6992 65.8271C43.4395 66.2054 43.1033 66.3883 42.7617 66.4297C42.4187 66.4712 42.0668 66.3702 41.7783 66.1738C41.4898 65.9774 41.2676 65.6876 41.1816 65.3545C41.0961 65.0227 41.1444 64.6443 41.4033 64.2666L45.9062 57.7334C46.1668 57.3549 46.5039 57.172 46.8457 57.1309ZM50.4648 11.1963C41.8767 4.78425 29.4959 7.84976 24.9023 17.5215L24.8691 17.5908L24.9463 17.5928C30.0178 17.7325 34.5481 20.6675 36.7646 25.1436C36.9682 25.5546 36.9633 25.9364 36.832 26.2529C36.7003 26.5707 36.4391 26.8266 36.126 26.9805C35.813 27.1341 35.4506 27.1846 35.1172 27.0957C34.7848 27.007 34.477 26.7783 34.2734 26.3682C30.8518 19.4659 21.4203 18.2511 16.3779 24.083C14.1969 26.6033 13.2867 30.0437 13.9912 33.3662L14.3271 34.9541C13.0832 35.0094 11.9743 35.0505 10.9268 35.335C9.86009 35.6246 8.85807 36.1671 7.83691 37.2324C3.4947 41.7571 6.72216 49.3115 13.0303 49.3115H55.6162L57.7305 49.1611L57.7607 49.1582L57.7725 49.1309L62.9502 37.1191C63.1735 36.594 63.6882 36.2773 64.2295 36.2773H64.2793V36.2734L69.8057 36.2705V36.2266L69.8545 36.2344V36.2314L69.8672 36.1709H69.8594C70.4339 28.6826 65.1021 22.0862 57.7305 20.9932L56.8486 20.8633C55.6556 16.7967 53.9226 13.7791 50.4648 11.1963Z" fill="#003946" stroke="#E6F4FA" stroke-width="0.1"/>
</svg>
