<svg width="229" height="50" viewBox="0 0 229 50" fill="none" xmlns="http://www.w3.org/2000/svg">
<g clip-path="url(#clip0_2_14078)">
<path d="M70.4259 31.2026C69.6135 31.2026 68.8509 31.1275 68.1384 30.9776C67.4259 30.84 66.7947 30.6088 66.2447 30.2838C65.7072 29.9588 65.2822 29.5338 64.9697 29.0088C64.6572 28.4713 64.501 27.8151 64.501 27.0401C64.501 26.9901 64.501 26.9338 64.501 26.8713C64.501 26.8088 64.5072 26.7588 64.5197 26.7213H67.7634C67.7634 26.7588 67.7572 26.8088 67.7447 26.8713C67.7447 26.9213 67.7447 26.965 67.7447 27.0025C67.7447 27.4026 67.8446 27.7276 68.0447 27.9776C68.2572 28.215 68.5509 28.3901 68.9259 28.5025C69.3009 28.6025 69.7384 28.6525 70.2384 28.6525C70.5134 28.6525 70.7697 28.64 71.0072 28.6151C71.2447 28.5901 71.4572 28.5463 71.6447 28.4838C71.8322 28.4213 71.9947 28.3463 72.1322 28.2588C72.2822 28.1588 72.3884 28.0463 72.4509 27.9213C72.5259 27.7838 72.5635 27.6276 72.5635 27.4526C72.5635 27.1651 72.4509 26.9276 72.2259 26.7401C72.0134 26.5526 71.7197 26.3963 71.3447 26.2713C70.9821 26.1463 70.5697 26.0275 70.1072 25.9151C69.6447 25.8026 69.1634 25.6838 68.6634 25.5588C68.1635 25.4338 67.6822 25.2775 67.2197 25.09C66.7572 24.9025 66.3385 24.665 65.9635 24.3775C65.6009 24.0901 65.3072 23.7338 65.0822 23.3088C64.8697 22.8714 64.7634 22.3463 64.7634 21.7338C64.7634 21.0588 64.9072 20.4776 65.1947 19.9901C65.4822 19.4901 65.8759 19.0838 66.376 18.7713C66.8885 18.4588 67.4759 18.2339 68.1384 18.0964C68.8009 17.9463 69.5072 17.8713 70.2572 17.8713C70.9947 17.8713 71.6821 17.9463 72.3197 18.0964C72.9697 18.2463 73.5447 18.4838 74.0447 18.8088C74.5446 19.1214 74.9322 19.5213 75.2072 20.0088C75.4947 20.4839 75.6447 21.0588 75.6572 21.7338V21.9588H72.4322V21.8276C72.4322 21.5401 72.3509 21.29 72.1885 21.0776C72.0384 20.8526 71.8072 20.6775 71.4947 20.5526C71.1822 20.4151 70.7946 20.3463 70.3322 20.3463C69.8697 20.3463 69.476 20.3901 69.1509 20.4776C68.8384 20.5651 68.5946 20.6901 68.4197 20.8526C68.2572 21.015 68.1759 21.2088 68.1759 21.4338C68.1759 21.7088 68.2822 21.9339 68.4947 22.1088C68.7197 22.2838 69.0197 22.4338 69.3947 22.5588C69.7697 22.6839 70.1884 22.8026 70.6509 22.9151C71.1135 23.0151 71.5884 23.1276 72.0759 23.2525C72.5759 23.3651 73.0572 23.5151 73.5197 23.7026C73.9821 23.8776 74.4009 24.1088 74.7759 24.3963C75.1509 24.6713 75.4447 25.0151 75.6572 25.4276C75.8822 25.84 75.9946 26.3401 75.9946 26.9276C75.9946 27.9525 75.751 28.7776 75.2634 29.4025C74.7884 30.0276 74.1259 30.4838 73.2759 30.7713C72.4384 31.0588 71.4885 31.2026 70.4259 31.2026ZM84.0809 31.2026C82.8434 31.2026 81.7746 31.0088 80.8746 30.6213C79.9871 30.2338 79.3059 29.6526 78.8309 28.8775C78.3559 28.1026 78.1184 27.14 78.1184 25.9901V18.0964H81.4934V25.9151C81.4934 26.7401 81.7121 27.39 82.1496 27.8651C82.5872 28.3401 83.2309 28.5776 84.0809 28.5776C84.9309 28.5776 85.5809 28.3401 86.0309 27.8651C86.4805 27.39 86.706 26.7401 86.706 25.9151V18.0964H90.0618V25.9901C90.0618 27.14 89.8243 28.1026 89.3494 28.8775C88.8744 29.6526 88.1937 30.2338 87.3057 30.6213C86.4185 31.0088 85.3434 31.2026 84.0809 31.2026ZM98.1848 31.2026C97.3725 31.2026 96.6093 31.1275 95.8968 30.9776C95.1843 30.84 94.5536 30.6088 94.0037 30.2838C93.4659 29.9588 93.0408 29.5338 92.7285 29.0088C92.4161 28.4713 92.2595 27.8151 92.2595 27.0401C92.2595 26.9901 92.2595 26.9338 92.2595 26.8713C92.2595 26.8088 92.2655 26.7588 92.2784 26.7213H95.5225C95.5225 26.7588 95.5156 26.8088 95.5035 26.8713C95.5035 26.9213 95.5035 26.965 95.5035 27.0025C95.5035 27.4026 95.6034 27.7276 95.803 27.9776C96.0155 28.215 96.3098 28.3901 96.685 28.5025C97.0593 28.6025 97.4973 28.6525 97.9972 28.6525C98.2726 28.6525 98.5281 28.64 98.7656 28.6151C99.0031 28.5901 99.2157 28.5463 99.4033 28.4838C99.5908 28.4213 99.7535 28.3463 99.8912 28.2588C100.041 28.1588 100.148 28.0463 100.21 27.9213C100.284 27.7838 100.322 27.6276 100.322 27.4526C100.322 27.1651 100.21 26.9276 99.9849 26.7401C99.7724 26.5526 99.4781 26.3963 99.1038 26.2713C98.7407 26.1463 98.3285 26.0275 97.8656 25.9151C97.4035 25.8026 96.9225 25.6838 96.4225 25.5588C95.9217 25.4338 95.4407 25.2775 94.9786 25.09C94.5157 24.9025 94.0975 24.665 93.7223 24.3775C93.3601 24.0901 93.0658 23.7338 92.8412 23.3088C92.6287 22.8714 92.522 22.3463 92.522 21.7338C92.522 21.0588 92.6657 20.4776 92.9531 19.9901C93.2413 19.4901 93.6346 19.0838 94.1345 18.7713C94.6474 18.4588 95.2351 18.2339 95.8968 18.0964C96.5594 17.9463 97.2658 17.8713 98.0162 17.8713C98.7536 17.8713 99.4411 17.9463 100.079 18.0964C100.728 18.2463 101.303 18.4838 101.803 18.8088C102.303 19.1214 102.691 19.5213 102.966 20.0088C103.253 20.4839 103.404 21.0588 103.416 21.7338V21.9588H100.191V21.8276C100.191 21.5401 100.11 21.29 99.9471 21.0776C99.7974 20.8526 99.5659 20.6775 99.2535 20.5526C98.9412 20.4151 98.5531 20.3463 98.091 20.3463C97.6281 20.3463 97.2348 20.3901 96.9096 20.4776C96.5972 20.5651 96.3537 20.6901 96.1782 20.8526C96.0155 21.015 95.9346 21.2088 95.9346 21.4338C95.9346 21.7088 96.0405 21.9339 96.253 22.1088C96.4785 22.2838 96.7788 22.4338 97.1531 22.5588C97.5283 22.6839 97.9473 22.8026 98.4094 22.9151C98.8723 23.0151 99.3473 23.1276 99.8344 23.2525C100.334 23.3651 100.816 23.5151 101.278 23.7026C101.741 23.8776 102.159 24.1088 102.535 24.3963C102.91 24.6713 103.203 25.0151 103.416 25.4276C103.641 25.84 103.753 26.3401 103.753 26.9276C103.753 27.9525 103.509 28.7776 103.022 29.4025C102.547 30.0276 101.885 30.4838 101.035 30.7713C100.197 31.0588 99.2475 31.2026 98.1848 31.2026ZM109.14 30.9776V20.8526H104.959V18.0964H116.677V20.8526H112.496V30.9776H109.14ZM115.773 30.9776L120.611 18.0964H124.641L129.479 30.9776H125.898L125.129 28.7463H119.991L119.223 30.9776H115.773ZM120.797 26.2338H124.304L123.385 23.5151C123.335 23.3776 123.273 23.2088 123.198 23.0088C123.135 22.7963 123.067 22.5776 122.992 22.3526C122.929 22.1151 122.867 21.8776 122.804 21.6401C122.741 21.4026 122.679 21.1963 122.617 21.0213H122.486C122.435 21.2588 122.36 21.5275 122.26 21.8276C122.173 22.1276 122.079 22.4276 121.979 22.7276C121.891 23.0275 121.81 23.2901 121.735 23.5151L120.797 26.2338ZM131.018 30.9776V18.0964H134.374V30.9776H131.018ZM137.189 30.9776V18.0964H140.17L144.857 24.0776C144.945 24.1776 145.058 24.3213 145.195 24.5088C145.345 24.6963 145.489 24.8901 145.627 25.09C145.764 25.2775 145.864 25.4276 145.926 25.5401L146.02 25.5213C146.02 25.2463 146.02 24.9838 146.02 24.7338C146.02 24.4713 146.02 24.2526 146.02 24.0776V18.0964H149.132V30.9776H146.171L141.201 24.6776C141.039 24.4775 140.883 24.2713 140.732 24.0588C140.596 23.8463 140.483 23.6713 140.395 23.5338L140.301 23.5526C140.301 23.7526 140.301 23.9588 140.301 24.1713C140.301 24.3714 140.301 24.5401 140.301 24.6776V30.9776H137.189ZM150.691 30.9776L155.528 18.0964H159.56L164.397 30.9776H160.816L160.048 28.7463H154.91L154.141 30.9776H150.691ZM155.716 26.2338H159.222L158.303 23.5151C158.254 23.3776 158.191 23.2088 158.116 23.0088C158.054 22.7963 157.985 22.5776 157.909 22.3526C157.847 22.1151 157.785 21.8776 157.723 21.6401C157.66 21.4026 157.597 21.1963 157.535 21.0213H157.403C157.353 21.2588 157.279 21.5275 157.179 21.8276C157.091 22.1276 156.997 22.4276 156.897 22.7276C156.81 23.0275 156.729 23.2901 156.654 23.5151L155.716 26.2338ZM165.937 30.9776V18.0964H173.811C174.474 18.0964 175.074 18.2276 175.611 18.4901C176.149 18.7526 176.574 19.1214 176.886 19.5964C177.212 20.0713 177.374 20.6276 177.374 21.2651C177.374 21.8276 177.274 22.3089 177.074 22.7088C176.886 23.1088 176.63 23.4339 176.305 23.6838C175.992 23.9338 175.636 24.1213 175.236 24.2463V24.3213C175.699 24.4213 176.118 24.6026 176.492 24.8651C176.868 25.1151 177.162 25.4588 177.374 25.8963C177.599 26.3338 177.712 26.865 177.712 27.4901C177.712 28.2275 177.536 28.8588 177.187 29.3838C176.837 29.8963 176.374 30.29 175.799 30.565C175.224 30.84 174.58 30.9776 173.868 30.9776H165.937ZM169.293 28.3901H172.949C173.349 28.3901 173.667 28.2713 173.905 28.0338C174.155 27.7963 174.28 27.4338 174.28 26.9463C174.28 26.6838 174.224 26.4525 174.111 26.2525C174.012 26.0401 173.855 25.8775 173.642 25.7651C173.443 25.6525 173.192 25.5963 172.893 25.5963H169.293V28.3901ZM169.293 23.215H172.649C172.924 23.215 173.155 23.1588 173.343 23.0463C173.543 22.9338 173.692 22.7776 173.793 22.5776C173.905 22.3776 173.962 22.14 173.962 21.8651C173.962 21.4651 173.843 21.1525 173.605 20.9276C173.368 20.7026 173.068 20.59 172.705 20.59H169.293V23.215ZM179.908 30.9776V18.0964H183.264V30.9776H179.908ZM186.078 30.9776V18.0964H189.434V28.2213H195.978V30.9776H186.078ZM197.76 30.9776V18.0964H201.116V30.9776H197.76ZM207.156 30.9776V20.8526H202.975V18.0964H214.694V20.8526H210.512V30.9776H207.156ZM220.004 30.9776V25.8775L214.961 18.0964H218.842L221.73 22.9151H221.824L224.692 18.0964H228.367L223.379 25.8775V30.9776H220.004Z" fill="white"/>
<path d="M31.2513 47.8159C29.3173 48.3394 27.2277 48.6526 24.9277 48.6526C11.8626 48.6526 1.3076 38.0446 1.3076 25.0319C1.3076 16.8792 5.64444 9.25015 12.5941 4.86085V10.4003C12.5941 10.7661 12.9074 11.0267 13.2206 11.0267C13.5338 11.0267 13.847 10.7135 13.847 10.4003V3.60572C13.847 3.23993 13.5338 2.97925 13.2206 2.97925H6.42621C6.06044 2.97925 5.79975 3.2925 5.79975 3.60572C5.79975 3.91897 6.11299 4.2322 6.42621 4.2322H11.0257C4.18122 8.93702 0 16.7219 0 24.9795C0 38.7238 11.1835 49.9082 24.9781 49.9082C27.381 49.9082 29.6283 49.595 31.6147 49.0716C31.9805 48.9664 32.1887 48.6006 32.0857 48.2874C31.93 47.9216 31.5646 47.7129 31.2513 47.8159Z" fill="url(#paint0_linear_2_14078)"/>
<path d="M43.427 45.5684H39.0902C45.8845 40.8131 49.9079 33.2872 49.9079 24.9788C49.9079 11.2346 38.7244 0 24.9298 0C22.6824 0 20.3301 0.313248 18.1881 0.889242C17.8223 0.994333 17.6142 1.36013 17.7173 1.67336C17.8223 2.03915 18.1881 2.24733 18.5013 2.14425C20.5385 1.56625 22.7856 1.25299 24.9279 1.25299C37.993 1.25299 48.548 11.861 48.548 24.8738C48.548 33.1314 44.3142 40.6554 37.2087 45.0976V39.3501C37.2087 38.9843 36.8955 38.7236 36.5823 38.7236C36.2691 38.7236 35.9558 39.0369 35.9558 39.3501L35.9538 46.1969C35.9538 46.5627 36.2671 46.8234 36.5803 46.8234H43.4249C43.7906 46.8234 44.0513 46.5101 44.0513 46.1969C44.0533 45.8837 43.7927 45.5684 43.427 45.5684Z" fill="url(#paint1_linear_2_14078)"/>
<path d="M34.9086 8.8319C34.8035 8.62375 34.5954 8.46611 34.3346 8.41356C28.4803 8.10031 21.896 11.8108 18.3955 17.4555C14.9984 22.9422 14.9459 29.2659 18.3431 35.2239C17.7166 37.1579 17.1406 39.092 16.7223 41.1291C16.6698 41.4949 16.8799 41.8082 17.1932 41.9132H17.3508C17.6641 41.9132 17.9248 41.7051 17.9773 41.3898C18.3955 39.4557 18.917 37.5742 19.5454 35.6925C24.7189 35.5875 30.1005 32.5055 33.3949 27.6449C37.1557 22.2105 37.7298 15.3108 34.9086 8.8319ZM32.3481 26.966C29.3693 31.303 24.6143 34.1243 20.0145 34.3871C22.1566 28.3241 25.293 22.5239 29.525 16.8288C29.733 16.5155 29.6825 16.1497 29.3673 15.9396C29.054 15.7313 28.6882 15.7819 28.4781 16.0971C24.2483 21.7396 21.112 27.5397 18.9174 33.5499C16.357 28.3235 16.5651 22.8896 19.4914 18.1341C22.5753 13.1686 28.4276 9.66837 33.6011 9.66837H33.9143C37.2084 17.8712 34.3852 23.987 32.3481 26.966Z" fill="url(#paint2_linear_2_14078)"/>
</g>
<defs>
<linearGradient id="paint0_linear_2_14078" x1="0.0458537" y1="24.9667" x2="49.9289" y2="24.9667" gradientUnits="userSpaceOnUse">
<stop stop-color="#71B844"/>
<stop offset="1" stop-color="#00A2D6"/>
</linearGradient>
<linearGradient id="paint1_linear_2_14078" x1="0.0456595" y1="24.9666" x2="49.9287" y2="24.9666" gradientUnits="userSpaceOnUse">
<stop stop-color="#71B844"/>
<stop offset="1" stop-color="#00A2D6"/>
</linearGradient>
<linearGradient id="paint2_linear_2_14078" x1="0.0454487" y1="24.9666" x2="49.9285" y2="24.9666" gradientUnits="userSpaceOnUse">
<stop stop-color="#71B844"/>
<stop offset="1" stop-color="#00A2D6"/>
</linearGradient>
<clipPath id="clip0_2_14078">
<rect width="228.889" height="49.9081" fill="white"/>
</clipPath>
</defs>
</svg>
