<svg width="151" height="50" viewBox="0 0 151 50" fill="none" xmlns="http://www.w3.org/2000/svg">
<g clip-path="url(#clip0_2_14015)">
<mask id="mask0_2_14015" style="mask-type:luminance" maskUnits="userSpaceOnUse" x="0" y="0" width="151" height="50">
<path d="M151 0H0V49.8063H151V0Z" fill="white"/>
</mask>
<g mask="url(#mask0_2_14015)">
<path d="M45.9465 13.5164L151 14.5954L140.186 49.8062L24.3179 49.3519L35.0749 40.606L40.6252 32.0305L45.9465 13.5164Z" fill="#0C3A46"/>
<path fill-rule="evenodd" clip-rule="evenodd" d="M17.8525 3.74803C17.8525 3.74803 35.3614 1.58995 47.4345 7.3827C47.4345 7.3827 49.6089 32.5414 28.2663 46.1146C28.2663 46.1146 43.6581 34.302 44.6881 9.59758C44.7452 9.59758 32.9582 2.78257 17.8525 3.74803Z" fill="url(#paint0_linear_2_14015)"/>
<path fill-rule="evenodd" clip-rule="evenodd" d="M12.0727 34.359C12.0727 34.359 3.60428 23.171 3.71872 6.8718C3.71872 6.8718 25.1185 -3.63467 47.4338 6.30388C47.4338 6.30388 25.5762 -7.55329 0.628906 5.90634C0.686125 5.90634 1.94493 21.5808 12.0727 34.359Z" fill="url(#paint1_linear_2_14015)"/>
<path fill-rule="evenodd" clip-rule="evenodd" d="M40.6252 26.2381C40.6252 26.2381 36.2194 38.2212 24.5468 45.8313C24.5468 45.8313 2.91816 36.2903 1.01721e-05 6.47461C1.01721e-05 6.47461 -0.0572084 23.2849 8.41117 35.8359C8.41117 35.8359 14.0186 44.3546 24.3751 49.4091C24.3751 49.3523 36.1622 39.8113 40.6252 26.2381Z" fill="url(#paint2_linear_2_14015)"/>
<path d="M45.0307 38.8449C44.8019 37.8227 43.9435 37.198 42.9708 37.198C41.1971 37.198 40.4532 38.6746 40.4532 40.1512C40.4532 41.6278 41.1971 43.1043 42.9708 43.1043C44.2296 43.1043 45.0307 42.1389 45.1451 40.9463H45.7746C45.6029 42.5932 44.573 43.6154 42.9708 43.6154C40.8537 43.6154 39.7666 41.9685 39.7666 40.1512C39.7666 38.3338 40.7965 36.6869 42.9708 36.6869C44.2296 36.6869 45.4885 37.482 45.6601 38.8449H45.0307Z" fill="white"/>
<path d="M47.5483 36.8004H52.183V37.3684H48.1777V39.7536H51.9541V40.3215H48.1777V42.9907H52.2402V43.5587H47.5483V36.8004Z" fill="white"/>
<path d="M53.8989 36.8004H56.9887C58.0759 36.8004 59.0487 37.3115 59.0487 38.5609C59.0487 39.4129 58.5909 40.0943 57.7326 40.2647C58.5909 40.3783 58.8769 40.9462 58.9342 41.7981C58.9342 42.2525 58.9342 43.1611 59.2203 43.5018H58.5337C58.362 43.2747 58.362 42.7636 58.362 42.4796C58.3048 41.5141 58.2476 40.4919 56.9887 40.5487H54.5284V43.5018H53.8989V36.8004ZM54.5284 39.9807H56.9316C57.7326 39.9807 58.362 39.4696 58.362 38.6746C58.362 37.8227 57.9042 37.3684 56.9316 37.3684H54.5284V39.9807Z" fill="white"/>
<path d="M60.3081 36.8004H65.6294V37.3684H63.2834V43.5018H62.6541V37.3684H60.3081V36.8004Z" fill="white"/>
<path d="M67.1177 36.8004H67.7471V43.5018H67.1177V36.8004Z" fill="white"/>
<path d="M69.978 36.8004H74.2694V37.3684H70.6075V39.7536H73.8117V40.3215H70.6075V43.5018H69.978V36.8004Z" fill="white"/>
<path d="M75.8706 36.8004H76.5001V43.5018H75.8706V36.8004Z" fill="white"/>
<path d="M78.7324 36.8004H83.3669V37.3684H79.3618V39.7536H83.1384V40.3215H79.3618V42.9907H83.4246V43.5587H78.7324V36.8004Z" fill="white"/>
<path d="M85.084 36.8004H87.4296C89.4899 36.8573 90.52 37.9362 90.52 40.1511C90.52 42.366 89.4899 43.445 87.4296 43.5018H85.084V36.8004ZM85.7133 42.9907H87.0865C89.0321 42.9907 89.8907 42.1956 89.8907 40.208C89.8907 38.2202 89.0321 37.4251 87.0865 37.4251H85.7133V42.9907Z" fill="white"/>
<path d="M96.0688 41.2876C96.0688 42.6507 97.042 43.105 98.2437 43.105C98.9299 43.105 100.017 42.7074 100.017 41.742C100.017 41.0036 99.273 40.6629 98.6437 40.5493L97.1558 40.2086C96.355 40.0382 95.6111 39.6407 95.6111 38.6184C95.6111 37.9369 96.0119 36.7443 97.9575 36.7443C99.273 36.7443 100.475 37.4258 100.475 38.8456H99.8454C99.7885 37.8233 98.9876 37.3122 98.0144 37.3122C97.1558 37.3122 96.2981 37.6529 96.2981 38.6184C96.2981 39.2431 96.7558 39.5271 97.3282 39.6407L98.9876 40.0382C99.96 40.2654 100.761 40.7197 100.761 41.7987C100.761 42.2531 100.589 43.7296 98.186 43.7296C96.5842 43.7296 95.4395 42.9914 95.4972 41.4012H96.0688V41.2876Z" fill="white"/>
<path d="M104.481 36.8004H105.224L107.857 43.5018H107.17L106.369 41.4005H103.279L102.478 43.5018H101.792L104.481 36.8004ZM103.451 40.8894H106.083L104.766 37.482L103.451 40.8894Z" fill="white"/>
<path d="M109.229 36.8004H113.521V37.3684H109.859V39.7536H113.063V40.3215H109.859V43.5018H109.229V36.8004Z" fill="white"/>
<path d="M115.067 36.8004H119.702V37.3684H115.697V39.7536H119.473V40.3215H115.697V42.9907H119.759V43.5587H115.067V36.8004Z" fill="white"/>
<path d="M120.731 36.8004H126.053V37.3684H123.706V43.5018H123.077V37.3684H120.731V36.8004Z" fill="white"/>
<path d="M129.371 40.7763L126.738 36.8577H127.482L129.714 40.2651L131.946 36.8577H132.69L130 40.7763V43.5591H129.371V40.7763Z" fill="white"/>
<path d="M61.1094 18.3439H62.5398L65.6868 30.3269H65.7441L69.12 18.3439H70.7793L74.1552 30.3269H74.2124L77.3594 18.3439H78.6755L74.899 32.0307H73.5258L70.0355 19.8205H69.8066L66.3163 32.0307H64.8858L61.1094 18.3439Z" fill="white"/>
<path d="M80.2207 18.3439H81.4224V20.2748H80.2207V18.3439ZM80.2207 22.1489H81.4224V32.0307H80.2207V22.1489Z" fill="#00A2D6"/>
<path d="M82.6235 18.3439H84.0537L87.201 30.3269H87.2579L90.6336 18.3439H92.2931L95.6688 30.3269H95.7265L98.8738 18.3439H100.189L96.4128 32.0307H95.0395L91.5491 19.8205H91.4922L88.0018 32.0307H86.5717L82.6235 18.3439Z" fill="white"/>
<path d="M105.168 18.3439H106.656L112.035 32.0307H110.604L108.944 27.7713H102.651L100.991 32.0307H99.561L105.168 18.3439ZM103.108 26.6923H108.544L105.855 19.6501L103.108 26.6923Z" fill="white"/>
<path d="M30.6126 23.7956C32.8441 23.5684 34.5607 21.7511 34.5607 19.4794C34.5607 17.0942 32.6152 15.1632 30.2121 15.1632C29.8115 15.1632 29.411 15.22 29.0105 15.3336C28.2094 13.2323 26.2068 11.699 23.8036 11.699C21.1143 11.699 18.8255 13.6299 18.3678 16.1855C18.1389 16.1287 17.9101 16.1286 17.6812 16.1286C15.4496 16.1286 13.6187 17.8324 13.6187 19.9905C13.6187 21.5807 14.5914 22.9437 16.0218 23.5116" stroke="url(#paint3_linear_2_14015)" stroke-width="1.37421" stroke-miterlimit="10"/>
<path d="M18.9976 19.3093H23.5751C25.7494 19.3093 26.8937 16.8104 25.8065 15.2203C24.7767 13.7437 22.3735 13.6301 21.3435 15.1635C20.8285 15.9586 20.8285 16.9808 21.6869 17.6055C22.2018 17.9463 22.8885 18.1166 23.4606 17.8327" stroke="url(#paint4_linear_2_14015)" stroke-width="1.37421" stroke-miterlimit="10"/>
<path d="M18.2524 21.524H30.0967C31.8133 21.524 32.7288 19.5363 31.8705 18.2869C31.0694 17.0943 29.124 17.0375 28.323 18.2301C27.9224 18.8548 27.9224 19.7067 28.5518 20.161C28.9523 20.445 29.5245 20.5586 29.9823 20.3314C30.4972 20.0475 30.6117 19.5363 30.3256 19.082" stroke="url(#paint5_linear_2_14015)" stroke-width="1.37421" stroke-miterlimit="10"/>
<path d="M17.5664 23.7954H27.7513C29.3535 23.7954 30.2117 25.8399 29.4107 27.0893C28.6669 28.282 26.8931 28.3388 26.1492 27.1461C26.092 27.0893 26.092 27.0326 26.0348 26.919" stroke="url(#paint6_linear_2_14015)" stroke-width="1.37421" stroke-miterlimit="10"/>
<path d="M16.0784 28.5658L13.7324 32.4276" stroke="url(#paint7_linear_2_14015)" stroke-width="1.37421" stroke-miterlimit="10"/>
<path d="M20.5413 28.5658L18.1953 32.4276" stroke="url(#paint8_linear_2_14015)" stroke-width="1.37421" stroke-miterlimit="10"/>
<path d="M24.948 28.5658L22.6592 32.4276" stroke="url(#paint9_linear_2_14015)" stroke-width="1.37421" stroke-miterlimit="10"/>
<path d="M29.4104 28.5658L27.0645 32.4276" stroke="url(#paint10_linear_2_14015)" stroke-width="1.37421" stroke-miterlimit="10"/>
<path d="M33.8733 28.5658L31.5273 32.4276" stroke="url(#paint11_linear_2_14015)" stroke-width="1.37421" stroke-miterlimit="10"/>
</g>
</g>
<defs>
<linearGradient id="paint0_linear_2_14015" x1="17.8797" y1="24.7454" x2="47.5092" y2="24.7454" gradientUnits="userSpaceOnUse">
<stop stop-color="#71B844"/>
<stop offset="1" stop-color="#00A2D6"/>
</linearGradient>
<linearGradient id="paint1_linear_2_14015" x1="0.658203" y1="17.167" x2="47.4528" y2="17.167" gradientUnits="userSpaceOnUse">
<stop stop-color="#71B844"/>
<stop offset="1" stop-color="#00A2D6"/>
</linearGradient>
<linearGradient id="paint2_linear_2_14015" x1="1.0172e-05" y1="27.919" x2="40.6461" y2="27.919" gradientUnits="userSpaceOnUse">
<stop stop-color="#71B844"/>
<stop offset="1" stop-color="#00A2D6"/>
</linearGradient>
<linearGradient id="paint3_linear_2_14015" x1="13.2267" y1="17.7197" x2="34.9056" y2="17.7197" gradientUnits="userSpaceOnUse">
<stop stop-color="#71B844"/>
<stop offset="1" stop-color="#00A2D6"/>
</linearGradient>
<linearGradient id="paint4_linear_2_14015" x1="18.9799" y1="16.6634" x2="26.5566" y2="16.6634" gradientUnits="userSpaceOnUse">
<stop stop-color="#71B844"/>
<stop offset="1" stop-color="#00A2D6"/>
</linearGradient>
<linearGradient id="paint5_linear_2_14015" x1="18.2652" y1="19.4397" x2="32.5497" y2="19.4397" gradientUnits="userSpaceOnUse">
<stop stop-color="#71B844"/>
<stop offset="1" stop-color="#00A2D6"/>
</linearGradient>
<linearGradient id="paint6_linear_2_14015" x1="17.543" y1="25.9134" x2="30.0494" y2="25.9134" gradientUnits="userSpaceOnUse">
<stop stop-color="#71B844"/>
<stop offset="1" stop-color="#00A2D6"/>
</linearGradient>
<linearGradient id="paint7_linear_2_14015" x1="13.4536" y1="30.4999" x2="16.3788" y2="30.4999" gradientUnits="userSpaceOnUse">
<stop stop-color="#71B844"/>
<stop offset="1" stop-color="#00A2D6"/>
</linearGradient>
<linearGradient id="paint8_linear_2_14015" x1="17.8961" y1="30.4999" x2="20.8213" y2="30.4999" gradientUnits="userSpaceOnUse">
<stop stop-color="#71B844"/>
<stop offset="1" stop-color="#00A2D6"/>
</linearGradient>
<linearGradient id="paint9_linear_2_14015" x1="22.3395" y1="30.4999" x2="25.2647" y2="30.4999" gradientUnits="userSpaceOnUse">
<stop stop-color="#71B844"/>
<stop offset="1" stop-color="#00A2D6"/>
</linearGradient>
<linearGradient id="paint10_linear_2_14015" x1="26.7815" y1="30.4999" x2="29.7067" y2="30.4999" gradientUnits="userSpaceOnUse">
<stop stop-color="#71B844"/>
<stop offset="1" stop-color="#00A2D6"/>
</linearGradient>
<linearGradient id="paint11_linear_2_14015" x1="31.2241" y1="30.4999" x2="34.1493" y2="30.4999" gradientUnits="userSpaceOnUse">
<stop stop-color="#71B844"/>
<stop offset="1" stop-color="#00A2D6"/>
</linearGradient>
<clipPath id="clip0_2_14015">
<rect width="151" height="49.8063" fill="white"/>
</clipPath>
</defs>
</svg>
