<svg width="1440" height="880" viewBox="0 0 1440 880" fill="none" xmlns="http://www.w3.org/2000/svg">
<g clip-path="url(#clip0_2_13459)">
<mask id="mask0_2_13459" style="mask-type:luminance" maskUnits="userSpaceOnUse" x="-75" y="0" width="533" height="880">
<path d="M457.062 880V0H-75V880H457.062Z" fill="white"/>
</mask>
<g mask="url(#mask0_2_13459)">
<path d="M463.128 27.2669L412.502 -19.9061L411.091 -18.5915L461.717 28.5815L463.128 27.2669Z" fill="#E6F4FA" fill-opacity="0.6"/>
<path d="M463.125 485.855L412.499 438.682L411.088 439.997L461.714 487.17L463.125 485.855Z" fill="#E6F4FA" fill-opacity="0.6"/>
<path d="M463.123 806.868L461.712 805.553L411.086 852.726L412.497 854.041L463.123 806.868Z" fill="#E6F4FA" fill-opacity="0.6"/>
<path d="M412.502 71.8123L411.091 73.1267L363.286 117.671L314.07 71.8123L312.66 73.1267L361.875 118.986L363.286 120.3L364.697 118.986L412.502 74.4411L460.307 118.986L412.502 163.531L411.091 164.845L412.502 166.159L461.717 212.019L463.128 210.704L413.912 164.845L461.717 120.3L463.128 118.986L461.717 117.671L413.912 73.1267L412.502 71.8123Z" fill="#E6F4FA" fill-opacity="0.6"/>
<path d="M411.091 394.141L363.286 438.686L361.875 440L314.07 484.545L266.265 440L264.855 438.686L217.049 394.141L215.639 392.826L214.228 394.141L166.423 438.686L165.013 440L166.423 441.314L214.228 485.859L166.423 530.404L165.013 531.718L115.797 577.577L117.207 578.892L166.423 533.033L167.834 531.718L215.639 487.174L263.444 531.718L264.855 533.033L312.66 577.577L264.855 622.122L263.444 623.437L264.855 624.751L314.07 670.61L315.481 669.296L266.265 623.437L314.07 578.892L361.875 623.437L363.286 624.751L411.091 669.296L412.502 670.61L460.307 715.155L411.091 761.014L412.502 762.329L461.717 716.469L463.128 715.155L461.717 713.841L413.912 669.296L463.128 623.437L461.717 622.122L412.502 667.981L364.697 623.437L413.912 577.577L412.502 576.263L363.286 622.122L315.481 577.577L314.07 576.263L266.265 531.718L314.07 487.174L361.875 531.718L363.286 533.033L364.697 531.718L412.502 487.174L461.717 533.033L463.128 531.718L413.912 485.859L412.502 484.545L364.697 440L412.502 395.455L461.717 441.314L463.128 440L413.912 394.141L463.128 348.282L461.717 346.967L412.502 392.826L411.091 394.141ZM264.855 530.404L217.049 485.859L215.639 484.545L167.834 440L215.639 395.455L263.444 440L264.855 441.314L312.66 485.859L264.855 530.404ZM411.091 485.859L363.286 530.404L315.481 485.859L363.286 441.314L411.091 485.859Z" fill="#E6F4FA" fill-opacity="0.6"/>
<path d="M412.502 530.404L411.091 531.718L363.286 576.263L314.07 530.404L312.66 531.718L361.875 577.577L363.286 578.892L364.697 577.577L412.502 533.033L460.307 577.577L411.091 623.437L412.502 624.751L461.717 578.892L463.128 577.577L461.717 576.263L413.912 531.718L412.502 530.404Z" fill="#E6F4FA" fill-opacity="0.6"/>
<path d="M411.091 898.592L412.502 899.906L413.912 898.592L463.128 852.732L461.717 851.418L412.502 897.277L364.697 852.732L412.502 808.188L413.912 806.873L463.128 761.014L461.717 759.7L412.502 805.559L364.697 761.014L412.502 716.469L413.912 715.155L412.502 713.841L364.697 669.296L363.286 667.981L314.07 622.122L312.66 623.437L361.875 669.296L314.07 713.841L266.265 669.296L264.855 667.981L217.049 623.437L264.855 578.892L266.265 577.577L264.855 576.263L217.049 531.718L215.639 530.404L214.228 531.718L166.423 576.263L165.013 577.577L117.207 622.122L69.4024 577.577L117.207 533.033L118.618 531.718L166.423 487.174L167.834 485.859L166.423 484.545L118.618 440L166.423 395.455L167.834 394.141L215.639 349.596L263.444 394.141L264.855 395.455L312.66 440L314.07 441.314L315.481 440L363.286 395.455L364.697 394.141L412.502 349.596L413.912 348.282L463.128 302.423L461.717 301.108L412.502 346.967L364.697 302.423L412.502 257.878L413.912 256.563L412.502 255.249L364.697 210.704L363.286 209.39L361.875 210.704L314.07 255.249L266.265 210.704L264.855 209.39L263.444 210.704L215.639 255.249L167.834 210.704L166.423 209.39L118.618 164.845L117.207 163.531L67.9918 117.671L66.5812 118.986L115.797 164.845L117.207 166.159L165.013 210.704L166.423 212.019L214.228 256.563L215.639 257.878L217.049 256.563L264.855 212.019L312.66 256.563L264.855 301.108L263.444 302.423L215.639 346.967L214.228 348.282L166.423 392.826L118.618 348.282L117.207 346.967L115.797 348.282L67.9918 392.826L20.1867 348.282L69.4024 302.423L67.9918 301.108L18.7761 346.967L17.3655 348.282L-30.4396 392.826L-78.2447 348.282L-30.4396 303.737L-29.029 302.423L20.1867 256.563L18.7761 255.249L-30.4396 301.108L-79.6553 255.249L-81.0659 256.563L-31.8502 302.423L-79.6553 346.967L-81.0659 348.282L-79.6553 349.596L-31.8502 394.141L-30.4396 395.455L17.3655 440L-30.4396 484.545L-79.6553 438.686L-81.0659 440L-31.8502 485.859L-79.6553 530.404L-81.0659 531.718L-79.6553 533.033L-31.8502 577.577L-30.4396 578.892L17.3655 623.437L18.7761 624.751L66.5812 669.296L18.7761 713.841L17.3655 715.155L18.7761 716.469L67.9918 762.328L69.4024 761.014L20.1867 715.155L67.9918 670.61L69.4024 669.296L67.9918 667.981L20.1867 623.437L67.9918 578.892L115.797 623.437L117.207 624.751L118.618 623.437L166.423 578.892L167.834 577.577L215.639 533.033L263.444 577.577L215.639 622.122L214.228 623.437L165.013 669.296L166.423 670.61L215.639 624.751L263.444 669.296L214.228 715.155L215.639 716.469L264.855 670.61L312.66 715.155L314.07 716.469L315.481 715.155L363.286 670.61L411.091 715.155L363.286 759.7L361.875 761.014L314.07 805.559L266.265 761.014L264.855 759.7L263.444 761.014L215.639 805.559L214.228 806.873L166.423 851.418L117.207 805.559L115.797 806.873L165.013 852.732L115.797 898.592L117.207 899.906L166.423 854.047L214.228 898.592L215.639 899.906L217.049 898.592L264.855 854.047L266.265 852.732L264.855 851.418L217.049 806.873L264.855 762.328L312.66 806.873L314.07 808.188L361.875 852.732L312.66 898.592L314.07 899.906L363.286 854.047L411.091 898.592ZM314.07 438.686L266.265 394.141L314.07 349.596L361.875 394.141L314.07 438.686ZM314.07 257.878L315.481 256.563L363.286 212.019L411.091 256.563L363.286 301.108L361.875 302.423L363.286 303.737L411.091 348.282L363.286 392.826L315.481 348.282L314.07 346.967L266.265 302.423L314.07 257.878ZM264.855 303.737L312.66 348.282L264.855 392.826L217.049 348.282L264.855 303.737ZM67.9918 576.263L20.1867 531.718L67.9918 487.174L115.797 531.718L67.9918 576.263ZM165.013 485.859L117.207 530.404L69.4024 485.859L117.207 441.314L165.013 485.859ZM67.9918 484.545L20.1867 440L67.9918 395.455L115.797 440L67.9918 484.545ZM117.207 349.596L165.013 394.141L117.207 438.686L69.4024 394.141L117.207 349.596ZM-29.029 394.141L18.7761 349.596L66.5812 394.141L18.7761 438.686L-29.029 394.141ZM18.7761 441.314L66.5812 485.859L18.7761 530.404L-29.029 485.859L18.7761 441.314ZM18.7761 622.122L-29.029 577.577L-30.4396 576.263L-78.2447 531.718L-30.4396 487.174L17.3655 531.718L18.7761 533.033L66.5812 577.577L18.7761 622.122ZM263.444 852.732L215.639 897.277L167.834 852.732L215.639 808.188L263.444 852.732ZM315.481 806.873L363.286 762.328L411.091 806.873L363.286 851.418L315.481 806.873Z" fill="#E6F4FA" fill-opacity="0.6"/>
<path d="M364.697 348.282L315.482 302.423L364.697 256.563L363.287 255.249L314.071 301.108L312.66 302.423L314.071 303.737L363.287 349.596L364.697 348.282Z" fill="#E6F4FA" fill-opacity="0.6"/>
<path d="M315.481 852.732L314.071 851.418L264.855 805.559L263.444 806.873L312.66 852.732L263.444 898.592L264.855 899.906L314.071 854.047L315.481 852.732Z" fill="#E6F4FA" fill-opacity="0.6"/>
<path d="M266.263 485.854L215.638 438.681L214.227 439.996L264.853 487.169L266.263 485.854Z" fill="#E6F4FA" fill-opacity="0.6"/>
<path d="M117.208 -19.9059L115.797 -18.5915L67.9924 25.9532L66.5818 27.2676L67.9924 28.5821L115.797 73.1268L117.208 74.4412L165.013 118.986L166.424 120.3L214.229 164.845L215.639 166.16L217.05 164.845L264.855 120.3L314.071 166.16L315.481 164.845L266.266 118.986L264.855 117.672L263.444 118.986L215.639 163.531L167.834 118.986L215.639 74.4412L217.05 73.1268L215.639 71.8124L167.834 27.2676L217.05 -18.5915L215.639 -19.9059L166.424 25.9532L118.619 -18.5915L117.208 -19.9059ZM214.229 73.1268L166.424 117.672L118.619 73.1268L166.424 28.5821L214.229 73.1268ZM165.013 27.2676L117.208 71.8124L69.403 27.2676L117.208 -17.2771L165.013 27.2676Z" fill="#E6F4FA" fill-opacity="0.6"/>
<path d="M115.797 256.563L117.208 257.878L166.423 303.737L167.834 302.423L118.618 256.563L117.208 255.249L67.992 209.39L66.5814 210.704L115.797 256.563Z" fill="#E6F4FA" fill-opacity="0.6"/>
<path d="M67.9925 899.906L69.4031 898.592L117.208 854.047L118.619 852.733L117.208 851.418L69.4031 806.873L117.208 762.329L165.013 806.873L166.424 808.188L167.835 806.873L215.64 762.329L217.05 761.014L264.855 716.469L312.66 761.014L314.071 762.329L315.482 761.014L364.697 715.155L363.287 713.841L314.071 759.7L266.266 715.155L264.855 713.841L263.445 715.155L215.64 759.7L167.835 715.155L217.05 669.296L215.64 667.981L166.424 713.841L118.619 669.296L166.424 624.751L167.835 623.437L217.05 577.578L215.64 576.263L166.424 622.122L165.013 623.437L117.208 667.981L67.9925 622.122L66.5819 623.437L115.798 669.296L67.9925 713.841L66.5819 715.155L67.9925 716.469L115.798 761.014L67.9925 805.559L20.1875 761.014L18.7769 759.7L-29.0282 715.155L18.7769 670.61L20.1875 669.296L18.7769 667.981L-29.0282 623.437L-30.4388 622.122L-79.6545 576.263L-81.0651 577.578L-31.8495 623.437L-30.4388 624.751L17.3662 669.296L-30.4388 713.841L-79.6545 667.981L-81.0651 669.296L-31.8495 715.155L-81.0651 761.014L-79.6545 762.329L-30.4388 716.469L17.3662 761.014L-31.8495 806.873L-30.4388 808.188L18.7769 762.329L66.5819 806.873L18.7769 851.418L17.3662 852.733L-30.4388 897.277L-79.6545 851.418L-81.0651 852.733L-31.8495 898.592L-30.4388 899.906L-29.0282 898.592L18.7769 854.047L66.5819 898.592L67.9925 899.906ZM214.229 761.014L166.424 805.559L118.619 761.014L166.424 716.469L214.229 761.014ZM69.4031 715.155L117.208 670.61L165.013 715.155L117.208 759.7L69.4031 715.155ZM20.1875 852.733L67.9925 808.188L115.798 852.733L67.9925 897.277L20.1875 852.733Z" fill="#E6F4FA" fill-opacity="0.6"/>
<path d="M17.3653 73.1267L-31.8504 118.986L-30.4398 120.3L18.7759 74.4411L20.1865 73.1267L18.7759 71.8123L-29.0292 27.2675L-30.4398 25.9531L-31.8504 27.2675L-81.0661 73.1267L-79.6555 74.4411L-30.4398 28.582L17.3653 73.1267Z" fill="#E6F4FA" fill-opacity="0.6"/>
<path d="M20.1852 577.57L-30.4404 530.397L-31.8513 531.712L18.7744 578.885L20.1852 577.57Z" fill="#E6F4FA" fill-opacity="0.6"/>
<path d="M-30.4396 257.878L-29.029 256.564L18.7761 212.019L66.5812 256.564L18.7761 301.108L17.3655 302.423L-31.8502 348.282L-30.4396 349.596L18.7761 303.737L20.1867 302.423L67.9918 257.878L115.797 302.423L66.5812 348.282L67.9918 349.596L117.207 303.737L165.013 348.282L166.423 349.596L167.834 348.282L215.639 303.737L217.049 302.423L266.265 256.564L264.855 255.249L215.639 301.108L167.834 256.564L166.423 255.249L118.618 210.704L117.207 209.39L69.4024 164.845L67.9918 163.531L20.1867 118.986L67.9918 74.4413L115.797 118.986L117.207 120.3L165.013 164.845L166.423 166.16L214.228 210.704L215.639 212.019L217.049 210.704L264.855 166.16L312.66 210.704L314.07 212.019L315.481 210.704L363.286 166.16L411.091 210.704L412.502 212.019L460.307 256.564L411.091 302.423L412.502 303.737L461.717 257.878L463.128 256.564L461.717 255.249L413.912 210.704L412.502 209.39L364.697 164.845L413.912 118.986L412.502 117.672L363.286 163.531L315.481 118.986L314.07 117.672L266.265 73.1269L314.07 28.5822L361.875 73.1269L363.286 74.4413L364.697 73.1269L412.502 28.5822L461.717 74.4413L463.128 73.1269L413.912 27.2678L412.502 25.9533L364.697 -18.5914L363.286 -19.9058L361.875 -18.5914L314.07 25.9533L266.265 -18.5914L264.855 -19.9058L263.444 -18.5914L215.639 25.9533L214.228 27.2678L215.639 28.5822L263.444 73.1269L214.228 118.986L215.639 120.3L264.855 74.4413L312.66 118.986L314.07 120.3L361.875 164.845L314.07 209.39L266.265 164.845L264.855 163.531L263.444 164.845L215.639 209.39L167.834 164.845L166.423 163.531L118.618 118.986L117.207 117.672L69.4024 73.1269L67.9918 71.8125L20.1867 27.2678L69.4024 -18.5914L67.9918 -19.9058L18.7761 25.9533L-29.029 -18.5914L-30.4396 -19.9058L-31.8502 -18.5914L-81.0659 27.2678L-79.6553 28.5822L-30.4396 -17.277L17.3655 27.2678L18.7761 28.5822L66.5812 73.1269L18.7761 117.672L17.3655 118.986L-30.4396 163.531L-78.2447 118.986L-29.029 73.1269L-30.4396 71.8125L-79.6553 117.672L-81.0659 118.986L-79.6553 120.3L-31.8502 164.845L-79.6553 209.39L-81.0659 210.704L-79.6553 212.019L-31.8502 256.564L-30.4396 257.878ZM363.286 -17.277L411.091 27.2678L363.286 71.8125L315.481 27.2678L363.286 -17.277ZM217.049 27.2678L264.855 -17.277L312.66 27.2678L264.855 71.8125L217.049 27.2678ZM115.797 210.704L117.207 212.019L165.013 256.564L166.423 257.878L214.228 302.423L166.423 346.967L118.618 302.423L117.207 301.108L69.4024 256.564L67.9918 255.249L20.1867 210.704L67.9918 166.16L115.797 210.704ZM18.7761 120.3L66.5812 164.845L18.7761 209.39L-29.029 164.845L18.7761 120.3ZM-78.2447 210.704L-30.4396 166.16L17.3655 210.704L-30.4396 255.249L-78.2447 210.704Z" fill="#E6F4FA" fill-opacity="0.6"/>
<path d="M-30.4398 854.047L-29.0292 852.732L20.1865 806.873L18.7759 805.559L-30.4398 851.418L-78.2449 806.873L-29.0292 761.014L-30.4398 759.7L-79.6555 805.559L-81.0661 806.873L-79.6555 808.188L-31.8504 852.732L-30.4398 854.047Z" fill="#E6F4FA" fill-opacity="0.6"/>
</g>
</g>
<g clip-path="url(#clip1_2_13459)">
<mask id="mask1_2_13459" style="mask-type:luminance" maskUnits="userSpaceOnUse" x="457" y="0" width="533" height="880">
<path d="M989.062 880V0H457V880H989.062Z" fill="white"/>
</mask>
<g mask="url(#mask1_2_13459)">
<path d="M995.128 27.2669L944.502 -19.9061L943.091 -18.5915L993.717 28.5815L995.128 27.2669Z" fill="#E6F4FA" fill-opacity="0.6"/>
<path d="M995.125 485.855L944.499 438.682L943.088 439.997L993.714 487.17L995.125 485.855Z" fill="#E6F4FA" fill-opacity="0.6"/>
<path d="M995.123 806.868L993.712 805.553L943.086 852.726L944.497 854.041L995.123 806.868Z" fill="#E6F4FA" fill-opacity="0.6"/>
<path d="M944.502 71.8123L943.091 73.1267L895.286 117.671L846.07 71.8123L844.66 73.1267L893.875 118.986L895.286 120.3L896.697 118.986L944.502 74.4411L992.307 118.986L944.502 163.531L943.091 164.845L944.502 166.159L993.717 212.019L995.128 210.704L945.912 164.845L993.717 120.3L995.128 118.986L993.717 117.671L945.912 73.1267L944.502 71.8123Z" fill="#E6F4FA" fill-opacity="0.6"/>
<path d="M943.091 394.141L895.286 438.686L893.875 440L846.07 484.545L798.265 440L796.855 438.686L749.049 394.141L747.639 392.826L746.228 394.141L698.423 438.686L697.013 440L698.423 441.314L746.228 485.859L698.423 530.404L697.013 531.718L647.797 577.577L649.207 578.892L698.423 533.033L699.834 531.718L747.639 487.174L795.444 531.718L796.855 533.033L844.66 577.577L796.855 622.122L795.444 623.437L796.855 624.751L846.07 670.61L847.481 669.296L798.265 623.437L846.07 578.892L893.875 623.437L895.286 624.751L943.091 669.296L944.502 670.61L992.307 715.155L943.091 761.014L944.502 762.329L993.717 716.469L995.128 715.155L993.717 713.841L945.912 669.296L995.128 623.437L993.717 622.122L944.502 667.981L896.697 623.437L945.912 577.577L944.502 576.263L895.286 622.122L847.481 577.577L846.07 576.263L798.265 531.718L846.07 487.174L893.875 531.718L895.286 533.033L896.697 531.718L944.502 487.174L993.717 533.033L995.128 531.718L945.912 485.859L944.502 484.545L896.697 440L944.502 395.455L993.717 441.314L995.128 440L945.912 394.141L995.128 348.282L993.717 346.967L944.502 392.826L943.091 394.141ZM796.855 530.404L749.049 485.859L747.639 484.545L699.834 440L747.639 395.455L795.444 440L796.855 441.314L844.66 485.859L796.855 530.404ZM943.091 485.859L895.286 530.404L847.481 485.859L895.286 441.314L943.091 485.859Z" fill="#E6F4FA" fill-opacity="0.6"/>
<path d="M944.502 530.404L943.091 531.718L895.286 576.263L846.07 530.404L844.66 531.718L893.875 577.577L895.286 578.892L896.697 577.577L944.502 533.033L992.307 577.577L943.091 623.437L944.502 624.751L993.717 578.892L995.128 577.577L993.717 576.263L945.912 531.718L944.502 530.404Z" fill="#E6F4FA" fill-opacity="0.6"/>
<path d="M943.091 898.592L944.502 899.906L945.912 898.592L995.128 852.732L993.717 851.418L944.502 897.277L896.697 852.732L944.502 808.188L945.912 806.873L995.128 761.014L993.717 759.7L944.502 805.559L896.697 761.014L944.502 716.469L945.912 715.155L944.502 713.841L896.697 669.296L895.286 667.981L846.07 622.122L844.66 623.437L893.875 669.296L846.07 713.841L798.265 669.296L796.855 667.981L749.049 623.437L796.855 578.892L798.265 577.577L796.855 576.263L749.049 531.718L747.639 530.404L746.228 531.718L698.423 576.263L697.013 577.577L649.207 622.122L601.402 577.577L649.207 533.033L650.618 531.718L698.423 487.174L699.834 485.859L698.423 484.545L650.618 440L698.423 395.455L699.834 394.141L747.639 349.596L795.444 394.141L796.855 395.455L844.66 440L846.07 441.314L847.481 440L895.286 395.455L896.697 394.141L944.502 349.596L945.912 348.282L995.128 302.423L993.717 301.108L944.502 346.967L896.697 302.423L944.502 257.878L945.912 256.563L944.502 255.249L896.697 210.704L895.286 209.39L893.875 210.704L846.07 255.249L798.265 210.704L796.855 209.39L795.444 210.704L747.639 255.249L699.834 210.704L698.423 209.39L650.618 164.845L649.207 163.531L599.992 117.671L598.581 118.986L647.797 164.845L649.207 166.159L697.013 210.704L698.423 212.019L746.228 256.563L747.639 257.878L749.049 256.563L796.855 212.019L844.66 256.563L796.855 301.108L795.444 302.423L747.639 346.967L746.228 348.282L698.423 392.826L650.618 348.282L649.207 346.967L647.797 348.282L599.992 392.826L552.187 348.282L601.402 302.423L599.992 301.108L550.776 346.967L549.365 348.282L501.56 392.826L453.755 348.282L501.56 303.737L502.971 302.423L552.187 256.563L550.776 255.249L501.56 301.108L452.345 255.249L450.934 256.563L500.15 302.423L452.345 346.967L450.934 348.282L452.345 349.596L500.15 394.141L501.56 395.455L549.365 440L501.56 484.545L452.345 438.686L450.934 440L500.15 485.859L452.345 530.404L450.934 531.718L452.345 533.033L500.15 577.577L501.56 578.892L549.365 623.437L550.776 624.751L598.581 669.296L550.776 713.841L549.365 715.155L550.776 716.469L599.992 762.328L601.402 761.014L552.187 715.155L599.992 670.61L601.402 669.296L599.992 667.981L552.187 623.437L599.992 578.892L647.797 623.437L649.207 624.751L650.618 623.437L698.423 578.892L699.834 577.577L747.639 533.033L795.444 577.577L747.639 622.122L746.228 623.437L697.013 669.296L698.423 670.61L747.639 624.751L795.444 669.296L746.228 715.155L747.639 716.469L796.855 670.61L844.66 715.155L846.07 716.469L847.481 715.155L895.286 670.61L943.091 715.155L895.286 759.7L893.875 761.014L846.07 805.559L798.265 761.014L796.855 759.7L795.444 761.014L747.639 805.559L746.228 806.873L698.423 851.418L649.207 805.559L647.797 806.873L697.013 852.732L647.797 898.592L649.207 899.906L698.423 854.047L746.228 898.592L747.639 899.906L749.049 898.592L796.855 854.047L798.265 852.732L796.855 851.418L749.049 806.873L796.855 762.328L844.66 806.873L846.07 808.188L893.875 852.732L844.66 898.592L846.07 899.906L895.286 854.047L943.091 898.592ZM846.07 438.686L798.265 394.141L846.07 349.596L893.875 394.141L846.07 438.686ZM846.07 257.878L847.481 256.563L895.286 212.019L943.091 256.563L895.286 301.108L893.875 302.423L895.286 303.737L943.091 348.282L895.286 392.826L847.481 348.282L846.07 346.967L798.265 302.423L846.07 257.878ZM796.855 303.737L844.66 348.282L796.855 392.826L749.049 348.282L796.855 303.737ZM599.992 576.263L552.187 531.718L599.992 487.174L647.797 531.718L599.992 576.263ZM697.013 485.859L649.207 530.404L601.402 485.859L649.207 441.314L697.013 485.859ZM599.992 484.545L552.187 440L599.992 395.455L647.797 440L599.992 484.545ZM649.207 349.596L697.013 394.141L649.207 438.686L601.402 394.141L649.207 349.596ZM502.971 394.141L550.776 349.596L598.581 394.141L550.776 438.686L502.971 394.141ZM550.776 441.314L598.581 485.859L550.776 530.404L502.971 485.859L550.776 441.314ZM550.776 622.122L502.971 577.577L501.56 576.263L453.755 531.718L501.56 487.174L549.365 531.718L550.776 533.033L598.581 577.577L550.776 622.122ZM795.444 852.732L747.639 897.277L699.834 852.732L747.639 808.188L795.444 852.732ZM847.481 806.873L895.286 762.328L943.091 806.873L895.286 851.418L847.481 806.873Z" fill="#E6F4FA" fill-opacity="0.6"/>
<path d="M896.697 348.282L847.482 302.423L896.697 256.563L895.287 255.249L846.071 301.108L844.66 302.423L846.071 303.737L895.287 349.596L896.697 348.282Z" fill="#E6F4FA" fill-opacity="0.6"/>
<path d="M847.481 852.732L846.071 851.418L796.855 805.559L795.444 806.873L844.66 852.732L795.444 898.592L796.855 899.906L846.071 854.047L847.481 852.732Z" fill="#E6F4FA" fill-opacity="0.6"/>
<path d="M798.263 485.854L747.638 438.681L746.227 439.996L796.853 487.169L798.263 485.854Z" fill="#E6F4FA" fill-opacity="0.6"/>
<path d="M649.208 -19.9059L647.797 -18.5915L599.992 25.9532L598.582 27.2676L599.992 28.5821L647.797 73.1268L649.208 74.4412L697.013 118.986L698.424 120.3L746.229 164.845L747.639 166.16L749.05 164.845L796.855 120.3L846.071 166.16L847.481 164.845L798.266 118.986L796.855 117.672L795.444 118.986L747.639 163.531L699.834 118.986L747.639 74.4412L749.05 73.1268L747.639 71.8124L699.834 27.2676L749.05 -18.5915L747.639 -19.9059L698.424 25.9532L650.619 -18.5915L649.208 -19.9059ZM746.229 73.1268L698.424 117.672L650.619 73.1268L698.424 28.5821L746.229 73.1268ZM697.013 27.2676L649.208 71.8124L601.403 27.2676L649.208 -17.2771L697.013 27.2676Z" fill="#E6F4FA" fill-opacity="0.6"/>
<path d="M647.797 256.563L649.208 257.878L698.423 303.737L699.834 302.423L650.618 256.563L649.208 255.249L599.992 209.39L598.581 210.704L647.797 256.563Z" fill="#E6F4FA" fill-opacity="0.6"/>
<path d="M599.993 899.906L601.403 898.592L649.208 854.047L650.619 852.733L649.208 851.418L601.403 806.873L649.208 762.329L697.013 806.873L698.424 808.188L699.835 806.873L747.64 762.329L749.05 761.014L796.855 716.469L844.66 761.014L846.071 762.329L847.482 761.014L896.697 715.155L895.287 713.841L846.071 759.7L798.266 715.155L796.855 713.841L795.445 715.155L747.64 759.7L699.835 715.155L749.05 669.296L747.64 667.981L698.424 713.841L650.619 669.296L698.424 624.751L699.835 623.437L749.05 577.578L747.64 576.263L698.424 622.122L697.013 623.437L649.208 667.981L599.993 622.122L598.582 623.437L647.798 669.296L599.993 713.841L598.582 715.155L599.993 716.469L647.798 761.014L599.993 805.559L552.187 761.014L550.777 759.7L502.972 715.155L550.777 670.61L552.187 669.296L550.777 667.981L502.972 623.437L501.561 622.122L452.345 576.263L450.935 577.578L500.151 623.437L501.561 624.751L549.366 669.296L501.561 713.841L452.345 667.981L450.935 669.296L500.151 715.155L450.935 761.014L452.345 762.329L501.561 716.469L549.366 761.014L500.151 806.873L501.561 808.188L550.777 762.329L598.582 806.873L550.777 851.418L549.366 852.733L501.561 897.277L452.345 851.418L450.935 852.733L500.151 898.592L501.561 899.906L502.972 898.592L550.777 854.047L598.582 898.592L599.993 899.906ZM746.229 761.014L698.424 805.559L650.619 761.014L698.424 716.469L746.229 761.014ZM601.403 715.155L649.208 670.61L697.013 715.155L649.208 759.7L601.403 715.155ZM552.187 852.733L599.993 808.188L647.798 852.733L599.993 897.277L552.187 852.733Z" fill="#E6F4FA" fill-opacity="0.6"/>
<path d="M549.365 73.1267L500.15 118.986L501.56 120.3L550.776 74.4411L552.187 73.1267L550.776 71.8123L502.971 27.2675L501.56 25.9531L500.15 27.2675L450.934 73.1267L452.345 74.4411L501.56 28.582L549.365 73.1267Z" fill="#E6F4FA" fill-opacity="0.6"/>
<path d="M552.185 577.57L501.56 530.397L500.149 531.712L550.774 578.885L552.185 577.57Z" fill="#E6F4FA" fill-opacity="0.6"/>
<path d="M501.56 257.878L502.971 256.564L550.776 212.019L598.581 256.564L550.776 301.108L549.365 302.423L500.15 348.282L501.56 349.596L550.776 303.737L552.187 302.423L599.992 257.878L647.797 302.423L598.581 348.282L599.992 349.596L649.207 303.737L697.013 348.282L698.423 349.596L699.834 348.282L747.639 303.737L749.049 302.423L798.265 256.564L796.855 255.249L747.639 301.108L699.834 256.564L698.423 255.249L650.618 210.704L649.207 209.39L601.402 164.845L599.992 163.531L552.187 118.986L599.992 74.4413L647.797 118.986L649.207 120.3L697.013 164.845L698.423 166.16L746.228 210.704L747.639 212.019L749.049 210.704L796.855 166.16L844.66 210.704L846.07 212.019L847.481 210.704L895.286 166.16L943.091 210.704L944.502 212.019L992.307 256.564L943.091 302.423L944.502 303.737L993.717 257.878L995.128 256.564L993.717 255.249L945.912 210.704L944.502 209.39L896.697 164.845L945.912 118.986L944.502 117.672L895.286 163.531L847.481 118.986L846.07 117.672L798.265 73.1269L846.07 28.5822L893.875 73.1269L895.286 74.4413L896.697 73.1269L944.502 28.5822L993.717 74.4413L995.128 73.1269L945.912 27.2678L944.502 25.9533L896.697 -18.5914L895.286 -19.9058L893.875 -18.5914L846.07 25.9533L798.265 -18.5914L796.855 -19.9058L795.444 -18.5914L747.639 25.9533L746.228 27.2678L747.639 28.5822L795.444 73.1269L746.228 118.986L747.639 120.3L796.855 74.4413L844.66 118.986L846.07 120.3L893.875 164.845L846.07 209.39L798.265 164.845L796.855 163.531L795.444 164.845L747.639 209.39L699.834 164.845L698.423 163.531L650.618 118.986L649.207 117.672L601.402 73.1269L599.992 71.8125L552.187 27.2678L601.402 -18.5914L599.992 -19.9058L550.776 25.9533L502.971 -18.5914L501.56 -19.9058L500.15 -18.5914L450.934 27.2678L452.345 28.5822L501.56 -17.277L549.365 27.2678L550.776 28.5822L598.581 73.1269L550.776 117.672L549.365 118.986L501.56 163.531L453.755 118.986L502.971 73.1269L501.56 71.8125L452.345 117.672L450.934 118.986L452.345 120.3L500.15 164.845L452.345 209.39L450.934 210.704L452.345 212.019L500.15 256.564L501.56 257.878ZM895.286 -17.277L943.091 27.2678L895.286 71.8125L847.481 27.2678L895.286 -17.277ZM749.049 27.2678L796.855 -17.277L844.66 27.2678L796.855 71.8125L749.049 27.2678ZM647.797 210.704L649.207 212.019L697.013 256.564L698.423 257.878L746.228 302.423L698.423 346.967L650.618 302.423L649.207 301.108L601.402 256.564L599.992 255.249L552.187 210.704L599.992 166.16L647.797 210.704ZM550.776 120.3L598.581 164.845L550.776 209.39L502.971 164.845L550.776 120.3ZM453.755 210.704L501.56 166.16L549.365 210.704L501.56 255.249L453.755 210.704Z" fill="#E6F4FA" fill-opacity="0.6"/>
<path d="M502.971 439.993L452.346 392.82L450.935 394.135L501.561 441.308L502.971 439.993Z" fill="#E6F4FA" fill-opacity="0.6"/>
<path d="M502.969 669.287L452.344 622.115L450.933 623.429L501.559 670.602L502.969 669.287Z" fill="#E6F4FA" fill-opacity="0.6"/>
<path d="M501.56 854.047L502.971 852.732L552.187 806.873L550.776 805.559L501.56 851.418L453.755 806.873L502.971 761.014L501.56 759.7L452.345 805.559L450.934 806.873L452.345 808.188L500.15 852.732L501.56 854.047Z" fill="#E6F4FA" fill-opacity="0.6"/>
</g>
</g>
<g clip-path="url(#clip2_2_13459)">
<mask id="mask2_2_13459" style="mask-type:luminance" maskUnits="userSpaceOnUse" x="989" y="0" width="533" height="880">
<path d="M1521.06 880V0H989V880H1521.06Z" fill="white"/>
</mask>
<g mask="url(#mask2_2_13459)">
<path d="M1476.5 71.8123L1475.09 73.1267L1427.29 117.671L1378.07 71.8123L1376.66 73.1267L1425.88 118.986L1427.29 120.3L1428.7 118.986L1476.5 74.4411L1524.31 118.986L1476.5 163.531L1475.09 164.845L1476.5 166.159L1525.72 212.019L1527.13 210.704L1477.91 164.845L1525.72 120.3L1527.13 118.986L1525.72 117.671L1477.91 73.1267L1476.5 71.8123Z" fill="#E6F4FA" fill-opacity="0.6"/>
<path d="M1475.09 394.141L1427.29 438.686L1425.88 440L1378.07 484.545L1330.27 440L1328.85 438.686L1281.05 394.141L1279.64 392.826L1278.23 394.141L1230.42 438.686L1229.01 440L1230.42 441.314L1278.23 485.859L1230.42 530.404L1229.01 531.718L1179.8 577.577L1181.21 578.892L1230.42 533.033L1231.83 531.718L1279.64 487.174L1327.44 531.718L1328.85 533.033L1376.66 577.577L1328.85 622.122L1327.44 623.437L1328.85 624.751L1378.07 670.61L1379.48 669.296L1330.27 623.437L1378.07 578.892L1425.88 623.437L1427.29 624.751L1475.09 669.296L1476.5 670.61L1524.31 715.155L1475.09 761.014L1476.5 762.329L1525.72 716.469L1527.13 715.155L1525.72 713.841L1477.91 669.296L1527.13 623.437L1525.72 622.122L1476.5 667.981L1428.7 623.437L1477.91 577.577L1476.5 576.263L1427.29 622.122L1379.48 577.577L1378.07 576.263L1330.27 531.718L1378.07 487.174L1425.88 531.718L1427.29 533.033L1428.7 531.718L1476.5 487.174L1525.72 533.033L1527.13 531.718L1477.91 485.859L1476.5 484.545L1428.7 440L1476.5 395.455L1525.72 441.314L1527.13 440L1477.91 394.141L1527.13 348.282L1525.72 346.967L1476.5 392.826L1475.09 394.141ZM1328.85 530.404L1281.05 485.859L1279.64 484.545L1231.83 440L1279.64 395.455L1327.44 440L1328.85 441.314L1376.66 485.859L1328.85 530.404ZM1475.09 485.859L1427.29 530.404L1379.48 485.859L1427.29 441.314L1475.09 485.859Z" fill="#E6F4FA" fill-opacity="0.6"/>
<path d="M1476.5 530.404L1475.09 531.718L1427.29 576.263L1378.07 530.404L1376.66 531.718L1425.88 577.577L1427.29 578.892L1428.7 577.577L1476.5 533.033L1524.31 577.577L1475.09 623.437L1476.5 624.751L1525.72 578.892L1527.13 577.577L1525.72 576.263L1477.91 531.718L1476.5 530.404Z" fill="#E6F4FA" fill-opacity="0.6"/>
<path d="M1475.09 898.592L1476.5 899.906L1477.91 898.592L1527.13 852.732L1525.72 851.418L1476.5 897.277L1428.7 852.732L1476.5 808.188L1477.91 806.873L1527.13 761.014L1525.72 759.7L1476.5 805.559L1428.7 761.014L1476.5 716.469L1477.91 715.155L1476.5 713.841L1428.7 669.296L1427.29 667.981L1378.07 622.122L1376.66 623.437L1425.88 669.296L1378.07 713.841L1330.27 669.296L1328.85 667.981L1281.05 623.437L1328.85 578.892L1330.27 577.577L1328.85 576.263L1281.05 531.718L1279.64 530.404L1278.23 531.718L1230.42 576.263L1229.01 577.577L1181.21 622.122L1133.4 577.577L1181.21 533.033L1182.62 531.718L1230.42 487.174L1231.83 485.859L1230.42 484.545L1182.62 440L1230.42 395.455L1231.83 394.141L1279.64 349.596L1327.44 394.141L1328.85 395.455L1376.66 440L1378.07 441.314L1379.48 440L1427.29 395.455L1428.7 394.141L1476.5 349.596L1477.91 348.282L1527.13 302.423L1525.72 301.108L1476.5 346.967L1428.7 302.423L1476.5 257.878L1477.91 256.563L1476.5 255.249L1428.7 210.704L1427.29 209.39L1425.88 210.704L1378.07 255.249L1330.27 210.704L1328.85 209.39L1327.44 210.704L1279.64 255.249L1231.83 210.704L1230.42 209.39L1182.62 164.845L1181.21 163.531L1131.99 117.671L1130.58 118.986L1179.8 164.845L1181.21 166.159L1229.01 210.704L1230.42 212.019L1278.23 256.563L1279.64 257.878L1281.05 256.563L1328.85 212.019L1376.66 256.563L1328.85 301.108L1327.44 302.423L1279.64 346.967L1278.23 348.282L1230.42 392.826L1182.62 348.282L1181.21 346.967L1179.8 348.282L1131.99 392.826L1084.19 348.282L1133.4 302.423L1131.99 301.108L1082.78 346.967L1081.37 348.282L1033.56 392.826L985.755 348.282L1033.56 303.737L1034.97 302.423L1084.19 256.563L1082.78 255.249L1033.56 301.108L984.345 255.249L982.934 256.563L1032.15 302.423L984.345 346.967L982.934 348.282L984.345 349.596L1032.15 394.141L1033.56 395.455L1081.37 440L1033.56 484.545L984.345 438.686L982.934 440L1032.15 485.859L984.345 530.404L982.934 531.718L984.345 533.033L1032.15 577.577L1033.56 578.892L1081.37 623.437L1082.78 624.751L1130.58 669.296L1082.78 713.841L1081.37 715.155L1082.78 716.469L1131.99 762.328L1133.4 761.014L1084.19 715.155L1131.99 670.61L1133.4 669.296L1131.99 667.981L1084.19 623.437L1131.99 578.892L1179.8 623.437L1181.21 624.751L1182.62 623.437L1230.42 578.892L1231.83 577.577L1279.64 533.033L1327.44 577.577L1279.64 622.122L1278.23 623.437L1229.01 669.296L1230.42 670.61L1279.64 624.751L1327.44 669.296L1278.23 715.155L1279.64 716.469L1328.85 670.61L1376.66 715.155L1378.07 716.469L1379.48 715.155L1427.29 670.61L1475.09 715.155L1427.29 759.7L1425.88 761.014L1378.07 805.559L1330.27 761.014L1328.85 759.7L1327.44 761.014L1279.64 805.559L1278.23 806.873L1230.42 851.418L1181.21 805.559L1179.8 806.873L1229.01 852.732L1179.8 898.592L1181.21 899.906L1230.42 854.047L1278.23 898.592L1279.64 899.906L1281.05 898.592L1328.85 854.047L1330.27 852.732L1328.85 851.418L1281.05 806.873L1328.85 762.328L1376.66 806.873L1378.07 808.188L1425.88 852.732L1376.66 898.592L1378.07 899.906L1427.29 854.047L1475.09 898.592ZM1378.07 438.686L1330.27 394.141L1378.07 349.596L1425.88 394.141L1378.07 438.686ZM1378.07 257.878L1379.48 256.563L1427.29 212.019L1475.09 256.563L1427.29 301.108L1425.88 302.423L1427.29 303.737L1475.09 348.282L1427.29 392.826L1379.48 348.282L1378.07 346.967L1330.27 302.423L1378.07 257.878ZM1328.85 303.737L1376.66 348.282L1328.85 392.826L1281.05 348.282L1328.85 303.737ZM1131.99 576.263L1084.19 531.718L1131.99 487.174L1179.8 531.718L1131.99 576.263ZM1229.01 485.859L1181.21 530.404L1133.4 485.859L1181.21 441.314L1229.01 485.859ZM1131.99 484.545L1084.19 440L1131.99 395.455L1179.8 440L1131.99 484.545ZM1181.21 349.596L1229.01 394.141L1181.21 438.686L1133.4 394.141L1181.21 349.596ZM1034.97 394.141L1082.78 349.596L1130.58 394.141L1082.78 438.686L1034.97 394.141ZM1082.78 441.314L1130.58 485.859L1082.78 530.404L1034.97 485.859L1082.78 441.314ZM1082.78 622.122L1034.97 577.577L1033.56 576.263L985.755 531.718L1033.56 487.174L1081.37 531.718L1082.78 533.033L1130.58 577.577L1082.78 622.122ZM1327.44 852.732L1279.64 897.277L1231.83 852.732L1279.64 808.188L1327.44 852.732ZM1379.48 806.873L1427.29 762.328L1475.09 806.873L1427.29 851.418L1379.48 806.873Z" fill="#E6F4FA" fill-opacity="0.6"/>
<path d="M1428.7 348.282L1379.48 302.423L1428.7 256.563L1427.29 255.249L1378.07 301.108L1376.66 302.423L1378.07 303.737L1427.29 349.596L1428.7 348.282Z" fill="#E6F4FA" fill-opacity="0.6"/>
<path d="M1379.48 852.732L1378.07 851.418L1328.86 805.559L1327.44 806.873L1376.66 852.732L1327.44 898.592L1328.86 899.906L1378.07 854.047L1379.48 852.732Z" fill="#E6F4FA" fill-opacity="0.6"/>
<path d="M1330.26 485.854L1279.64 438.681L1278.23 439.996L1328.85 487.169L1330.26 485.854Z" fill="#E6F4FA" fill-opacity="0.6"/>
<path d="M1181.21 -19.9059L1179.8 -18.5915L1131.99 25.9532L1130.58 27.2676L1131.99 28.5821L1179.8 73.1268L1181.21 74.4412L1229.01 118.986L1230.42 120.3L1278.23 164.845L1279.64 166.16L1281.05 164.845L1328.86 120.3L1378.07 166.16L1379.48 164.845L1330.27 118.986L1328.86 117.672L1327.44 118.986L1279.64 163.531L1231.83 118.986L1279.64 74.4412L1281.05 73.1268L1279.64 71.8124L1231.83 27.2676L1281.05 -18.5915L1279.64 -19.9059L1230.42 25.9532L1182.62 -18.5915L1181.21 -19.9059ZM1278.23 73.1268L1230.42 117.672L1182.62 73.1268L1230.42 28.5821L1278.23 73.1268ZM1229.01 27.2676L1181.21 71.8124L1133.4 27.2676L1181.21 -17.2771L1229.01 27.2676Z" fill="#E6F4FA" fill-opacity="0.6"/>
<path d="M1179.8 256.563L1181.21 257.878L1230.42 303.737L1231.83 302.423L1182.62 256.563L1181.21 255.249L1131.99 209.39L1130.58 210.704L1179.8 256.563Z" fill="#E6F4FA" fill-opacity="0.6"/>
<path d="M1131.99 899.906L1133.4 898.592L1181.21 854.047L1182.62 852.733L1181.21 851.418L1133.4 806.873L1181.21 762.329L1229.01 806.873L1230.42 808.188L1231.83 806.873L1279.64 762.329L1281.05 761.014L1328.86 716.469L1376.66 761.014L1378.07 762.329L1379.48 761.014L1428.7 715.155L1427.29 713.841L1378.07 759.7L1330.27 715.155L1328.86 713.841L1327.44 715.155L1279.64 759.7L1231.83 715.155L1281.05 669.296L1279.64 667.981L1230.42 713.841L1182.62 669.296L1230.42 624.751L1231.83 623.437L1281.05 577.578L1279.64 576.263L1230.42 622.122L1229.01 623.437L1181.21 667.981L1131.99 622.122L1130.58 623.437L1179.8 669.296L1131.99 713.841L1130.58 715.155L1131.99 716.469L1179.8 761.014L1131.99 805.559L1084.19 761.014L1082.78 759.7L1034.97 715.155L1082.78 670.61L1084.19 669.296L1082.78 667.981L1034.97 623.437L1033.56 622.122L984.345 576.263L982.935 577.578L1032.15 623.437L1033.56 624.751L1081.37 669.296L1033.56 713.841L984.345 667.981L982.935 669.296L1032.15 715.155L982.935 761.014L984.345 762.329L1033.56 716.469L1081.37 761.014L1032.15 806.873L1033.56 808.188L1082.78 762.329L1130.58 806.873L1082.78 851.418L1081.37 852.733L1033.56 897.277L984.345 851.418L982.935 852.733L1032.15 898.592L1033.56 899.906L1034.97 898.592L1082.78 854.047L1130.58 898.592L1131.99 899.906ZM1278.23 761.014L1230.42 805.559L1182.62 761.014L1230.42 716.469L1278.23 761.014ZM1133.4 715.155L1181.21 670.61L1229.01 715.155L1181.21 759.7L1133.4 715.155ZM1084.19 852.733L1131.99 808.188L1179.8 852.733L1131.99 897.277L1084.19 852.733Z" fill="#E6F4FA" fill-opacity="0.6"/>
<path d="M1081.37 73.1267L1032.15 118.986L1033.56 120.3L1082.78 74.4411L1084.19 73.1267L1082.78 71.8123L1034.97 27.2675L1033.56 25.9531L1032.15 27.2675L982.934 73.1267L984.345 74.4411L1033.56 28.582L1081.37 73.1267Z" fill="#E6F4FA" fill-opacity="0.6"/>
<path d="M1084.19 577.57L1033.56 530.397L1032.15 531.712L1082.77 578.885L1084.19 577.57Z" fill="#E6F4FA" fill-opacity="0.6"/>
<path d="M1033.56 257.878L1034.97 256.564L1082.78 212.019L1130.58 256.564L1082.78 301.108L1081.37 302.423L1032.15 348.282L1033.56 349.596L1082.78 303.737L1084.19 302.423L1131.99 257.878L1179.8 302.423L1130.58 348.282L1131.99 349.596L1181.21 303.737L1229.01 348.282L1230.42 349.596L1231.83 348.282L1279.64 303.737L1281.05 302.423L1330.27 256.564L1328.85 255.249L1279.64 301.108L1231.83 256.564L1230.42 255.249L1182.62 210.704L1181.21 209.39L1133.4 164.845L1131.99 163.531L1084.19 118.986L1131.99 74.4413L1179.8 118.986L1181.21 120.3L1229.01 164.845L1230.42 166.16L1278.23 210.704L1279.64 212.019L1281.05 210.704L1328.85 166.16L1376.66 210.704L1378.07 212.019L1379.48 210.704L1427.29 166.16L1475.09 210.704L1476.5 212.019L1524.31 256.564L1475.09 302.423L1476.5 303.737L1525.72 257.878L1527.13 256.564L1525.72 255.249L1477.91 210.704L1476.5 209.39L1428.7 164.845L1477.91 118.986L1476.5 117.672L1427.29 163.531L1379.48 118.986L1378.07 117.672L1330.27 73.1269L1378.07 28.5822L1425.88 73.1269L1427.29 74.4413L1428.7 73.1269L1476.5 28.5822L1525.72 74.4413L1527.13 73.1269L1477.91 27.2678L1476.5 25.9533L1428.7 -18.5914L1427.29 -19.9058L1425.88 -18.5914L1378.07 25.9533L1330.27 -18.5914L1328.85 -19.9058L1327.44 -18.5914L1279.64 25.9533L1278.23 27.2678L1279.64 28.5822L1327.44 73.1269L1278.23 118.986L1279.64 120.3L1328.85 74.4413L1376.66 118.986L1378.07 120.3L1425.88 164.845L1378.07 209.39L1330.27 164.845L1328.85 163.531L1327.44 164.845L1279.64 209.39L1231.83 164.845L1230.42 163.531L1182.62 118.986L1181.21 117.672L1133.4 73.1269L1131.99 71.8125L1084.19 27.2678L1133.4 -18.5914L1131.99 -19.9058L1082.78 25.9533L1034.97 -18.5914L1033.56 -19.9058L1032.15 -18.5914L982.934 27.2678L984.345 28.5822L1033.56 -17.277L1081.37 27.2678L1082.78 28.5822L1130.58 73.1269L1082.78 117.672L1081.37 118.986L1033.56 163.531L985.755 118.986L1034.97 73.1269L1033.56 71.8125L984.345 117.672L982.934 118.986L984.345 120.3L1032.15 164.845L984.345 209.39L982.934 210.704L984.345 212.019L1032.15 256.564L1033.56 257.878ZM1427.29 -17.277L1475.09 27.2678L1427.29 71.8125L1379.48 27.2678L1427.29 -17.277ZM1281.05 27.2678L1328.85 -17.277L1376.66 27.2678L1328.85 71.8125L1281.05 27.2678ZM1179.8 210.704L1181.21 212.019L1229.01 256.564L1230.42 257.878L1278.23 302.423L1230.42 346.967L1182.62 302.423L1181.21 301.108L1133.4 256.564L1131.99 255.249L1084.19 210.704L1131.99 166.16L1179.8 210.704ZM1082.78 120.3L1130.58 164.845L1082.78 209.39L1034.97 164.845L1082.78 120.3ZM985.755 210.704L1033.56 166.16L1081.37 210.704L1033.56 255.249L985.755 210.704Z" fill="#E6F4FA" fill-opacity="0.6"/>
<path d="M1034.97 439.993L984.346 392.82L982.935 394.135L1033.56 441.308L1034.97 439.993Z" fill="#E6F4FA" fill-opacity="0.6"/>
<path d="M1034.97 669.287L984.344 622.115L982.933 623.429L1033.56 670.602L1034.97 669.287Z" fill="#E6F4FA" fill-opacity="0.6"/>
<path d="M1033.56 854.047L1034.97 852.732L1084.19 806.873L1082.78 805.559L1033.56 851.418L985.755 806.873L1034.97 761.014L1033.56 759.7L984.345 805.559L982.934 806.873L984.345 808.188L1032.15 852.732L1033.56 854.047Z" fill="#E6F4FA" fill-opacity="0.6"/>
</g>
</g>
<defs>
<clipPath id="clip0_2_13459">
<rect width="880" height="532.062" fill="white" transform="matrix(0 1 -1 0 457.062 0)"/>
</clipPath>
<clipPath id="clip1_2_13459">
<rect width="880" height="532.062" fill="white" transform="matrix(0 1 -1 0 989.062 0)"/>
</clipPath>
<clipPath id="clip2_2_13459">
<rect width="880" height="532" fill="white" transform="matrix(0 1 -1 0 1521 0)"/>
</clipPath>
</defs>
</svg>
